<svg width="93" height="71" viewBox="0 0 93 71" fill="none" xmlns="http://www.w3.org/2000/svg">
<g clip-path="url(#clip0_615_515)">
<path d="M50.1567 38.8681V50.6989H71.109V38.73C73.449 38.73 75.6351 38.73 77.8212 38.73C81.793 38.73 81.793 38.73 81.793 42.6582C81.793 51.4507 81.793 60.2433 81.793 69.0204V70.9078H71.1706V59.0464H50.1567V70.8618H39.6729V38.8681H50.1567Z" fill="black"/>
<path d="M21.2451 32.193C29.2966 24.1677 37.1787 16.3266 45.338 8.19388H29.3428V0.122559H65.2127C57.2844 8.04043 49.3868 15.9123 41.4893 23.7841C41.5663 23.9376 41.6432 24.0757 41.7356 24.2291H57.4845V32.2084H21.2451V32.193Z" fill="black"/>
<path d="M0.184455 38.8066H36.6393V46.8319H9.91397C9.88318 46.9393 9.837 47.0468 9.80621 47.1542C18.7044 55.0107 27.6026 62.8672 36.8087 70.9845C35.1922 70.9845 33.9299 70.9845 32.6675 70.9845C29.7887 70.9845 26.9098 71.0152 24.0464 70.9538C23.446 70.9385 22.7071 70.7236 22.2606 70.3247C15.1328 64.1101 8.0358 57.8341 0.954195 51.5581C0.600115 51.2512 0.23064 50.7295 0.215245 50.2845C0.153666 46.5097 0.184455 42.7502 0.184455 38.8066Z" fill="black"/>
<path d="M84.5176 32.2088V8.43981C76.4969 16.4651 68.6302 24.3216 60.7788 32.1781C60.6095 32.1014 60.4555 32.0246 60.2862 31.9479V30.0605C60.2862 27.145 60.24 24.2295 60.317 21.314C60.3324 20.6849 60.6249 19.9023 61.0713 19.4573C67.2754 13.212 73.5103 6.9974 79.7606 0.813482C80.1147 0.475899 80.6227 0.076936 81.0538 0.076936C84.8409 0.0155571 88.6126 0.0462466 92.5229 0.0462466V32.2241H84.5176V32.2088Z" fill="black"/>
<path d="M16.9343 8.11756V32.1934H8.8982V8.19429H0V0.0922763C0.38487 0.0615869 0.815925 0.0155527 1.23158 0.0155527C9.22149 0.0155527 17.2268 0.0308974 25.2167 -0.0151367C26.4021 -0.0151367 26.8177 0.307102 26.7562 1.50399C26.6638 3.26863 26.6946 5.03327 26.7562 6.79792C26.787 7.77998 26.4791 8.13291 25.4476 8.11756C22.6612 8.07153 19.8901 8.11756 16.9343 8.11756Z" fill="black"/>
<path d="M92.9996 38.8223H84.5479V70.8774H92.9996V38.8223Z" fill="black"/>
</g>
<defs>
<clipPath id="clip0_615_515">
<rect width="93" height="71" fill="white"/>
</clipPath>
</defs>
</svg>
