<svg width="60" height="60" fill="none" xmlns="http://www.w3.org/2000/svg"><path d="M45 28.069a1.88 1.88 0 00-1.875 1.875v3.806h-4.688a1.88 1.88 0 00-1.874 1.875v3.75a1.88 1.88 0 01-1.876 1.875 1.88 1.88 0 01-1.874-1.875v-3.75a1.88 1.88 0 00-1.876-1.875H26.25v-2.813h1.875c3.094 0 5.625-2.53 5.625-5.625 0-3.093-2.531-5.625-5.625-5.625H26.25v-2.812h5.681A1.88 1.88 0 0033.806 15a1.88 1.88 0 00-1.875-1.875H7.5c-3.094 0-5.625 2.531-5.625 5.625V52.5c0 3.094 2.531 5.625 5.625 5.625h33.75c3.094 0 5.625-2.531 5.625-5.625V29.944A1.88 1.88 0 0045 28.069zM7.5 16.875h15v4.688a1.88 1.88 0 001.875 1.875h3.75A1.88 1.88 0 0130 25.313a1.88 1.88 0 01-1.875 1.875h-3.75a1.88 1.88 0 00-1.875 1.875v4.687h-2.813v-1.875c0-3.094-2.53-5.625-5.625-5.625-3.093 0-5.624 2.531-5.624 5.625v1.875H5.624v-15A1.88 1.88 0 017.5 16.875zM5.625 52.5v-15h4.688a1.88 1.88 0 001.874-1.875v-3.75A1.88 1.88 0 0114.063 30a1.88 1.88 0 011.874 1.875v3.75a1.88 1.88 0 001.876 1.875H22.5v2.813h-1.875c-3.094 0-5.625 2.53-5.625 5.624s2.531 5.626 5.625 5.626H22.5v2.812h-15A1.88 1.88 0 015.625 52.5zm35.625 1.875h-15v-4.688a1.88 1.88 0 00-1.875-1.874h-3.75a1.88 1.88 0 01-1.875-1.876 1.88 1.88 0 011.875-1.874h3.75a1.88 1.88 0 001.875-1.876V37.5h2.813v1.875c0 3.094 2.53 5.625 5.625 5.625 3.093 0 5.624-2.531 5.624-5.625V37.5h2.813v15a1.88 1.88 0 01-1.875 1.875z" fill="#473B7F"/><path d="M46.875 1.875c-6.206 0-11.25 5.044-11.25 11.25s5.044 11.25 11.25 11.25 11.25-5.044 11.25-11.25-5.044-11.25-11.25-11.25zm4.8 10.444l-4.256 4.256a1.841 1.841 0 01-1.331.544 1.92 1.92 0 01-1.332-.544l-2.7-2.7a1.867 1.867 0 010-2.644 1.867 1.867 0 012.644 0l1.369 1.369 2.925-2.925a1.867 1.867 0 012.644 0 1.867 1.867 0 010 2.644h.037z" fill="#9292DF"/></svg>