<svg width="60" height="60" fill="none" xmlns="http://www.w3.org/2000/svg"><path d="M15.901 58.127a5.16 5.16 0 01-3.712-1.594l-2.306-2.456a1.867 1.867 0 01-.507-1.35c0-.487.225-.975.582-1.312l13.237-12.45a5 5 0 014.519-1.275 5.059 5.059 0 013.637 2.98l1.35 3.132 9.263-9.262-2.157-2.157a1.853 1.853 0 01-.468-1.837 1.862 1.862 0 011.387-1.313l15.113-3.487a1.834 1.834 0 011.744.506c.45.469.637 1.125.506 1.744L54.6 43.108c-.15.657-.656 1.2-1.312 1.388-.657.187-1.35 0-1.838-.469l-2.156-2.156-14.738 14.737A5.066 5.066 0 0130 58.015a5.083 5.083 0 01-3.712-3l-1.444-3.357-5.438 5.12a5.082 5.082 0 01-3.487 1.387l-.019-.038zm-1.987-5.25l1.012 1.088c.506.543 1.35.562 1.894.056l7.387-6.956a1.937 1.937 0 011.67-.47c.6.132 1.106.545 1.33 1.088l2.494 5.813c.244.581.769.75.975.787.225.038.75.075 1.2-.375L47.945 37.84a1.867 1.867 0 012.644 0l1.087 1.087 2.044-8.887-8.887 2.043 1.087 1.088c.356.356.544.825.544 1.331s-.206.975-.544 1.331L33.376 48.377a1.867 1.867 0 01-1.687.525 1.832 1.832 0 01-1.369-1.106l-2.438-5.681c-.243-.582-.75-.732-.956-.788-.206-.037-.731-.094-1.181.338L13.876 52.84l.038.037z" fill="#473B7F"/><path d="M15.94 18.75c4.032 0 7.313-3.281 7.313-7.313V8.082c0-3.412-2.775-6.206-6.206-6.206h-2.231c-3.413 0-6.207 2.775-6.207 6.206v3.357c0 4.03 3.282 7.312 7.313 7.312h.019z" fill="#9292DF"/><path d="M26.25 15.414c-1.594 4.144-5.625 7.088-10.313 7.088-4.687 0-8.718-2.944-10.312-7.088-2.325 2.513-3.75 5.85-3.75 9.525v3.656a5.53 5.53 0 005.531 5.532h.563v-3.75a1.88 1.88 0 011.875-1.875 1.88 1.88 0 011.875 1.875v3.75h8.437v-3.75a1.88 1.88 0 011.875-1.875 1.88 1.88 0 011.875 1.875v3.75h.563A5.53 5.53 0 0030 28.595V24.94c0-3.675-1.425-7.012-3.75-9.525z" fill="#9292DF"/></svg>