<svg width="60" height="60" fill="none" xmlns="http://www.w3.org/2000/svg"><path d="M57.956 29.212C52.275 16.988 41.55 9.375 30 9.375S7.744 16.969 2.044 29.212a1.922 1.922 0 000 1.576C7.725 43.013 18.45 50.624 30 50.624s22.256-7.594 27.956-19.837a1.922 1.922 0 000-1.576zM5.831 30a34.403 34.403 0 015.288-7.837A38.726 38.726 0 0010.313 30c0 2.663.28 5.288.806 7.837A34.6 34.6 0 015.83 30zm10.556 12.506C14.87 38.7 14.063 34.406 14.063 30c0-4.406.825-8.7 2.325-12.506 4.125-2.813 8.794-4.369 13.613-4.369 4.819 0 9.487 1.556 13.612 4.369 1.52 3.806 2.325 8.1 2.325 12.506 0 4.406-.825 8.7-2.325 12.506C39.487 45.32 34.82 46.875 30 46.875c-4.819 0-9.488-1.556-13.613-4.369zm32.494-4.669c.525-2.53.806-5.175.806-7.837 0-2.663-.28-5.288-.806-7.837A34.6 34.6 0 0154.17 30a34.4 34.4 0 01-5.288 7.837zM30 7.5a1.88 1.88 0 001.875-1.875V3.75A1.88 1.88 0 0030 1.875a1.88 1.88 0 00-1.875 1.875v1.875A1.88 1.88 0 0030 7.5zm-15.768.805A1.898 1.898 0 0015.9 9.318c.282 0 .582-.075.863-.207a1.87 1.87 0 00.806-2.53l-.9-1.763a1.865 1.865 0 00-2.531-.807 1.87 1.87 0 00-.806 2.532l.9 1.762zm29.007.805c.281.15.563.207.863.207.675 0 1.33-.375 1.668-1.012l.9-1.763a1.892 1.892 0 00-.806-2.531 1.891 1.891 0 00-2.531.806l-.9 1.763a1.891 1.891 0 00.806 2.53zM30 52.5a1.88 1.88 0 00-1.875 1.875v1.875A1.88 1.88 0 0030 58.125a1.88 1.88 0 001.875-1.875v-1.875A1.88 1.88 0 0030 52.5zm-13.238-1.614a1.892 1.892 0 00-2.53.806l-.9 1.763a1.891 1.891 0 00.805 2.53c.282.15.563.207.863.207a1.9 1.9 0 001.669-1.012l.9-1.763a1.892 1.892 0 00-.806-2.531zm29.008.806c-.468-.919-1.593-1.275-2.53-.806a1.87 1.87 0 00-.807 2.531l.9 1.763a1.898 1.898 0 001.669 1.012c.281 0 .581-.075.862-.206a1.87 1.87 0 00.807-2.531l-.9-1.763z" fill="#473B7F"/><path d="M30 33.372a5.73 5.73 0 005.719-5.719v-2.512c0-2.7-2.194-4.875-4.875-4.875h-1.688a4.877 4.877 0 00-4.875 4.875v2.512A5.73 5.73 0 0030 33.372z" fill="#9292DF"/><path d="M38.866 30.875c-1.332 3.638-4.782 6.244-8.87 6.244-4.087 0-7.537-2.625-8.868-6.244a12.136 12.136 0 00-3.3 8.025c3.675 2.7 7.875 4.219 12.169 4.219 4.294 0 8.494-1.519 12.169-4.219a12.06 12.06 0 00-3.3-8.025z" fill="#9292DF"/></svg>