<svg width="60" height="60" fill="none" xmlns="http://www.w3.org/2000/svg"><path d="M14.063 26.25c6.712 0 12.187-5.475 12.187-12.188 0-6.712-5.475-12.187-12.188-12.187-6.712 0-12.187 5.475-12.187 12.188 0 6.712 5.475 12.187 12.188 12.187zm0-20.625c4.65 0 8.437 3.787 8.437 8.438 0 4.65-3.788 8.437-8.438 8.437s-8.437-3.788-8.437-8.438 3.787-8.437 8.438-8.437z" fill="#473B7F"/><path d="M14.063 20.156c3.356 0 6.093-2.737 6.093-6.093 0-3.357-2.737-6.094-6.093-6.094-3.357 0-6.094 2.737-6.094 6.093 0 3.357 2.737 6.094 6.093 6.094zm0-8.437a2.345 2.345 0 11-.002 4.689 2.345 2.345 0 01.002-4.69zm35.214.469h-18.75a1.88 1.88 0 00-1.875 1.874 1.88 1.88 0 001.875 1.876h18.75a3.761 3.761 0 013.75 3.75v4.687a3.761 3.761 0 01-3.75 3.75h-21.3l2.418-2.419a1.867 1.867 0 000-2.643 1.867 1.867 0 00-2.643 0l-5.625 5.625a1.867 1.867 0 000 2.643l5.625 5.625a1.84 1.84 0 001.33.544 1.92 1.92 0 001.332-.544 1.867 1.867 0 000-2.644l-2.419-2.418h21.3c4.144 0 7.5-3.356 7.5-7.5v-4.688c0-4.143-3.356-7.5-7.5-7.5l-.018-.018zM22.5 44.063H9.375a3.761 3.761 0 01-3.75-3.75v-4.688a3.761 3.761 0 013.75-3.75h7.5A1.88 1.88 0 0018.75 30a1.88 1.88 0 00-1.875-1.875h-7.5a7.498 7.498 0 00-7.5 7.5v4.688c0 4.143 3.356 7.5 7.5 7.5H22.5a1.88 1.88 0 001.875-1.876 1.88 1.88 0 00-1.875-1.874zm7.5 0h-.938a1.88 1.88 0 00-1.875 1.874 1.88 1.88 0 001.875 1.876H30a1.88 1.88 0 001.875-1.876A1.88 1.88 0 0030 44.063z" fill="#473B7F"/><path d="M45.938 33.75c-6.713 0-12.188 5.475-12.188 12.188 0 6.712 5.475 12.187 12.188 12.187 6.712 0 12.187-5.475 12.187-12.188 0-6.712-5.475-12.187-12.188-12.187zm6.018 10.631L46.2 50.138a1.841 1.841 0 01-1.331.543 1.92 1.92 0 01-1.331-.543l-3.62-3.62a1.867 1.867 0 010-2.643 1.867 1.867 0 012.645 0l2.306 2.306 4.425-4.425a1.867 1.867 0 012.644 0 1.867 1.867 0 010 2.644l.018-.019z" fill="#9292DF"/></svg>