<svg width="24" height="24" fill="none" xmlns="http://www.w3.org/2000/svg"><path fill-rule="evenodd" clip-rule="evenodd" d="M1.895 3.787a.632.632 0 00-.632.631v3.495h21.474V4.418a.632.632 0 00-.632-.631H1.895zm20.842 5.39H1.263v12.925c0 .35.283.632.632.632h20.21a.632.632 0 00.632-.632V9.176zM0 4.417c0-1.046.848-1.895 1.895-1.895h20.21c1.047 0 1.895.849 1.895 1.895v17.684a1.895 1.895 0 01-1.895 1.895H1.895A1.895 1.895 0 010 22.102V4.418z" fill="#848585"/><path fill-rule="evenodd" clip-rule="evenodd" d="M5.686 0c.35 0 .632.283.632.632v3.79a.632.632 0 01-1.263 0V.631a.63.63 0 01.631-.632zM18.32 0c.348 0 .63.283.63.632v3.79a.632.632 0 01-1.262 0V.631a.63.63 0 01.631-.632zm-1.898 11.999c0-.349.283-.632.631-.632h2.527a.632.632 0 010 1.263h-2.526a.631.631 0 01-.632-.631zm0 7.578c0-.349.283-.632.631-.632h2.527a.632.632 0 010 1.264h-2.526a.632.632 0 01-.632-.632zm-6.32-7.578c0-.349.282-.632.631-.632h2.526a.632.632 0 010 1.263h-2.526a.631.631 0 01-.631-.631zm0 7.578c0-.349.282-.632.631-.632h2.526a.632.632 0 010 1.264h-2.526a.632.632 0 01-.631-.632zM3.79 11.999c0-.349.282-.632.63-.632h2.527a.632.632 0 010 1.263H4.421a.632.632 0 01-.632-.63zm0 7.578c0-.349.282-.632.63-.632h2.527a.632.632 0 010 1.264H4.421a.632.632 0 01-.632-.632zm12.632-3.789c0-.349.283-.632.631-.632h2.527a.632.632 0 010 1.263h-2.526a.632.632 0 01-.632-.631zm-6.32 0c0-.349.282-.632.631-.632h2.526a.632.632 0 010 1.263h-2.526a.632.632 0 01-.631-.631zm-6.312 0c0-.349.282-.632.63-.632h2.527a.632.632 0 010 1.263H4.421a.632.632 0 01-.632-.631z" fill="#848585"/></svg>