<svg width="232" height="849" fill="none" xmlns="http://www.w3.org/2000/svg"><path d="M232.406 419.269h-79.671c3.239-10.957 6.674-21.682 7.387-26.316 1.431-9.304 3.578-37.932 3.578-37.932-4.01-5.156-1.906-19.784-.745-32.353h69.451v96.601z" stroke="url(#paint0_linear_5497_41749)"/><path d="M152.225 537.111h68.076c-.061.395-.114.738-.14.965-.638 5.409.156 37.532-1.114 49.937-1.272 12.406-6.203 26.561-6.839 31.49-.241 1.86.222 7.332 1.002 14.212h-54.715c.671-4.496 1.278-7.974 1.623-9.359 1.192-4.771-.954-36.262-.954-43.418 0-6.335-1.876-26.126-6.939-43.827z" stroke="url(#paint1_linear_5497_41749)"/><path d="M148.985 526.493c-5.169-21.565-2.24-69.082-2.465-79.387-.081-3.72 1.296-10.079 3.202-17.216h82.684v36.936c-.12 7.923-6.676 41.407-10.155 59.667h-73.266z" stroke="url(#paint2_linear_5497_41749)"/><path d="M232.406 204.825H107.649a99.235 99.235 0 01-.01-3.434c.239-15.984 7.396-32.684 15.983-45.567 8.589-12.881 18.847-12.881 21.472-15.981 2.623-3.103 23.378-11.69 35.783-17.894 7.785-3.89 13.622-9.002 17.131-13.727h34.398v96.603z" stroke="url(#paint3_linear_5497_41749)"/><path d="M185.808 845.917c-2.546 3.283-6.523-1.534-6.523-1.534-2.702 4.456-5.564-2.223-5.564-2.223s-2.385 1.91-4.135-2.706c-1.75-4.611 7.791-14.155 7.791-17.493 0-3.339 3.34-12.089 4.294-17.494.925-5.247.949-29.948-7.761-52.912h35.12c-.002.433-.004.842-.004 1.224 0 11.45 4.455 20.676 8.271 35.784 3.818 15.11-1.114 25.448-.32 33.08.796 7.634 1.116 17.971-7.951 24.013-9.063 6.043-14.313-.954-14.313-.954-4.133 6.997-8.905 1.215-8.905 1.215z" stroke="url(#paint4_linear_5497_41749)"/><path d="M155.352 669.445c-.363-5.434.555-15.688 1.707-25.114h57.449c1.165 9.043 2.511 18.58 3.423 25.114 2.07 14.788-4.452 28.149-6.202 32.123-1.324 3.011-2.191 24.258-2.535 39.371h-39.175c-8.038-24.676-14.031-61.941-14.667-71.494z" stroke="url(#paint5_linear_5497_41749)"/><path d="M201.883 97.603c-.023-7.341-2.398-20.424-2.398-20.424-7.318.32-12.405-16.379-12.089-24.012.32-7.633 6.363-5.886 6.363-5.886C190.896 6.25 219.523 1 232.406 1v96.603h-30.523z" stroke="url(#paint6_linear_5497_41749)"/><path d="M37.184 485.913c-.636 3.339-2.465 8.907-5.485 9.067-3.024.16-2.864-9.387-2.864-9.387-.16.954-2.703 1.752-2.703 1.752-7.158 0-5.09-23.222-4.452-28.63.634-5.409 2.066-21.628.794-23.381-1.272-1.746-5.41 1.593-6.045 2.069-.636.478-4.612 5.09-7.792 7.318-3.18 2.223-7.795.954-7.633 0 .16-.954 9.302-11.927 12.883-14.791 3.576-2.864 8.348-10.258 12.164-14.792 3.817-4.531 14.314-9.78 14.314-9.78s13.122-24.81 15.984-30.297c2.864-5.486 7.157-26.241 10.02-37.214 2.862-10.975 12.882-31.252 16.46-35.069 3.579-3.818 15.03-22.424 18.369-33.638 3.34-11.212 0-31.728 4.772-41.986 2.623-5.638 2.791-8.04 2.453-11.71h123.983v96.605h-68.892c-.361-14.087-8.182-40.625-10.471-50.382-2.386-10.179-4.133-3.66-5.725 1.747-1.59 5.41-8.111 21.154-11.767 31.967-3.658 10.815-4.136 25.766-7.795 38.171-3.656 12.404-20.516 36.26-29.737 44.849-9.225 8.587-21.63 33.397-23.54 38.328-1.908 4.932-1.432 9.384-2.386 17.813-.954 8.429-17.891 45.007-20.593 48.349-2.706 3.34-4.694.077-4.694.077s-3.419 8.986-6.202 9.065c-2.782.079-3.42-6.12-3.42-6.12z" stroke="url(#paint7_linear_5497_41749)"/><defs><linearGradient id="paint0_linear_5497_41749" x1="116.703" y1="848.161" x2="116.703" y2="1" gradientUnits="userSpaceOnUse"><stop stop-color="#59B6EF"/><stop offset=".48" stop-color="#7B74DD"/><stop offset="1" stop-color="#FDBC3B"/></linearGradient><linearGradient id="paint1_linear_5497_41749" x1="116.703" y1="848.161" x2="116.703" y2="1" gradientUnits="userSpaceOnUse"><stop stop-color="#59B6EF"/><stop offset=".48" stop-color="#7B74DD"/><stop offset="1" stop-color="#FDBC3B"/></linearGradient><linearGradient id="paint2_linear_5497_41749" x1="116.703" y1="848.161" x2="116.703" y2="1" gradientUnits="userSpaceOnUse"><stop stop-color="#59B6EF"/><stop offset=".48" stop-color="#7B74DD"/><stop offset="1" stop-color="#FDBC3B"/></linearGradient><linearGradient id="paint3_linear_5497_41749" x1="116.703" y1="848.161" x2="116.703" y2="1" gradientUnits="userSpaceOnUse"><stop stop-color="#59B6EF"/><stop offset=".48" stop-color="#7B74DD"/><stop offset="1" stop-color="#FDBC3B"/></linearGradient><linearGradient id="paint4_linear_5497_41749" x1="116.703" y1="848.161" x2="116.703" y2="1" gradientUnits="userSpaceOnUse"><stop stop-color="#59B6EF"/><stop offset=".48" stop-color="#7B74DD"/><stop offset="1" stop-color="#FDBC3B"/></linearGradient><linearGradient id="paint5_linear_5497_41749" x1="116.703" y1="848.161" x2="116.703" y2="1" gradientUnits="userSpaceOnUse"><stop stop-color="#59B6EF"/><stop offset=".48" stop-color="#7B74DD"/><stop offset="1" stop-color="#FDBC3B"/></linearGradient><linearGradient id="paint6_linear_5497_41749" x1="116.703" y1="848.161" x2="116.703" y2="1" gradientUnits="userSpaceOnUse"><stop stop-color="#59B6EF"/><stop offset=".48" stop-color="#7B74DD"/><stop offset="1" stop-color="#FDBC3B"/></linearGradient><linearGradient id="paint7_linear_5497_41749" x1="116.703" y1="848.161" x2="116.703" y2="1" gradientUnits="userSpaceOnUse"><stop stop-color="#59B6EF"/><stop offset=".48" stop-color="#7B74DD"/><stop offset="1" stop-color="#FDBC3B"/></linearGradient></defs></svg>