<svg width="142" height="70" fill="none" xmlns="http://www.w3.org/2000/svg"><path d="M130.531 20.938l10.853.01v2.232h-8.62v3.674h7.018v2.233h-7.018v5.686h8.84v2.233h-11.073V20.937zm-12.836 0h2.233v.01h8.62v2.232h-8.62v3.945h7.018v2.232h-7.018v7.649h-2.233V20.937zm-4.242 16.068V20.937h2.233v16.069h-2.233zm-12.297-16.068h2.233v13.835h8.169v2.233h-10.402V20.937zm-3.664 16.066V35.03h2.233v1.973h-2.233zm-2.756-12.889c-1.108-1.068-2.162-1.602-3.163-1.602-.06 0-.12.004-.18.01-.514.047-.972.264-1.372.651a1.87 1.87 0 00-.36.48 1.45 1.45 0 00-.18.741v.04c.046.441.22.825.52 1.152.3.327.637.594 1.011.8.387.214.787.424 1.201.631a19.3 19.3 0 011.592.861c.527.307.995.678 1.402 1.112a5.18 5.18 0 011.231 2.583 5.01 5.01 0 01-.3 2.813 4.942 4.942 0 01-1.832 2.202c-.828.561-1.786.855-2.873.881h-.21c-1.009 0-1.913-.23-2.714-.69-.794-.468-1.448-1.148-1.962-2.043l1.942-1.05c.374.66.814 1.127 1.322 1.4.473.261.967.391 1.481.391h.11a3.014 3.014 0 001.542-.56 2.874 2.874 0 001.031-1.282c.154-.374.23-.75.23-1.131 0-.14-.026-.377-.08-.711-.053-.34-.236-.728-.55-1.161a3.693 3.693 0 00-1.021-.931c-.407-.254-1.038-.595-1.892-1.022a8.604 8.604 0 01-2.283-1.652 3.965 3.965 0 01-1.151-2.673c0-.954.383-1.818 1.151-2.593a4.613 4.613 0 012.823-1.291c.114-.007.224-.01.33-.01 1.529 0 2.99.607 4.386 1.822l-1.182 1.832zm-17.441-.937v5.136h2.833c.821 0 1.522-.25 2.103-.751.58-.5.87-1.105.87-1.812 0-.708-.29-1.312-.87-1.812-.581-.508-1.282-.761-2.103-.761h-2.833zm8.76 13.836h-2.713l-4.515-6.468h-1.532v6.468h-2.233V20.945h5.066c1.435 0 2.663.47 3.684 1.412 1.015.941 1.522 2.072 1.522 3.394 0 1.101-.37 2.085-1.111 2.953-.727.854-1.655 1.418-2.783 1.692l4.615 6.618zM69.3 24.528c-1.255-1.228-2.766-1.842-4.535-1.842-1.769 0-3.277.614-4.525 1.842-1.255 1.228-1.882 2.706-1.882 4.435 0 1.735.627 3.217 1.882 4.445 1.248 1.228 2.756 1.842 4.525 1.842 1.769 0 3.28-.614 4.535-1.842 1.248-1.228 1.872-2.71 1.872-4.445 0-1.729-.624-3.207-1.872-4.435zm1.572 10.462c-1.689 1.662-3.724 2.493-6.107 2.493a8.67 8.67 0 01-6.107-2.493 8.565 8.565 0 01-1.852-2.713 8.295 8.295 0 01-.681-3.314c0-1.148.227-2.25.68-3.304a8.565 8.565 0 011.853-2.713c1.688-1.662 3.724-2.493 6.107-2.493a8.67 8.67 0 013.364.67 8.426 8.426 0 012.743 1.823 8.353 8.353 0 011.852 2.713 8.273 8.273 0 01.68 3.304c0 1.154-.226 2.26-.68 3.314a8.353 8.353 0 01-1.852 2.713zM49.364 20.938h2.233v.01h4.886v2.232h-4.886v13.826h-2.233V23.18H44.47v-2.232h4.895v-.01zm-8.941 16.234c-.761.207-1.605.31-2.533.31a8.67 8.67 0 01-6.107-2.492 8.565 8.565 0 01-1.852-2.713 8.295 8.295 0 01-.681-3.314c0-1.148.227-2.25.68-3.304a8.565 8.565 0 011.853-2.713c1.688-1.662 3.724-2.493 6.107-2.493.928 0 1.772.104 2.533.31 1.048.28 2.092.785 3.133 1.512l-1.271 1.832c-1.368-.947-2.833-1.421-4.395-1.421-1.769 0-3.277.614-4.525 1.842-1.255 1.228-1.882 2.706-1.882 4.435 0 1.735.627 3.217 1.882 4.445 1.248 1.228 2.756 1.842 4.525 1.842.78 0 1.475-.09 2.082-.27.748-.214 1.519-.598 2.313-1.152l1.271 1.832c-1.04.728-2.085 1.232-3.133 1.512zM17.297 20.938l10.852.01v2.232h-8.62v3.674h7.018v2.233H19.53v5.686h8.84v2.233H17.297V20.937zm-3.782.007h2.423L8.97 37.004H6.968L0 20.945h2.433L7.969 33.69l5.546-12.745z" fill="#473B7F"/><path d="M33.335 7.449L29.25 0h83.696l-10.492 17.22h-7.69l5.848-9.771H33.335z" fill="url(#paint0_linear_5497_41845)"/><path d="M33.335 7.449L29.25 0h42.849l-1.682 3.204-1.041 1.922-1.121 2.323h-34.92z" fill="url(#paint1_linear_5497_41845)"/><path d="M69.22 55.424l8.249-14.096h8.41l-16.66 28.673L65 62.5l1.5-2.5 2.72-4.577z" fill="url(#paint2_linear_5497_41845)"/><path d="M69.22 55.422l4.047 7.609-4.048 6.968-4.219-7.5 2-3.5 2.22-3.577z" fill="url(#paint3_linear_5497_41845)"/><defs><linearGradient id="paint0_linear_5497_41845" x1="29.25" y1="8.61" x2="112.946" y2="8.61" gradientUnits="userSpaceOnUse"><stop stop-color="#FDBC3B"/><stop offset=".5" stop-color="#F9B3F8"/><stop offset="1" stop-color="#635BFF"/></linearGradient><linearGradient id="paint1_linear_5497_41845" x1="33.175" y1="7.529" x2="68.975" y2="7.529" gradientUnits="userSpaceOnUse"><stop stop-color="#F9B3F8" stop-opacity="0"/><stop offset=".475" stop-color="#F9B3F8" stop-opacity=".3"/><stop offset="1" stop-color="#635BFF" stop-opacity=".3"/></linearGradient><linearGradient id="paint2_linear_5497_41845" x1="71.061" y1="70.001" x2="85.958" y2="41.328" gradientUnits="userSpaceOnUse"><stop stop-color="#473B7F"/><stop offset="1" stop-color="#9377FC"/></linearGradient><linearGradient id="paint3_linear_5497_41845" x1="64.173" y1="48.214" x2="74.906" y2="67.436" gradientUnits="userSpaceOnUse"><stop stop-color="#473B7F"/><stop offset="1" stop-color="#9377FC"/></linearGradient></defs></svg>