<svg width="142" height="70" fill="none" xmlns="http://www.w3.org/2000/svg"><path d="M130.529 20.934l10.853.01v2.233h-8.62v3.674h7.018v2.232h-7.018v5.687h8.84v2.232h-11.073V20.934zm-12.834 0h2.232v.01h8.62v2.233h-8.62v3.944h7.018v2.233h-7.018v7.648h-2.232V20.934zm-4.245 16.068V20.934h2.232v16.068h-2.232zm-12.294-16.068h2.232V34.77h8.169v2.232h-10.401V20.934zm-3.665 16.068V35.03h2.233v1.972h-2.233zm-2.753-12.884c-1.108-1.068-2.162-1.602-3.163-1.602-.06 0-.12.003-.18.01-.514.047-.972.263-1.372.65a1.87 1.87 0 00-.36.481 1.45 1.45 0 00-.18.74v.04c.046.441.22.825.52 1.152.3.327.637.594 1.011.801.387.214.788.424 1.201.63a19.31 19.31 0 011.592.862 6.16 6.16 0 011.402 1.111 5.179 5.179 0 011.231 2.583 5.012 5.012 0 01-.3 2.813 4.942 4.942 0 01-1.832 2.203c-.828.56-1.786.854-2.874.88h-.21c-1.008 0-1.912-.23-2.713-.69-.794-.467-1.448-1.148-1.962-2.042l1.942-1.052c.374.661.814 1.128 1.322 1.402.474.26.967.39 1.481.39h.11a3.014 3.014 0 001.542-.56 2.874 2.874 0 001.031-1.282c.154-.373.23-.75.23-1.13 0-.141-.026-.378-.08-.712-.053-.34-.236-.727-.55-1.161a3.696 3.696 0 00-1.021-.931c-.407-.254-1.038-.594-1.892-1.021a8.606 8.606 0 01-2.283-1.652 3.965 3.965 0 01-1.151-2.673c0-.955.383-1.819 1.151-2.593a4.612 4.612 0 012.823-1.292c.114-.006.224-.01.33-.01 1.529 0 2.99.608 4.386 1.822l-1.182 1.833zm-17.44-.941v5.135h2.834c.82 0 1.521-.25 2.102-.75.58-.501.871-1.105.871-1.813 0-.707-.29-1.311-.871-1.812-.58-.507-1.281-.76-2.102-.76h-2.834zm8.76 13.835h-2.713l-4.515-6.467h-1.532v6.467h-2.232V20.944h5.066c1.435 0 2.663.47 3.684 1.412 1.014.94 1.522 2.072 1.522 3.393 0 1.102-.37 2.086-1.112 2.954-.727.854-1.655 1.418-2.783 1.692l4.615 6.617zM69.3 24.528c-1.256-1.228-2.767-1.842-4.536-1.842-1.769 0-3.277.614-4.525 1.842-1.255 1.228-1.882 2.707-1.882 4.435 0 1.735.627 3.217 1.882 4.445 1.248 1.228 2.756 1.842 4.525 1.842 1.769 0 3.28-.614 4.535-1.842 1.248-1.228 1.872-2.71 1.872-4.445 0-1.729-.624-3.207-1.872-4.435zm1.57 10.462c-1.689 1.662-3.724 2.493-6.107 2.493a8.672 8.672 0 01-6.107-2.493 8.568 8.568 0 01-1.852-2.713 8.298 8.298 0 01-.68-3.314c0-1.148.226-2.25.68-3.304a8.568 8.568 0 011.852-2.713c1.689-1.662 3.724-2.493 6.107-2.493 1.168 0 2.29.224 3.364.671a8.428 8.428 0 012.743 1.822 8.354 8.354 0 011.852 2.713 8.272 8.272 0 01.68 3.304 8.29 8.29 0 01-.68 3.314 8.354 8.354 0 01-1.852 2.713zM49.366 20.934H51.6v.01h4.886v2.233H51.6v13.825h-2.233V23.176h-4.895v-2.232h4.895v-.01zm-8.94 16.238c-.76.207-1.605.31-2.533.31a8.672 8.672 0 01-6.107-2.492 8.568 8.568 0 01-1.852-2.713 8.298 8.298 0 01-.68-3.314c0-1.148.226-2.25.68-3.304a8.568 8.568 0 011.852-2.713c1.689-1.662 3.725-2.493 6.107-2.493.928 0 1.772.104 2.533.31 1.048.281 2.093.785 3.134 1.512l-1.272 1.833c-1.368-.948-2.833-1.422-4.395-1.422-1.768 0-3.277.614-4.525 1.842-1.255 1.228-1.882 2.707-1.882 4.435 0 1.735.627 3.217 1.882 4.445 1.248 1.228 2.757 1.842 4.525 1.842.781 0 1.475-.09 2.083-.27.747-.214 1.518-.597 2.312-1.151l1.272 1.832c-1.041.727-2.086 1.231-3.134 1.511zM17.3 20.934l10.852.01v2.233h-8.62v3.674h7.018v2.232h-7.018v5.687h8.84v2.232H17.3V20.934zm-3.785.01h2.423L8.97 37.002H6.968L0 20.944h2.433l5.536 12.744 5.546-12.744z" fill="#fff"/><path d="M33.338 7.449L29.253 0h83.696l-10.492 17.22h-7.689l5.847-9.771H33.338z" fill="url(#paint0_linear_113_911)"/><path d="M33.338 7.449L29.253 0h42.85L70.42 3.204l-1.042 1.922-1.121 2.323h-34.92z" fill="url(#paint1_linear_113_911)"/><path d="M69.22 55.423l8.249-14.096h8.41L69.218 70 65 62.5l1.5-2.5 2.72-4.577z" fill="url(#paint2_linear_113_911)"/><path d="M69.22 55.423l4.047 7.609L69.22 70 65 62.5l2-3.5 2.22-3.577z" fill="url(#paint3_linear_113_911)"/><defs><linearGradient id="paint0_linear_113_911" x1="29.253" y1="8.61" x2="112.949" y2="8.61" gradientUnits="userSpaceOnUse"><stop stop-color="#FDBC3B"/><stop offset=".5" stop-color="#F9B3F8"/><stop offset="1" stop-color="#635BFF"/></linearGradient><linearGradient id="paint1_linear_113_911" x1="33.178" y1="7.529" x2="68.979" y2="7.529" gradientUnits="userSpaceOnUse"><stop stop-color="#F9B3F8" stop-opacity="0"/><stop offset=".475" stop-color="#F9B3F8" stop-opacity=".3"/><stop offset="1" stop-color="#635BFF" stop-opacity=".3"/></linearGradient><linearGradient id="paint2_linear_113_911" x1="71.061" y1="70" x2="85.958" y2="41.327" gradientUnits="userSpaceOnUse"><stop stop-color="#473B7F"/><stop offset="1" stop-color="#9377FC"/></linearGradient><linearGradient id="paint3_linear_113_911" x1="64.173" y1="48.215" x2="74.906" y2="67.437" gradientUnits="userSpaceOnUse"><stop stop-color="#473B7F"/><stop offset="1" stop-color="#9377FC"/></linearGradient></defs></svg>