<svg width="48" height="24" fill="none" xmlns="http://www.w3.org/2000/svg"><rect width="48" height="24" rx="2" fill="#FBFAF8"/><path fill-rule="evenodd" clip-rule="evenodd" d="M29.803 21c5.077 0 9.193-4.03 9.193-9s-4.116-9-9.193-9c-5.078 0-9.194 4.03-9.194 9s4.116 9 9.194 9z" fill="#F79E1B"/><path fill-rule="evenodd" clip-rule="evenodd" d="M18.194 21c5.077 0 9.193-4.03 9.193-9s-4.116-9-9.194-9C13.117 3 9 7.03 9 12s4.116 9 9.194 9z" fill="#EB001B"/><path fill-rule="evenodd" clip-rule="evenodd" d="M23.996 5.023c-2.067 1.65-3.387 4.164-3.387 6.979 0 2.814 1.32 5.327 3.387 6.978 2.067-1.65 3.387-4.164 3.387-6.979 0-2.814-1.32-5.327-3.387-6.978z" fill="#FF5F00"/></svg>