<svg width="48" height="24" fill="none" xmlns="http://www.w3.org/2000/svg"><rect width="48" height="24" rx="2" fill="#FBFAF8"/><g clip-path="url(#clip0_5497_41716)"><path d="M18.356 12.101c0-.34-.03-.68-.091-1.015H13.28v1.921h2.854c-.058.307-.182.6-.363.86a2.38 2.38 0 01-.692.656v1.25h1.704c.997-.868 1.572-2.153 1.572-3.672z" fill="#4285F4"/><path d="M13.284 16.98c1.424 0 2.627-.442 3.502-1.204l-1.704-1.249c-.474.306-1.084.478-1.799.478-1.377 0-2.548-.877-2.966-2.06H8.562v1.286a5.108 5.108 0 001.948 2.007 5.515 5.515 0 002.774.743z" fill="#34A853"/><path d="M10.318 12.946a2.832 2.832 0 010-1.91V9.75H8.563A4.764 4.764 0 008 11.992c0 .778.193 1.546.563 2.242l1.755-1.288z" fill="#FBBC04"/><path d="M23.135 12.866v3.517h-1.182V7.696h3.133c.374-.008.746.055 1.095.184.348.129.666.322.935.568.267.235.48.52.626.836a2.393 2.393 0 010 2.005c-.146.316-.359.6-.626.836-.549.493-1.225.74-2.03.74h-1.951v.001zm0-4.1V11.8h1.982c.314.006.623-.076.888-.236a1.54 1.54 0 00.603-.66c.128-.271.169-.572.117-.865a1.482 1.482 0 00-.409-.782l-.032-.03c-.15-.15-.33-.27-.532-.35a1.62 1.62 0 00-.637-.11h-1.98zm7.552 1.48c.874 0 1.563.22 2.068.66.504.441.756 1.045.757 1.814v3.662h-1.13v-.823h-.051c-.49.68-1.14 1.02-1.953 1.019-.693 0-1.273-.194-1.74-.582a1.875 1.875 0 01-.524-.654 1.772 1.772 0 01-.176-.802c0-.615.246-1.104.739-1.467.492-.363 1.149-.545 1.97-.546.701 0 1.28.122 1.733.364v-.256a1.21 1.21 0 00-.126-.546 1.282 1.282 0 00-.361-.441 1.73 1.73 0 00-1.141-.406c-.66 0-1.182.262-1.567.788l-1.039-.62c.571-.776 1.418-1.164 2.54-1.164h.002zm-1.529 4.318c0 .142.035.281.103.408a.91.91 0 00.288.319 1.5 1.5 0 00.919.291 1.947 1.947 0 001.328-.52c.392-.349.587-.757.587-1.226-.368-.277-.882-.416-1.541-.416-.48 0-.88.109-1.201.327-.323.223-.485.493-.485.817h.002zm10.843-4.123l-3.945 8.562h-1.22l1.464-2.996-2.595-5.566h1.284l1.873 4.27h.026l1.824-4.27h1.289z" fill="#5F6368"/><path d="M13.284 8.976a2.964 2.964 0 012.026.748L16.82 8.3A5.25 5.25 0 0013.282 7c-.979 0-1.939.258-2.773.743A5.111 5.111 0 008.563 9.75l1.754 1.287c.418-1.183 1.589-2.06 2.966-2.06z" fill="#EA4335"/></g><defs><clipPath id="clip0_5497_41716"><path fill="#fff" transform="translate(8 7)" d="M0 0h32v12H0z"/></clipPath></defs></svg>