<svg width="48" height="24" fill="none" xmlns="http://www.w3.org/2000/svg"><rect width="48" height="24" rx="2" fill="#FBFAF8"/><path fill-rule="evenodd" clip-rule="evenodd" d="M15.329 6.406c.066.598-.179 1.199-.543 1.63-.365.432-.963.767-1.549.723-.08-.586.216-1.197.553-1.58.378-.43 1.013-.752 1.539-.773zM17.22 9.89c-.096.057-1.135.679-1.122 1.94.013 1.51 1.324 2.035 1.398 2.064l.003.001-.004.013c-.033.103-.244.76-.72 1.44-.434.62-.885 1.24-1.597 1.253-.341.006-.57-.09-.807-.19-.249-.106-.507-.215-.916-.215-.428 0-.698.113-.958.221-.226.094-.445.185-.752.197-.686.025-1.209-.672-1.648-1.292-.896-1.267-1.581-3.581-.661-5.144a2.563 2.563 0 012.16-1.279c.382-.007.752.137 1.076.262.247.096.468.182.646.182.16 0 .375-.083.625-.18.394-.152.876-.338 1.374-.289.34.015 1.295.135 1.909 1.013a.447.447 0 01-.006.003z" fill="#2A2D2E"/><path d="M21.418 16h1.07v-3.065h2.167c1.613 0 2.755-1.136 2.755-2.767v-.012c0-1.63-1.142-2.743-2.755-2.743h-3.237V16zm2.963-7.635c1.226 0 1.934.672 1.934 1.803v.012c0 1.13-.708 1.803-1.934 1.803H22.49V8.365h1.892zm5.548 7.748c.863 0 1.535-.375 1.94-1.06h.095V16h1.035v-4.392c0-1.333-.875-2.136-2.44-2.136-1.368 0-2.344.678-2.51 1.684l-.007.036h1.036l.006-.018c.166-.5.672-.786 1.44-.786.958 0 1.44.429 1.44 1.22v.583l-1.839.114c-1.494.089-2.339.75-2.339 1.892v.012c0 1.166.923 1.904 2.143 1.904zm-1.083-1.928v-.012c0-.637.428-.982 1.404-1.041l1.714-.107v.583c0 .916-.768 1.606-1.821 1.606-.744 0-1.297-.38-1.297-1.029zm5.725 4.065c1.137 0 1.667-.417 2.196-1.857l2.506-6.808h-1.09l-1.755 5.278h-.095L34.57 9.585h-1.106l2.374 6.421-.119.38c-.232.739-.59 1.006-1.178 1.006-.143 0-.304-.005-.429-.03v.852c.143.024.322.036.458.036z" fill="#2A2D2E"/></svg>