<svg width="48" height="24" fill="none" xmlns="http://www.w3.org/2000/svg"><rect width="48" height="24" rx="2" fill="#FBFAF8"/><path fill-rule="evenodd" clip-rule="evenodd" d="M25.173 7.6l-1.977.424V6.417L25.173 6v1.6zm-8.035-.686l-1.922.41-.008 6.309c0 1.166.875 2.024 2.04 2.024.646 0 1.119-.118 1.379-.26v-1.599c-.252.103-1.497.465-1.497-.7V10.3h1.497V8.623H17.13l.008-1.71zm-4.655 3.284c-.418 0-.67.119-.67.426 0 .335.434.483.972.666.878.298 2.032.691 2.037 2.146 0 1.41-1.126 2.221-2.765 2.221a5.46 5.46 0 01-2.15-.449v-1.874c.662.362 1.497.63 2.15.63.441 0 .757-.118.757-.48 0-.372-.47-.542-1.038-.747-.865-.312-1.956-.706-1.956-2.019 0-1.394 1.064-2.229 2.663-2.229.654 0 1.3.103 1.953.363v1.85a4.393 4.393 0 00-1.953-.504zM35.334 8.49c1.867 0 2.844 1.591 2.844 3.608 0 .109-.005.29-.01.445-.003.114-.006.213-.006.256H34.31c.087.93.764 1.197 1.529 1.197.78 0 1.394-.165 1.93-.433v1.575c-.536.3-1.245.512-2.182.512-1.923 0-3.262-1.197-3.262-3.568 0-2 1.135-3.592 3.01-3.592zm-.007 1.6c-.497 0-1.04.37-1.04 1.26h2.032c0-.89-.512-1.26-.992-1.26zm-14.25-.883l-.126-.583h-1.702v6.893h1.97v-4.671c.464-.607 1.252-.497 1.496-.41V8.623c-.252-.094-1.174-.268-1.638.583zm4.096-.583h-1.977v6.893h1.977V8.623zm4.112-.134c-.772 0-1.268.363-1.544.615l-.103-.489h-1.733V17.8l1.97-.418.008-2.229c.283.205.7.496 1.394.496 1.41 0 2.694-1.134 2.694-3.63-.008-2.285-1.308-3.53-2.686-3.53zm-.473 5.427c-.465 0-.74-.165-.93-.37l-.007-2.922c.205-.229.488-.386.937-.386.717 0 1.213.803 1.213 1.835 0 1.056-.488 1.843-1.213 1.843z" fill="#635BFF"/></svg>