<svg width="60" height="60" fill="none" xmlns="http://www.w3.org/2000/svg"><path d="M56.25 37.5h-1.875a1.88 1.88 0 00-1.875 1.875 1.88 1.88 0 001.875 1.875h1.875a1.88 1.88 0 001.875-1.875A1.88 1.88 0 0056.25 37.5zm-3.697-9.47c.282 0 .544-.056.807-.188L55.122 27a1.867 1.867 0 00.881-2.494c-.45-.938-1.575-1.331-2.493-.881l-1.763.843c-.937.45-1.331 1.575-.881 2.494a1.87 1.87 0 001.687 1.069zm2.569 23.719l-1.762-.844a1.861 1.861 0 00-2.494.881 1.861 1.861 0 00.881 2.494l1.763.844c.262.13.543.187.806.187a1.87 1.87 0 001.687-1.069 1.861 1.861 0 00-.88-2.493zM7.5 39.375A1.88 1.88 0 005.625 37.5H3.75a1.88 1.88 0 00-1.875 1.875A1.88 1.88 0 003.75 41.25h1.875A1.88 1.88 0 007.5 39.375zm.747-14.908l-1.762-.843a1.861 1.861 0 00-2.494.88A1.861 1.861 0 004.872 27l1.763.843c.262.132.543.188.806.188a1.87 1.87 0 001.687-1.069 1.861 1.861 0 00-.88-2.494zM6.635 50.905l-1.763.844c-.937.45-1.331 1.575-.881 2.493a1.87 1.87 0 001.687 1.07c.282 0 .544-.057.807-.188l1.762-.844a1.867 1.867 0 00.881-2.494c-.45-.937-1.575-1.331-2.493-.881zM30 20.625c-10.331 0-18.75 8.419-18.75 18.75s8.419 18.75 18.75 18.75 18.75-8.419 18.75-18.75-8.419-18.75-18.75-18.75zm0 33.75c-8.269 0-15-6.731-15-15s6.731-15 15-15 15 6.731 15 15-6.731 15-15 15z" fill="#473B7F"/><path d="M28.313 34.5h6.75a1.88 1.88 0 001.874-1.875 1.88 1.88 0 00-1.874-1.875h-3.188v-1.5A1.88 1.88 0 0030 27.375a1.88 1.88 0 00-1.875 1.875v1.519A5.237 5.237 0 0023.062 36c0 2.831 2.363 5.25 5.25 5.25h3.375c.826 0 1.5.675 1.5 1.5s-.674 1.5-1.5 1.5h-6.75a1.88 1.88 0 00-1.875 1.875A1.88 1.88 0 0024.938 48h3.188v1.5A1.88 1.88 0 0030 51.375a1.88 1.88 0 001.875-1.875v-1.519a5.237 5.237 0 005.063-5.231c0-2.831-2.363-5.25-5.25-5.25h-3.375c-.825 0-1.5-.675-1.5-1.5s.675-1.5 1.5-1.5z" fill="#473B7F"/><path d="M21.563 15h6.562v1.969A20.561 20.561 0 0130 16.875c.637 0 1.256.038 1.875.094V15h6.563c5.174 0 9.374-2.325 9.374-7.5V3.75a1.88 1.88 0 00-1.874-1.875H37.5c-3.075 0-5.794 1.519-7.5 3.806-1.706-2.306-4.425-3.806-7.5-3.806h-8.438a1.88 1.88 0 00-1.874 1.875v1.875c0 5.175 4.2 9.375 9.374 9.375z" fill="#9292DF"/></svg>