<svg width="60" height="60" fill="none" xmlns="http://www.w3.org/2000/svg"><path d="M48.75 26.25h-15a1.88 1.88 0 00-1.875 1.875V37.5H18.75a1.88 1.88 0 00-1.875 1.875v3.75H3.75A1.88 1.88 0 001.875 45v11.25a1.88 1.88 0 001.875 1.875h45a1.88 1.88 0 001.875-1.875V28.125a1.88 1.88 0 00-1.875-1.875zM5.625 46.875h11.25v7.5H5.625v-7.5zm15 7.5V41.25h11.25v13.125h-11.25zm26.25 0h-11.25V30h11.25v24.375z" fill="#473B7F"/><path d="M40.313 37.5h1.874a1.88 1.88 0 001.876-1.875 1.88 1.88 0 00-1.876-1.875h-1.874a1.88 1.88 0 00-1.876 1.875 1.88 1.88 0 001.876 1.875z" fill="#473B7F"/><path d="M56.25 3.75H43.125a1.88 1.88 0 00-1.875-1.875 1.88 1.88 0 00-1.875 1.875V22.5h3.75v-5.625H56.25A1.88 1.88 0 0058.125 15V5.625A1.88 1.88 0 0056.25 3.75z" fill="#9292DF"/></svg>