<svg width="60" height="60" fill="none" xmlns="http://www.w3.org/2000/svg"><path d="M24.375 13.128c-6.206 0-11.25 5.044-11.25 11.25 0 5.569 4.144 10.35 9.637 11.119h.263c.919 0 1.725-.675 1.856-1.613a1.866 1.866 0 00-1.593-2.118c-3.657-.507-6.413-3.694-6.413-7.407 0-4.143 3.356-7.5 7.5-7.5 3.712 0 6.9 2.757 7.406 6.413a1.857 1.857 0 002.119 1.594 1.866 1.866 0 001.594-2.12c-.769-5.493-5.55-9.637-11.119-9.637v.02z" fill="#473B7F"/><path d="M45 22.5h-1.969C42.15 13.65 35.1 6.6 26.25 5.719V3.75a1.88 1.88 0 00-1.875-1.875A1.88 1.88 0 0022.5 3.75v1.969C13.65 6.6 6.6 13.65 5.719 22.5H3.75a1.88 1.88 0 00-1.875 1.875A1.88 1.88 0 003.75 26.25h1.969C6.6 35.1 13.65 42.15 22.5 43.031V45a1.88 1.88 0 001.875 1.875A1.88 1.88 0 0026.25 45v-1.969a17.965 17.965 0 004.125-.881 1.878 1.878 0 001.163-2.381 1.878 1.878 0 00-2.382-1.163 14.42 14.42 0 01-4.762.788c-8.269 0-15-6.731-15-15s6.731-15 15-15 15 6.731 15 15c0 1.669-.263 3.262-.788 4.762a1.878 1.878 0 001.163 2.382 1.878 1.878 0 002.381-1.163c.45-1.313.75-2.7.881-4.125H45a1.88 1.88 0 001.875-1.875A1.88 1.88 0 0045 22.5z" fill="#473B7F"/><path d="M57.583 44.997l-5.906-5.925a5.353 5.353 0 00-5.513-1.294l-4.294 1.425-16.162-16.162a1.867 1.867 0 00-2.644 0 1.867 1.867 0 000 2.643l16.163 16.163-1.425 4.294a5.322 5.322 0 001.312 5.512l5.906 5.906c.357.357.844.544 1.332.544.15 0 .28 0 .43-.056a1.875 1.875 0 001.35-1.238l2.195-6.562 6.562-2.194a1.875 1.875 0 00.731-3.112l-.037.056z" fill="#9292DF"/></svg>