<svg width="60" height="60" fill="none" xmlns="http://www.w3.org/2000/svg"><path d="M56.25 21.563h-1.519l-4.218-11.25h3.862a1.88 1.88 0 001.875-1.876 1.88 1.88 0 00-1.875-1.874H36.263c-.807-2.7-3.3-4.688-6.263-4.688-2.962 0-5.438 1.987-6.262 4.688H5.625A1.88 1.88 0 003.75 8.438a1.88 1.88 0 001.875 1.874h3.863l-4.22 11.25H3.75a1.88 1.88 0 00-1.875 1.875v3.75c0 4.144 3.356 7.5 7.5 7.5H15c4.144 0 7.5-3.356 7.5-7.5v-3.75a1.88 1.88 0 00-1.875-1.875h-1.519l-4.219-11.25h8.85a6.593 6.593 0 004.388 4.388v17.175h-2.813a1.88 1.88 0 00-1.875 1.875v7.5a1.88 1.88 0 001.875 1.875 1.88 1.88 0 001.875-1.875v-5.625h5.625v5.625a1.88 1.88 0 001.876 1.875 1.88 1.88 0 001.874-1.875v-7.5a1.88 1.88 0 00-1.874-1.875h-2.813V14.7a6.593 6.593 0 004.388-4.387h8.85l-4.22 11.25h-1.518a1.88 1.88 0 00-1.875 1.875v3.75c0 4.143 3.356 7.5 7.5 7.5h5.625c4.144 0 7.5-3.357 7.5-7.5v-3.75a1.88 1.88 0 00-1.875-1.875zm-37.5 5.625a3.761 3.761 0 01-3.75 3.75H9.375a3.761 3.761 0 01-3.75-3.75v-1.875H18.75v1.875zm-9.488-5.625l2.925-7.782 2.926 7.781H9.262zM30 11.25a2.809 2.809 0 01-2.813-2.813A2.809 2.809 0 0130 5.626a2.809 2.809 0 012.813 2.813A2.809 2.809 0 0130 11.25zm17.813 2.531l2.924 7.781h-5.83l2.924-7.78h-.019zm6.562 13.406a3.761 3.761 0 01-3.75 3.75H45a3.761 3.761 0 01-3.75-3.75v-1.875h13.125v1.875z" fill="#473B7F"/><path d="M47.813 50.625a1.88 1.88 0 001.874-1.875 1.88 1.88 0 00-1.874-1.875H12.187a1.88 1.88 0 00-1.874 1.875 1.88 1.88 0 001.874 1.875h.938v3.75h-.938a1.88 1.88 0 00-1.874 1.875 1.88 1.88 0 001.874 1.875h35.626a1.88 1.88 0 001.874-1.875 1.88 1.88 0 00-1.874-1.875h-.938v-3.75h.938z" fill="#9292DF"/></svg>