<svg width="60" height="60" viewBox="0 0 60 60" fill="none" xmlns="http://www.w3.org/2000/svg">
<path d="M57.9562 29.2125C52.275 16.9875 41.55 9.375 30 9.375C18.45 9.375 7.74375 16.9687 2.04375 29.2125C1.81875 29.7187 1.81875 30.3 2.04375 30.7875C7.725 43.0125 18.45 50.625 30 50.625C41.55 50.625 52.2562 43.0313 57.9562 30.7875C58.1812 30.2813 58.1812 29.7 57.9562 29.2125ZM5.83125 30C7.29375 27.0375 9.075 24.4312 11.1187 22.1625C10.5937 24.6937 10.3125 27.3375 10.3125 30C10.3125 32.6625 10.5937 35.2875 11.1187 37.8375C9.09375 35.5875 7.29375 32.9625 5.83125 30ZM16.3875 42.5063C14.8687 38.7 14.0625 34.4062 14.0625 30C14.0625 25.5938 14.8875 21.3 16.3875 17.4937C20.5125 14.6812 25.1813 13.125 30 13.125C34.8187 13.125 39.4875 14.6812 43.6125 17.4937C45.1313 21.3 45.9375 25.5938 45.9375 30C45.9375 34.4062 45.1125 38.7 43.6125 42.5063C39.4875 45.3188 34.8187 46.875 30 46.875C25.1813 46.875 20.5125 45.3188 16.3875 42.5063ZM48.8812 37.8375C49.4062 35.3063 49.6875 32.6625 49.6875 30C49.6875 27.3375 49.4062 24.7125 48.8812 22.1625C50.9062 24.4125 52.7062 27.0375 54.1687 30C52.7062 32.9625 50.925 35.5688 48.8812 37.8375Z" fill="#473B7F"/>
<path d="M30 7.5C31.0313 7.5 31.875 6.65625 31.875 5.625V3.75C31.875 2.71875 31.0313 1.875 30 1.875C28.9687 1.875 28.125 2.71875 28.125 3.75V5.625C28.125 6.65625 28.9687 7.5 30 7.5Z" fill="#473B7F"/>
<path d="M14.2317 8.30511C14.5692 8.94261 15.2254 9.31761 15.9004 9.31761C16.1817 9.31761 16.4817 9.24261 16.7629 9.11136C17.6817 8.64261 18.0567 7.49886 17.5692 6.58011L16.6692 4.81761C16.2004 3.89886 15.0754 3.52386 14.1379 4.01136C13.2192 4.48011 12.8442 5.62386 13.3317 6.54261L14.2317 8.30511Z" fill="#473B7F"/>
<path d="M43.239 9.11091C43.5203 9.26091 43.8015 9.31716 44.1015 9.31716C44.7765 9.31716 45.4328 8.94216 45.7703 8.30466L46.6703 6.54216C47.139 5.62341 46.7828 4.49841 45.864 4.01091C44.9453 3.54216 43.8203 3.89841 43.3328 4.81716L42.4328 6.57966C41.964 7.49841 42.3203 8.62341 43.239 9.11091Z" fill="#473B7F"/>
<path d="M30 52.5C28.9687 52.5 28.125 53.3437 28.125 54.375V56.25C28.125 57.2813 28.9687 58.125 30 58.125C31.0313 58.125 31.875 57.2813 31.875 56.25V54.375C31.875 53.3437 31.0313 52.5 30 52.5Z" fill="#473B7F"/>
<path d="M16.7625 50.8859C15.8437 50.4172 14.7187 50.7734 14.2312 51.6922L13.3312 53.4547C12.8625 54.3734 13.2187 55.4984 14.1375 55.9859C14.4187 56.1359 14.7 56.1922 15 56.1922C15.675 56.1922 16.3312 55.8172 16.6687 55.1797L17.5687 53.4172C18.0375 52.4984 17.6812 51.3734 16.7625 50.8859Z" fill="#473B7F"/>
<path d="M45.7707 51.6922C45.302 50.7734 44.177 50.4172 43.2395 50.8859C42.3207 51.3547 41.9457 52.4984 42.4332 53.4172L43.3332 55.1797C43.6707 55.8172 44.327 56.1922 45.002 56.1922C45.2832 56.1922 45.5832 56.1172 45.8645 55.9859C46.7832 55.5172 47.1582 54.3734 46.6707 53.4547L45.7707 51.6922Z" fill="#473B7F"/>
<path d="M30 33.3719C33.15 33.3719 35.7187 30.8031 35.7187 27.6531V25.1406C35.7187 22.4406 33.525 20.2656 30.8438 20.2656H29.1563C26.4563 20.2656 24.2812 22.4594 24.2812 25.1406V27.6531C24.2812 30.8031 26.85 33.3719 30 33.3719Z" fill="#9292DF"/>
<path d="M38.8656 30.875C37.5344 34.5125 34.0844 37.1187 29.9969 37.1187C25.9094 37.1187 22.4594 34.4937 21.1281 30.875C19.1031 33.0312 17.9031 35.8625 17.8281 38.9C21.5031 41.6 25.7031 43.1188 29.9969 43.1188C34.2906 43.1188 38.4906 41.6 42.1656 38.9C42.0906 35.8438 40.8906 33.0125 38.8656 30.875Z" fill="#9292DF"/>
</svg>
