<svg width="60" height="60" viewBox="0 0 60 60" fill="none" xmlns="http://www.w3.org/2000/svg">
<path d="M14.0625 26.25C20.775 26.25 26.25 20.775 26.25 14.0625C26.25 7.35 20.775 1.875 14.0625 1.875C7.35 1.875 1.875 7.35 1.875 14.0625C1.875 20.775 7.35 26.25 14.0625 26.25ZM14.0625 5.625C18.7125 5.625 22.5 9.4125 22.5 14.0625C22.5 18.7125 18.7125 22.5 14.0625 22.5C9.4125 22.5 5.625 18.7125 5.625 14.0625C5.625 9.4125 9.4125 5.625 14.0625 5.625Z" fill="#473B7F"/>
<path d="M14.0625 20.1562C17.4187 20.1562 20.1562 17.4187 20.1562 14.0625C20.1562 10.7063 17.4187 7.96875 14.0625 7.96875C10.7063 7.96875 7.96875 10.7063 7.96875 14.0625C7.96875 17.4187 10.7063 20.1562 14.0625 20.1562ZM14.0625 11.7188C15.3562 11.7188 16.4062 12.7688 16.4062 14.0625C16.4062 15.3562 15.3562 16.4062 14.0625 16.4062C12.7688 16.4062 11.7188 15.3562 11.7188 14.0625C11.7188 12.7688 12.7688 11.7188 14.0625 11.7188Z" fill="#473B7F"/>
<path d="M49.2766 12.1875H30.5266C29.4953 12.1875 28.6516 13.0312 28.6516 14.0625C28.6516 15.0938 29.4953 15.9375 30.5266 15.9375H49.2766C51.3391 15.9375 53.0266 17.625 53.0266 19.6875V24.375C53.0266 26.4375 51.3391 28.125 49.2766 28.125H27.9766L30.3953 25.7063C31.1266 24.975 31.1266 23.7938 30.3953 23.0625C29.6641 22.3313 28.4828 22.3313 27.7516 23.0625L22.1266 28.6875C21.3953 29.4188 21.3953 30.6 22.1266 31.3312L27.7516 36.9562C28.1266 37.3312 28.5953 37.5 29.0828 37.5C29.5703 37.5 30.0391 37.3125 30.4141 36.9562C31.1453 36.225 31.1453 35.0437 30.4141 34.3125L27.9953 31.8938H49.2953C53.4391 31.8938 56.7953 28.5375 56.7953 24.3938V19.7063C56.7953 15.5625 53.4391 12.2063 49.2953 12.2063L49.2766 12.1875Z" fill="#473B7F"/>
<path d="M22.5 44.0625H9.375C7.3125 44.0625 5.625 42.375 5.625 40.3125V35.625C5.625 33.5625 7.3125 31.875 9.375 31.875H16.875C17.9063 31.875 18.75 31.0313 18.75 30C18.75 28.9687 17.9063 28.125 16.875 28.125H9.375C5.23125 28.125 1.875 31.4812 1.875 35.625V40.3125C1.875 44.4563 5.23125 47.8125 9.375 47.8125H22.5C23.5313 47.8125 24.375 46.9688 24.375 45.9375C24.375 44.9062 23.5313 44.0625 22.5 44.0625Z" fill="#473B7F"/>
<path d="M30 44.0625H29.0625C28.0312 44.0625 27.1875 44.9062 27.1875 45.9375C27.1875 46.9688 28.0312 47.8125 29.0625 47.8125H30C31.0313 47.8125 31.875 46.9688 31.875 45.9375C31.875 44.9062 31.0313 44.0625 30 44.0625Z" fill="#473B7F"/>
<path d="M45.9375 33.75C39.225 33.75 33.75 39.225 33.75 45.9375C33.75 52.65 39.225 58.125 45.9375 58.125C52.65 58.125 58.125 52.65 58.125 45.9375C58.125 39.225 52.65 33.75 45.9375 33.75ZM51.9562 44.3813L46.2 50.1375C45.825 50.5125 45.3563 50.6813 44.8688 50.6813C44.3813 50.6813 43.9125 50.4937 43.5375 50.1375L39.9188 46.5187C39.1875 45.7875 39.1875 44.6062 39.9188 43.875C40.65 43.1437 41.8313 43.1437 42.5625 43.875L44.8688 46.1812L49.2938 41.7563C50.025 41.025 51.2063 41.025 51.9375 41.7563C52.6688 42.4875 52.6688 43.6688 51.9375 44.4L51.9562 44.3813Z" fill="#9292DF"/>
</svg>
