<svg width="60" height="60" viewBox="0 0 60 60" fill="none" xmlns="http://www.w3.org/2000/svg">
<path d="M45 28.0688C43.9687 28.0688 43.125 28.9125 43.125 29.9438V33.75H38.4375C37.4062 33.75 36.5625 34.5937 36.5625 35.625V39.375C36.5625 40.4063 35.7188 41.25 34.6875 41.25C33.6562 41.25 32.8125 40.4063 32.8125 39.375V35.625C32.8125 34.5937 31.9688 33.75 30.9375 33.75H26.25V30.9375H28.125C31.2187 30.9375 33.75 28.4062 33.75 25.3125C33.75 22.2188 31.2187 19.6875 28.125 19.6875H26.25V16.875H31.9313C32.9625 16.875 33.8063 16.0313 33.8063 15C33.8063 13.9687 32.9625 13.125 31.9313 13.125H7.5C4.40625 13.125 1.875 15.6563 1.875 18.75V52.5C1.875 55.5937 4.40625 58.125 7.5 58.125H41.25C44.3437 58.125 46.875 55.5937 46.875 52.5V29.9438C46.875 28.9125 46.0313 28.0688 45 28.0688ZM7.5 16.875H22.5V21.5625C22.5 22.5938 23.3437 23.4375 24.375 23.4375H28.125C29.1563 23.4375 30 24.2812 30 25.3125C30 26.3438 29.1563 27.1875 28.125 27.1875H24.375C23.3437 27.1875 22.5 28.0312 22.5 29.0625V33.75H19.6875V31.875C19.6875 28.7813 17.1562 26.25 14.0625 26.25C10.9688 26.25 8.4375 28.7813 8.4375 31.875V33.75H5.625V18.75C5.625 17.7187 6.46875 16.875 7.5 16.875ZM5.625 52.5V37.5H10.3125C11.3438 37.5 12.1875 36.6563 12.1875 35.625V31.875C12.1875 30.8437 13.0312 30 14.0625 30C15.0938 30 15.9375 30.8437 15.9375 31.875V35.625C15.9375 36.6563 16.7812 37.5 17.8125 37.5H22.5V40.3125H20.625C17.5313 40.3125 15 42.8438 15 45.9375C15 49.0312 17.5313 51.5625 20.625 51.5625H22.5V54.375H7.5C6.46875 54.375 5.625 53.5313 5.625 52.5ZM41.25 54.375H26.25V49.6875C26.25 48.6562 25.4063 47.8125 24.375 47.8125H20.625C19.5937 47.8125 18.75 46.9688 18.75 45.9375C18.75 44.9062 19.5937 44.0625 20.625 44.0625H24.375C25.4063 44.0625 26.25 43.2188 26.25 42.1875V37.5H29.0625V39.375C29.0625 42.4687 31.5938 45 34.6875 45C37.7812 45 40.3125 42.4687 40.3125 39.375V37.5H43.125V52.5C43.125 53.5313 42.2813 54.375 41.25 54.375Z" fill="#473B7F"/>
<path d="M46.875 1.875C40.6688 1.875 35.625 6.91875 35.625 13.125C35.625 19.3312 40.6688 24.375 46.875 24.375C53.0812 24.375 58.125 19.3312 58.125 13.125C58.125 6.91875 53.0812 1.875 46.875 1.875ZM51.675 12.3188L47.4188 16.575C47.0438 16.95 46.575 17.1188 46.0875 17.1188C45.6 17.1188 45.1313 16.9313 44.7563 16.575L42.0563 13.875C41.325 13.1438 41.325 11.9625 42.0563 11.2312C42.7875 10.5 43.9688 10.5 44.7 11.2312L46.0687 12.6L48.9937 9.675C49.725 8.94375 50.9063 8.94375 51.6375 9.675C52.3688 10.4062 52.3688 11.5875 51.6375 12.3188H51.675Z" fill="#9292DF"/>
</svg>
