<svg width="60" height="60" viewBox="0 0 60 60" fill="none" xmlns="http://www.w3.org/2000/svg">
<path d="M15.9013 58.1272C14.5513 58.1272 13.2013 57.5834 12.1888 56.5334L9.88253 54.0772C9.54503 53.7209 9.35753 53.2334 9.37628 52.7272C9.37628 52.2397 9.60128 51.7522 9.95753 51.4147L23.195 38.9647C24.395 37.8209 26.0825 37.3334 27.7138 37.6897C29.345 38.0272 30.695 39.1334 31.3513 40.6709L32.7013 43.8022L41.9638 34.5397L39.8075 32.3834C39.32 31.8959 39.1513 31.2022 39.3388 30.5459C39.5263 29.8897 40.0513 29.3834 40.7263 29.2334L55.8388 25.7459C56.4575 25.5959 57.1325 25.7834 57.5825 26.2522C58.0325 26.7209 58.22 27.3772 58.0888 27.9959L54.6013 43.1084C54.4513 43.7647 53.945 44.3084 53.2888 44.4959C52.6325 44.6834 51.9388 44.4959 51.4513 44.0272L49.295 41.8709L34.5575 56.6084C33.3575 57.8084 31.67 58.3334 30.0013 58.0147C28.3513 57.6959 26.945 56.5709 26.2888 55.0147L24.845 51.6584L19.4075 56.7772C18.4325 57.6959 17.1763 58.1647 15.92 58.1647L15.9013 58.1272ZM13.9138 52.8772L14.9263 53.9647C15.4325 54.5084 16.2763 54.5272 16.82 54.0209L24.2075 47.0647C24.6575 46.6522 25.2763 46.4834 25.8763 46.5959C26.4763 46.7272 26.9825 47.1397 27.2075 47.6834L29.7013 53.4959C29.945 54.0772 30.47 54.2459 30.6763 54.2834C30.9013 54.3209 31.4263 54.3584 31.8763 53.9084L47.945 37.8397C48.6763 37.1084 49.8575 37.1084 50.5888 37.8397L51.6763 38.9272L53.72 30.0397L44.8325 32.0834L45.92 33.1709C46.2763 33.5272 46.4638 33.9959 46.4638 34.5022C46.4638 35.0084 46.2575 35.4772 45.92 35.8334L33.3763 48.3772C32.945 48.8272 32.3075 49.0147 31.6888 48.9022C31.07 48.7897 30.5638 48.3772 30.32 47.7959L27.8825 42.1147C27.6388 41.5334 27.1325 41.3834 26.9263 41.3272C26.72 41.2897 26.195 41.2334 25.745 41.6647L13.8763 52.8397L13.9138 52.8772Z" fill="#473B7F"/>
<path d="M15.9406 18.75C19.9719 18.75 23.2531 15.4688 23.2531 11.4375V8.08125C23.2531 4.66875 20.4781 1.875 17.0469 1.875H14.8156C11.4031 1.875 8.60938 4.65 8.60938 8.08125V11.4375C8.60938 15.4688 11.8906 18.75 15.9219 18.75H15.9406Z" fill="#9292DF"/>
<path d="M26.25 15.4141C24.6562 19.5578 20.625 22.5016 15.9375 22.5016C11.25 22.5016 7.21875 19.5578 5.625 15.4141C3.3 17.9266 1.875 21.2641 1.875 24.9391V28.5953C1.875 31.6516 4.35 34.1266 7.40625 34.1266H7.96875V30.3766C7.96875 29.3453 8.8125 28.5016 9.84375 28.5016C10.875 28.5016 11.7188 29.3453 11.7188 30.3766V34.1266H20.1562V30.3766C20.1562 29.3453 21 28.5016 22.0312 28.5016C23.0625 28.5016 23.9062 29.3453 23.9062 30.3766V34.1266H24.4688C27.525 34.1266 30 31.6516 30 28.5953V24.9391C30 21.2641 28.575 17.9266 26.25 15.4141Z" fill="#9292DF"/>
</svg>
