<svg width="11" height="12" viewBox="0 0 11 12" fill="none" xmlns="http://www.w3.org/2000/svg">
<path d="M10.9827 1.59163L10.8059 9.19303C10.7838 9.61287 10.4524 9.94433 10.0325 9.92223C9.61266 9.90014 9.28121 9.56868 9.3033 9.14883L9.43588 3.40359L1.90078 10.9387C1.61352 11.226 1.14948 11.2481 0.840119 10.9387C0.552857 10.6514 0.552857 10.1653 0.840119 9.87804L8.37522 2.34293L2.65208 2.49761C2.23223 2.51971 1.87868 2.16616 1.87868 1.76841C1.85658 1.34856 2.18804 1.01711 2.60788 0.99501L10.2093 0.818232C10.4303 0.818232 10.607 0.906621 10.7396 1.0392C10.8943 1.19388 10.9827 1.37066 10.9827 1.59163Z" fill="#FDBC3B"/>
</svg>
