<svg width="15" height="12" viewBox="0 0 15 12" fill="none" xmlns="http://www.w3.org/2000/svg">
<path d="M14.3437 6.55063L8.84375 11.8006C8.53125 12.0819 8.0625 12.0819 7.78125 11.7694C7.5 11.4569 7.5 10.9881 7.8125 10.7069L11.9687 6.73813L1.3125 6.73813C0.90625 6.73813 0.5625 6.42563 0.5625 5.98813C0.5625 5.58188 0.90625 5.23813 1.3125 5.23813L11.9687 5.23813L7.8125 1.30063C7.5 1.01938 7.5 0.519376 7.78125 0.238126C8.0625 -0.0743736 8.53125 -0.0743736 8.84375 0.206876L14.3437 5.45688C14.5 5.61313 14.5625 5.80063 14.5625 5.98813C14.5625 6.20688 14.5 6.39438 14.3437 6.55063Z" fill="#25122A"/>
</svg>
