<svg width="24" height="24" viewBox="0 0 24 24" fill="none" xmlns="http://www.w3.org/2000/svg">
<path fill-rule="evenodd" clip-rule="evenodd" d="M1.89474 3.7866C1.54593 3.7866 1.26316 4.06937 1.26316 4.41817V7.91291H22.7368V4.41817C22.7368 4.06936 22.4541 3.7866 22.1053 3.7866H1.89474ZM22.7368 9.17607H1.26316V22.1024C1.26316 22.4512 1.54592 22.734 1.89474 22.734H22.1053C22.4541 22.734 22.7368 22.4512 22.7368 22.1024V9.17607ZM0 4.41817C0 3.37175 0.848309 2.52344 1.89474 2.52344H22.1053C23.1517 2.52344 24 3.37175 24 4.41817V22.1024C24 23.1488 23.1517 23.9971 22.1053 23.9971H1.89474C0.848317 23.9971 0 23.1488 0 22.1024V4.41817Z" fill="#848585"/>
<path fill-rule="evenodd" clip-rule="evenodd" d="M5.68627 0C6.03508 0 6.31785 0.282768 6.31785 0.631579V4.42105C6.31785 4.76986 6.03508 5.05263 5.68627 5.05263C5.33746 5.05263 5.05469 4.76986 5.05469 4.42105V0.631579C5.05469 0.282768 5.33746 0 5.68627 0Z" fill="#848585"/>
<path fill-rule="evenodd" clip-rule="evenodd" d="M18.3191 0C18.6679 0 18.9507 0.282768 18.9507 0.631579V4.42105C18.9507 4.76986 18.6679 5.05263 18.3191 5.05263C17.9703 5.05263 17.6875 4.76986 17.6875 4.42105V0.631579C17.6875 0.282768 17.9703 0 18.3191 0Z" fill="#848585"/>
<path fill-rule="evenodd" clip-rule="evenodd" d="M16.4219 11.9988C16.4219 11.65 16.7046 11.3672 17.0535 11.3672H19.5798C19.9286 11.3672 20.2113 11.65 20.2113 11.9988C20.2113 12.3476 19.9286 12.6303 19.5798 12.6303H17.0535C16.7046 12.6303 16.4219 12.3476 16.4219 11.9988Z" fill="#848585"/>
<path fill-rule="evenodd" clip-rule="evenodd" d="M16.4219 19.5769C16.4219 19.2281 16.7046 18.9453 17.0535 18.9453H19.5798C19.9286 18.9453 20.2113 19.2281 20.2113 19.5769C20.2113 19.9257 19.9286 20.2085 19.5798 20.2085H17.0535C16.7046 20.2085 16.4219 19.9257 16.4219 19.5769Z" fill="#848585"/>
<path fill-rule="evenodd" clip-rule="evenodd" d="M10.1016 11.9988C10.1016 11.65 10.3843 11.3672 10.7331 11.3672H13.2595C13.6083 11.3672 13.891 11.65 13.891 11.9988C13.891 12.3476 13.6083 12.6303 13.2595 12.6303H10.7331C10.3843 12.6303 10.1016 12.3476 10.1016 11.9988Z" fill="#848585"/>
<path fill-rule="evenodd" clip-rule="evenodd" d="M10.1016 19.5769C10.1016 19.2281 10.3843 18.9453 10.7331 18.9453H13.2595C13.6083 18.9453 13.891 19.2281 13.891 19.5769C13.891 19.9257 13.6083 20.2085 13.2595 20.2085H10.7331C10.3843 20.2085 10.1016 19.9257 10.1016 19.5769Z" fill="#848585"/>
<path fill-rule="evenodd" clip-rule="evenodd" d="M3.78906 11.9988C3.78906 11.65 4.07183 11.3672 4.42064 11.3672H6.94696C7.29577 11.3672 7.57854 11.65 7.57854 11.9988C7.57854 12.3476 7.29577 12.6303 6.94696 12.6303H4.42064C4.07183 12.6303 3.78906 12.3476 3.78906 11.9988Z" fill="#848585"/>
<path fill-rule="evenodd" clip-rule="evenodd" d="M3.78906 19.5769C3.78906 19.2281 4.07183 18.9453 4.42064 18.9453H6.94696C7.29577 18.9453 7.57854 19.2281 7.57854 19.5769C7.57854 19.9257 7.29577 20.2085 6.94696 20.2085H4.42064C4.07183 20.2085 3.78906 19.9257 3.78906 19.5769Z" fill="#848585"/>
<path fill-rule="evenodd" clip-rule="evenodd" d="M16.4219 15.7878C16.4219 15.439 16.7046 15.1562 17.0535 15.1562H19.5798C19.9286 15.1562 20.2113 15.439 20.2113 15.7878C20.2113 16.1366 19.9286 16.4194 19.5798 16.4194H17.0535C16.7046 16.4194 16.4219 16.1366 16.4219 15.7878Z" fill="#848585"/>
<path fill-rule="evenodd" clip-rule="evenodd" d="M10.1016 15.7878C10.1016 15.439 10.3843 15.1562 10.7331 15.1562H13.2595C13.6083 15.1562 13.891 15.439 13.891 15.7878C13.891 16.1366 13.6083 16.4194 13.2595 16.4194H10.7331C10.3843 16.4194 10.1016 16.1366 10.1016 15.7878Z" fill="#848585"/>
<path fill-rule="evenodd" clip-rule="evenodd" d="M3.78906 15.7878C3.78906 15.439 4.07183 15.1562 4.42064 15.1562H6.94696C7.29577 15.1562 7.57854 15.439 7.57854 15.7878C7.57854 16.1366 7.29577 16.4194 6.94696 16.4194H4.42064C4.07183 16.4194 3.78906 16.1366 3.78906 15.7878Z" fill="#848585"/>
</svg>
