<svg width="119" height="30" fill="none" xmlns="http://www.w3.org/2000/svg"><path fill="#FF5112" d="M0 0h42.632v17.053H0z"/><path d="M6.927 10.884c.283.311.653.467 1.111.467.458 0 .829-.156 1.111-.467.283-.322.424-.8.424-1.433s-.141-1.106-.424-1.418c-.282-.321-.653-.482-1.11-.482-.459 0-.829.16-1.112.482-.282.312-.423.785-.423 1.418 0 .634.14 1.111.423 1.433zm.6 2.66c-1.053 0-1.89-.35-2.514-1.053-.614-.701-.921-1.714-.921-3.04 0-1.325.307-2.338.92-3.04.624-.702 1.462-1.052 2.515-1.052.847 0 1.505.292 1.973.877h.073v-3.07h2.412v10.232h-2.12l-.219-.804h-.073c-.526.633-1.208.95-2.046.95zm9.791 0c-1.286 0-2.28-.35-2.982-1.053-.691-.71-1.037-1.724-1.037-3.04 0-1.296.355-2.3 1.067-3.01.71-.722 1.695-1.082 2.952-1.082 1.208 0 2.154.38 2.836 1.14.692.75 1.038 1.71 1.038 2.88l-.073.803H15.71c.195.877.707 1.316 1.535 1.316.575 0 1.018-.195 1.33-.585h2.47a3.4 3.4 0 01-.365.892 4.58 4.58 0 01-.672.833c-.273.273-.643.492-1.111.657a4.707 4.707 0 01-1.579.249zm-1.608-4.97h3.07a1.497 1.497 0 00-.526-.818c-.264-.234-.6-.351-1.009-.351-.419 0-.76.107-1.023.321a1.47 1.47 0 00-.512.848zm6.718 4.824V5.505h2.12l.219.804h.073c.448-.634 1.033-.95 1.754-.95.341 0 .648.053.92.16.284.098.503.224.659.38.165.156.287.288.365.395.088.107.146.195.175.263h.073c.05-.107.137-.239.264-.395.136-.155.39-.326.76-.511.37-.195.784-.292 1.242-.292.76 0 1.423.277 1.988.833.575.545.862 1.315.862 2.31v4.896h-2.411V8.94c0-.458-.098-.804-.293-1.038-.195-.234-.463-.35-.804-.35a.902.902 0 00-.745.35c-.185.234-.278.58-.278 1.038v4.458H26.96V8.94c0-.458-.097-.804-.292-1.038-.195-.234-.463-.35-.804-.35a.902.902 0 00-.745.35c-.185.234-.278.58-.278 1.038v4.458h-2.412zm13.004 0V5.505h2.412v7.893h-2.412zm2.178-8.843c-.244.243-.57.365-.98.365-.409 0-.735-.122-.979-.365a1.316 1.316 0 01-.365-.95c0-.38.122-.692.365-.936.244-.253.57-.38.98-.38.409 0 .735.127.979.38.253.244.38.556.38.936s-.127.696-.38.95zm3.236 8.843l-2.12-7.893h2.485l1.17 4.896 1.242-4.896h2.339l1.242 4.896 1.17-4.896h2.484l-2.12 7.893h-2.703l-1.243-4.385-1.242 4.385h-2.704zm14.398.146c-1.286 0-2.28-.35-2.981-1.053-.692-.71-1.038-1.724-1.038-3.04 0-1.296.355-2.3 1.067-3.01.711-.722 1.695-1.082 2.952-1.082 1.209 0 2.154.38 2.836 1.14.692.75 1.038 1.71 1.038 2.88l-.073.803h-5.409c.195.877.707 1.316 1.535 1.316.575 0 1.019-.195 1.33-.585h2.47c-.077.312-.2.609-.365.892a4.58 4.58 0 01-.672.833c-.273.273-.643.492-1.111.657a4.707 4.707 0 01-1.579.249zm-1.608-4.97h3.07a1.497 1.497 0 00-.526-.818c-.263-.234-.6-.351-1.009-.351-.419 0-.76.107-1.023.321a1.47 1.47 0 00-.512.848zm9.627 2.31c.283.311.653.467 1.111.467.458 0 .828-.156 1.11-.467.284-.322.425-.8.425-1.433s-.142-1.106-.424-1.418c-.283-.321-.653-.482-1.11-.482-.459 0-.83.16-1.112.482-.282.312-.424.785-.424 1.418 0 .634.142 1.111.424 1.433zm1.623 2.66c-.838 0-1.52-.317-2.047-.95h-.073l-.219.804h-2.12V3.166h2.412v3.07h.073c.468-.585 1.126-.877 1.974-.877 1.052 0 1.885.35 2.5 1.052.623.702.935 1.715.935 3.04s-.312 2.339-.936 3.04c-.614.702-1.447 1.053-2.5 1.053zm6.561-.454a1.27 1.27 0 01-.936.38c-.37 0-.682-.126-.935-.38a1.303 1.303 0 01-.38-.935c0-.36.127-.667.38-.92.253-.264.565-.395.935-.395.37 0 .682.131.936.395.253.253.38.56.38.92s-.127.673-.38.936zm4.695.454c-.643 0-1.203-.078-1.68-.234-.478-.166-.849-.39-1.112-.672a3.271 3.271 0 01-.599-.877 3.248 3.248 0 01-.263-.994h2.485c.039.195.165.365.38.511.214.146.477.22.79.22.779 0 1.168-.171 1.168-.512 0-.166-.112-.297-.336-.395a2.728 2.728 0 00-.847-.19 7.04 7.04 0 01-1.082-.19 7.233 7.233 0 01-1.096-.365 1.924 1.924 0 01-.834-.731c-.224-.341-.336-.765-.336-1.272 0-.73.298-1.325.892-1.783.594-.468 1.418-.701 2.47-.701 1.17 0 2.037.258 2.602.774.565.507.892 1.126.98 1.857h-2.486c-.02-.166-.121-.303-.306-.41-.176-.117-.439-.175-.79-.175-.584 0-.877.17-.877.511 0 .156.112.278.336.366.225.088.502.15.834.19.34.03.706.097 1.096.205.39.097.75.219 1.081.365.341.146.624.395.848.745.224.341.336.765.336 1.272 0 .292-.053.57-.16.833a2.543 2.543 0 01-.541.79c-.244.263-.619.472-1.126.628-.506.156-1.115.234-1.827.234zm8.186-.146c-.935 0-1.608-.195-2.017-.585-.41-.4-.614-1.008-.614-1.827V7.697h-1.242V5.505h1.242l.365-2.047h2.047v2.047h1.827v2.192h-1.827v2.85c0 .186.063.341.19.468.126.127.282.19.468.19h1.169v2.193h-1.608zm5.767.146c-.77 0-1.427-.268-1.973-.804-.536-.546-.804-1.35-.804-2.412V5.505h2.412v4.458c0 .438.107.78.322 1.023.214.244.52.365.92.365.37 0 .668-.121.892-.365.234-.253.35-.594.35-1.023V5.505h2.412v7.893h-2.119l-.22-.804h-.072c-.556.633-1.262.95-2.12.95zm8.615-2.66c.282.311.653.467 1.11.467.459 0 .829-.156 1.111-.467.283-.322.424-.8.424-1.433s-.141-1.106-.424-1.418c-.282-.321-.652-.482-1.11-.482-.458 0-.829.16-1.111.482-.283.312-.424.785-.424 1.418 0 .634.141 1.111.424 1.433zm.599 2.66c-1.052 0-1.89-.35-2.514-1.053-.614-.701-.92-1.714-.92-3.04 0-1.325.306-2.338.92-3.04.624-.702 1.462-1.052 2.514-1.052.848 0 1.506.292 1.973.877h.073v-3.07h2.412v10.232h-2.119l-.22-.804h-.073c-.526.633-1.208.95-2.046.95zm6.137-.146V5.505h2.412v7.893h-2.412zm2.178-8.843c-.243.243-.57.365-.979.365-.409 0-.736-.122-.979-.365a1.315 1.315 0 01-.366-.95c0-.38.122-.692.366-.936.243-.253.57-.38.979-.38.409 0 .736.127.979.38.254.244.38.556.38.936s-.126.696-.38.95zm8.337 7.922c-.692.711-1.661 1.067-2.908 1.067-1.248 0-2.217-.356-2.909-1.067-.692-.712-1.038-1.72-1.038-3.026 0-1.306.346-2.314 1.038-3.025.692-.712 1.661-1.067 2.909-1.067 1.247 0 2.216.355 2.908 1.067.692.71 1.038 1.72 1.038 3.025 0 1.306-.346 2.314-1.038 3.026zm-4.019-1.593c.282.311.653.467 1.111.467.458 0 .828-.156 1.111-.467.282-.322.423-.8.423-1.433s-.141-1.106-.423-1.418c-.283-.321-.653-.482-1.111-.482-.458 0-.829.16-1.111.482-.283.312-.424.785-.424 1.418 0 .634.141 1.111.424 1.433z" fill="#fff"/><path d="M117.331 21.5h.814l-3.008 8.25h-.82l1.001-2.75-1.974-5.5h.841l1.518 4.439 1.628-4.439zm-5.423.77h-1.314l-.006 4.73h-.77l.006-4.73h-.996v-.77h.996l-.006-1.727h.77l.006 1.727h1.314v.77zm-5.675-.767h.77v5.5h-.77v-5.5zm.39-.962a.457.457 0 01-.319-.121.427.427 0 01-.126-.314.41.41 0 01.126-.308.445.445 0 01.319-.126.42.42 0 01.308.126.4.4 0 01.132.308c0 .125-.042.23-.126.314a.438.438 0 01-.314.12zM103.369 27v-8.25h.77V27h-.77zm-2.715-5.502h.77v5.5h-.77l-.028-1.023c-.179.348-.431.63-.753.847-.323.212-.708.319-1.155.319a2.853 2.853 0 01-2.063-.858 2.93 2.93 0 01-.627-.93 2.855 2.855 0 01-.225-1.133 2.849 2.849 0 01.836-2.035 2.868 2.868 0 012.03-.841c.458 0 .857.11 1.198.33.341.216.613.5.814.852l-.027-1.028zm-1.953 4.895c.393 0 .73-.096 1.012-.286a1.88 1.88 0 00.649-.781c.154-.327.231-.686.231-1.078a2.5 2.5 0 00-.231-1.09 1.884 1.884 0 00-.654-.775 1.756 1.756 0 00-1.007-.286 2.03 2.03 0 00-1.067.292c-.319.19-.574.449-.764.775a2.14 2.14 0 00-.28 1.084c0 .4.096.762.29 1.089.195.322.452.58.77.77.323.19.674.286 1.051.286zm-6.957.747a2.57 2.57 0 01-1.386-.39 2.928 2.928 0 01-.995-1.045 2.94 2.94 0 01-.369-1.457c0-.404.072-.78.215-1.128a2.95 2.95 0 01.588-.924c.253-.267.547-.476.88-.627.334-.15.69-.225 1.067-.225a2.59 2.59 0 012.008.918c.249.29.436.63.56 1.018.129.388.182.808.16 1.26h-4.664c.044.348.154.66.33.934.18.275.407.493.682.655a1.9 1.9 0 00.924.242c.367 0 .697-.096.99-.286a2.09 2.09 0 00.715-.787l.781.182c-.22.487-.552.887-.995 1.199-.444.308-.94.462-1.49.462zm-1.958-3.222h3.91a1.958 1.958 0 00-.313-.935 2.037 2.037 0 00-.698-.682 1.789 1.789 0 00-.94-.259 1.79 1.79 0 00-.936.253c-.282.165-.513.39-.693.677-.18.282-.29.597-.33.946zm-4.798 3.08v-5.5h.77v.759c.195-.279.448-.5.76-.666a2.14 2.14 0 011.017-.247c.212 0 .418.027.616.082l-.314.765a1.588 1.588 0 00-1.27.149 1.675 1.675 0 00-.589.588c-.146.245-.22.519-.22.82v3.25h-.77zm-7.918.142a2.57 2.57 0 01-1.386-.39 2.927 2.927 0 01-.995-1.045 2.938 2.938 0 01-.369-1.457c0-.404.072-.78.215-1.128a2.95 2.95 0 01.588-.924c.253-.267.547-.476.88-.627.334-.15.69-.225 1.067-.225.506 0 .967.13 1.38.39.419.26.75.61.996 1.05.25.44.374.928.374 1.464 0 .4-.071.773-.214 1.122a2.978 2.978 0 01-.594.924c-.25.264-.541.47-.875.621-.33.15-.685.226-1.067.226zm0-.77a1.8 1.8 0 001.007-.29c.3-.199.537-.46.71-.782.175-.322.263-.673.263-1.05a2.18 2.18 0 00-.264-1.062 2.098 2.098 0 00-.715-.78 1.789 1.789 0 00-1-.292 1.8 1.8 0 00-1.013.297 2.127 2.127 0 00-.71.775 2.218 2.218 0 00-.258 1.062c0 .396.09.755.27 1.078.18.319.42.574.72.764.301.187.631.28.99.28zm-4.021-4.1h-1.315L71.73 27h-.77l.005-4.73h-.995v-.77h.995l-.005-1.727h.77l.005 1.727h1.315v.77zm-4.681 1.323v3.405h-.77v-3.25c0-.301-.073-.575-.22-.82a1.677 1.677 0 00-.588-.589 1.57 1.57 0 00-.82-.22c-.297 0-.57.074-.82.22a1.675 1.675 0 00-.588.589c-.146.245-.22.519-.22.82v3.25h-.77v-5.5h.77v.759c.195-.279.448-.5.76-.666a2.14 2.14 0 011.017-.247c.414 0 .792.1 1.133.302.34.202.612.473.814.814.201.341.302.719.302 1.133zm-7.639-2.09h.77v5.5h-.77v-5.5zm.39-.962a.456.456 0 01-.319-.121.426.426 0 01-.126-.314.41.41 0 01.126-.308.444.444 0 01.32-.126c.12 0 .223.042.307.126a.4.4 0 01.132.308c0 .125-.042.23-.126.314a.436.436 0 01-.314.12zm-7.601 6.563a2.788 2.788 0 01-.88-.165 2.47 2.47 0 01-.748-.418 1.534 1.534 0 01-.456-.6l.665-.285a.978.978 0 00.325.396c.16.117.344.212.55.285.205.07.408.105.61.105.224 0 .433-.037.627-.11.194-.073.352-.178.473-.314a.71.71 0 00.187-.489.591.591 0 00-.198-.473 1.396 1.396 0 00-.5-.275 13.65 13.65 0 00-.622-.198 7.785 7.785 0 01-1.028-.352 1.874 1.874 0 01-.699-.49c-.165-.201-.247-.46-.247-.775 0-.334.093-.622.28-.864.19-.245.438-.434.743-.566.308-.136.636-.203.984-.203.447 0 .854.097 1.221.291.37.194.638.453.803.776l-.621.368a.996.996 0 00-.314-.39 1.685 1.685 0 00-.49-.259 1.817 1.817 0 00-1.204.006c-.202.07-.365.174-.49.313a.753.753 0 00-.18.512c0 .201.06.355.18.462.122.102.285.186.49.253.21.062.444.135.704.22.334.106.647.227.94.363.294.135.53.304.71.505.18.202.268.457.264.765 0 .33-.099.618-.297.863a1.92 1.92 0 01-.77.567 2.456 2.456 0 01-1.012.176zm-4.338-5.606h.77v5.5h-.77l-.028-1.023c-.18.348-.431.63-.754.847-.323.212-.708.319-1.155.319a2.853 2.853 0 01-2.062-.858 2.93 2.93 0 01-.627-.93 2.855 2.855 0 01-.226-1.133 2.849 2.849 0 01.836-2.035 2.868 2.868 0 012.03-.841c.458 0 .858.11 1.199.33.34.216.612.5.814.852l-.028-1.028zm-1.953 4.895c.392 0 .73-.096 1.012-.286.282-.195.498-.455.649-.781.154-.327.23-.686.23-1.078a2.5 2.5 0 00-.23-1.09 1.884 1.884 0 00-.655-.775 1.756 1.756 0 00-1.006-.286 2.03 2.03 0 00-1.067.292c-.32.19-.574.449-.765.775a2.14 2.14 0 00-.28 1.084c0 .4.097.762.291 1.089.194.322.451.58.77.77.323.19.673.286 1.05.286zm-6.957.747a2.57 2.57 0 01-1.387-.39 2.928 2.928 0 01-.995-1.045 2.94 2.94 0 01-.368-1.457 2.969 2.969 0 01.802-2.052c.253-.267.547-.476.88-.627.334-.15.69-.225 1.068-.225a2.59 2.59 0 012.007.918c.25.29.436.63.561 1.018.128.388.181.808.16 1.26h-4.664c.043.348.153.66.33.934.18.275.407.493.681.655.28.157.587.238.925.242.366 0 .696-.096.99-.286a2.09 2.09 0 00.715-.787l.78.182c-.22.487-.551.887-.995 1.199-.444.308-.94.462-1.49.462zm-1.959-3.222h3.911a1.958 1.958 0 00-.314-.935 2.037 2.037 0 00-.698-.682 1.789 1.789 0 00-.94-.259 1.79 1.79 0 00-.936.253c-.282.165-.513.39-.693.677-.18.282-.29.597-.33.946zm-3.279-5.168h.77V27h-.77v-1.029a2.31 2.31 0 01-.786.853c-.33.213-.723.319-1.177.319-.4 0-.774-.075-1.122-.226a2.99 2.99 0 01-.924-.621 2.993 2.993 0 01-.622-.924 2.8 2.8 0 01-.225-1.122c0-.4.075-.774.225-1.122a2.943 2.943 0 011.546-1.551c.348-.15.722-.226 1.122-.226.454 0 .847.109 1.177.325.333.213.596.493.786.841V18.75zm-1.958 7.645c.393 0 .73-.095 1.012-.286.283-.194.499-.455.65-.781.153-.326.23-.686.23-1.078 0-.403-.077-.766-.23-1.089a1.885 1.885 0 00-.655-.776 1.755 1.755 0 00-1.007-.286 2 2 0 00-1.061.292 2.153 2.153 0 00-1.05 1.859c0 .4.096.763.29 1.089.195.323.452.58.77.77.323.19.674.286 1.051.286zm-5.378-4.892h.77v5.5h-.77v-5.5zm.39-.962a.456.456 0 01-.319-.121.426.426 0 01-.126-.314.41.41 0 01.126-.308.444.444 0 01.32-.126c.12 0 .223.042.307.126a.4.4 0 01.132.308c0 .125-.042.23-.126.314a.436.436 0 01-.314.12zm-8.464.805c.536 0 1.022.13 1.458.39.44.26.79.611 1.05 1.051.26.436.391.922.391 1.457 0 .4-.075.776-.226 1.128a2.945 2.945 0 01-1.55 1.546c-.349.15-.723.225-1.123.225-.454 0-.846-.108-1.177-.325a2.342 2.342 0 01-.78-.847V27h-.77v-8.25h.77v3.767c.19-.348.45-.63.78-.846.33-.217.723-.325 1.177-.325zm-.005 5.044a2.04 2.04 0 001.067-.287c.319-.194.574-.454.764-.78a2.1 2.1 0 00.287-1.079c0-.403-.098-.766-.292-1.088a2.183 2.183 0 00-.776-.776 2.01 2.01 0 00-1.05-.286c-.389 0-.726.097-1.012.291-.282.195-.5.455-.654.781-.15.327-.226.686-.226 1.078 0 .4.077.763.231 1.09a1.9 1.9 0 00.654.77c.287.19.622.286 1.007.286zm-7.119.75a2.57 2.57 0 01-1.386-.39 2.928 2.928 0 01-.995-1.045 2.94 2.94 0 01-.369-1.457c0-.404.072-.78.215-1.128a2.95 2.95 0 01.588-.924c.253-.267.546-.476.88-.627.334-.15.69-.225 1.067-.225a2.59 2.59 0 012.008.918c.249.29.436.63.56 1.018.129.388.182.808.16 1.26h-4.664c.044.348.154.66.33.934.18.275.407.493.682.655a1.9 1.9 0 00.924.242c.367 0 .697-.096.99-.286a2.09 2.09 0 00.715-.787l.781.182c-.22.487-.552.887-.995 1.199a2.556 2.556 0 01-1.491.462zm-1.958-3.222h3.91a1.958 1.958 0 00-.313-.935 2.037 2.037 0 00-.699-.682 1.789 1.789 0 00-.94-.259 1.79 1.79 0 00-.935.253c-.282.165-.513.39-.693.677-.18.282-.29.597-.33.946zM2.965 27h-.792L.33 21.5h.754l1.496 4.433L4.065 21.5h.814l1.485 4.433L7.849 21.5h.759L6.765 27h-.797L4.46 22.523 2.965 27z" fill="#FFF5F5"/></svg>