<svg width="232" height="849" viewBox="0 0 232 849" fill="none" xmlns="http://www.w3.org/2000/svg">
<path d="M232.406 419.269H152.735C155.974 408.312 159.409 397.587 160.122 392.953C161.553 383.649 163.7 355.021 163.7 355.021C159.69 349.865 161.794 335.237 162.955 322.668H232.406V419.269Z" stroke="url(#paint0_linear_5497_41749)"/>
<path d="M152.225 537.111H220.301C220.24 537.506 220.187 537.849 220.161 538.076C219.523 543.485 220.317 575.608 219.047 588.013C217.775 600.419 212.844 614.574 212.208 619.503C211.967 621.363 212.43 626.835 213.21 633.715H158.495C159.166 629.219 159.773 625.741 160.118 624.356C161.31 619.585 159.164 588.094 159.164 580.938C159.164 574.603 157.288 554.812 152.225 537.111Z" stroke="url(#paint1_linear_5497_41749)"/>
<path d="M148.985 526.493C143.816 504.928 146.745 457.411 146.52 447.106C146.439 443.386 147.816 437.027 149.722 429.89H232.406V466.826C232.286 474.749 225.73 508.233 222.251 526.493H148.985Z" stroke="url(#paint2_linear_5497_41749)"/>
<path d="M232.406 204.825H107.649C107.629 203.762 107.62 202.642 107.639 201.391C107.878 185.407 115.035 168.707 123.622 155.824C132.211 142.943 142.469 142.943 145.094 139.843C147.717 136.74 168.472 128.153 180.877 121.949C188.662 118.059 194.499 112.947 198.008 108.222H232.406V204.825Z" stroke="url(#paint3_linear_5497_41749)"/>
<path d="M185.808 845.917C183.262 849.2 179.285 844.383 179.285 844.383C176.583 848.839 173.721 842.16 173.721 842.16C173.721 842.16 171.336 844.07 169.586 839.454C167.836 834.843 177.377 825.299 177.377 821.961C177.377 818.622 180.717 809.872 181.671 804.467C182.596 799.22 182.62 774.519 173.91 751.555H209.03C209.028 751.988 209.026 752.397 209.026 752.779C209.026 764.229 213.481 773.455 217.297 788.563C221.115 803.673 216.183 814.011 216.977 821.643C217.773 829.277 218.093 839.614 209.026 845.656C199.963 851.699 194.713 844.702 194.713 844.702C190.58 851.699 185.808 845.917 185.808 845.917Z" stroke="url(#paint4_linear_5497_41749)"/>
<path d="M155.352 669.445C154.989 664.011 155.907 653.757 157.059 644.331H214.508C215.673 653.374 217.019 662.911 217.931 669.445C220.001 684.233 213.479 697.594 211.729 701.568C210.405 704.579 209.538 725.826 209.194 740.939H170.019C161.981 716.263 155.988 678.998 155.352 669.445Z" stroke="url(#paint5_linear_5497_41749)"/>
<path d="M201.883 97.6034C201.86 90.2618 199.485 77.1785 199.485 77.1785C192.167 77.4985 187.08 60.8002 187.396 53.1669C187.716 45.5337 193.759 47.2815 193.759 47.2815C190.896 6.2495 219.523 1 232.406 1V97.6034H201.883Z" stroke="url(#paint6_linear_5497_41749)"/>
<path d="M37.1836 485.913C36.5476 489.252 34.7188 494.82 31.6992 494.98C28.6754 495.14 28.8354 485.593 28.8354 485.593C28.6754 486.547 26.1317 487.345 26.1317 487.345C18.9744 487.345 21.0422 464.123 21.6802 458.715C22.3141 453.306 23.7459 437.087 22.4741 435.334C21.2022 433.588 17.0645 436.927 16.4286 437.403C15.7927 437.881 11.8171 442.493 8.63739 444.721C5.45771 446.944 0.84213 445.675 1.00415 444.721C1.16415 443.767 10.3062 432.794 13.8869 429.93C17.4635 427.066 22.2351 419.672 26.0507 415.138C29.8683 410.607 40.3653 405.358 40.3653 405.358C40.3653 405.358 53.487 380.548 56.3487 375.061C59.2125 369.575 63.506 348.82 66.3698 337.847C69.2315 326.872 79.2505 306.595 82.8291 302.778C86.4078 298.96 97.8587 280.354 101.198 269.14C104.538 257.928 101.198 237.412 105.97 227.154C108.593 221.516 108.761 219.114 108.423 215.444H232.406V312.049H163.514C163.153 297.962 155.332 271.424 153.043 261.667C150.657 251.488 148.91 258.007 147.318 263.414C145.728 268.824 139.207 284.568 135.551 295.381C131.893 306.196 131.415 321.147 127.756 333.552C124.1 345.956 107.24 369.812 98.0187 378.401C88.7936 386.988 76.3888 411.798 74.479 416.729C72.5712 421.661 73.0471 426.113 72.0932 434.542C71.1393 442.971 54.202 479.549 51.5002 482.891C48.7945 486.231 46.8056 482.968 46.8056 482.968C46.8056 482.968 43.387 491.954 40.6043 492.033C37.8216 492.112 37.1836 485.913 37.1836 485.913Z" stroke="url(#paint7_linear_5497_41749)"/>
<defs>
<linearGradient id="paint0_linear_5497_41749" x1="116.703" y1="848.161" x2="116.703" y2="1" gradientUnits="userSpaceOnUse">
<stop stop-color="#59B6EF"/>
<stop offset="0.48" stop-color="#7B74DD"/>
<stop offset="1" stop-color="#FDBC3B"/>
</linearGradient>
<linearGradient id="paint1_linear_5497_41749" x1="116.703" y1="848.161" x2="116.703" y2="1" gradientUnits="userSpaceOnUse">
<stop stop-color="#59B6EF"/>
<stop offset="0.48" stop-color="#7B74DD"/>
<stop offset="1" stop-color="#FDBC3B"/>
</linearGradient>
<linearGradient id="paint2_linear_5497_41749" x1="116.703" y1="848.161" x2="116.703" y2="1" gradientUnits="userSpaceOnUse">
<stop stop-color="#59B6EF"/>
<stop offset="0.48" stop-color="#7B74DD"/>
<stop offset="1" stop-color="#FDBC3B"/>
</linearGradient>
<linearGradient id="paint3_linear_5497_41749" x1="116.703" y1="848.161" x2="116.703" y2="1" gradientUnits="userSpaceOnUse">
<stop stop-color="#59B6EF"/>
<stop offset="0.48" stop-color="#7B74DD"/>
<stop offset="1" stop-color="#FDBC3B"/>
</linearGradient>
<linearGradient id="paint4_linear_5497_41749" x1="116.703" y1="848.161" x2="116.703" y2="1" gradientUnits="userSpaceOnUse">
<stop stop-color="#59B6EF"/>
<stop offset="0.48" stop-color="#7B74DD"/>
<stop offset="1" stop-color="#FDBC3B"/>
</linearGradient>
<linearGradient id="paint5_linear_5497_41749" x1="116.703" y1="848.161" x2="116.703" y2="1" gradientUnits="userSpaceOnUse">
<stop stop-color="#59B6EF"/>
<stop offset="0.48" stop-color="#7B74DD"/>
<stop offset="1" stop-color="#FDBC3B"/>
</linearGradient>
<linearGradient id="paint6_linear_5497_41749" x1="116.703" y1="848.161" x2="116.703" y2="1" gradientUnits="userSpaceOnUse">
<stop stop-color="#59B6EF"/>
<stop offset="0.48" stop-color="#7B74DD"/>
<stop offset="1" stop-color="#FDBC3B"/>
</linearGradient>
<linearGradient id="paint7_linear_5497_41749" x1="116.703" y1="848.161" x2="116.703" y2="1" gradientUnits="userSpaceOnUse">
<stop stop-color="#59B6EF"/>
<stop offset="0.48" stop-color="#7B74DD"/>
<stop offset="1" stop-color="#FDBC3B"/>
</linearGradient>
</defs>
</svg>
