<svg width="142" height="70" viewBox="0 0 142 70" fill="none" xmlns="http://www.w3.org/2000/svg">
<path d="M130.531 20.9375L141.384 20.9475V23.1801H132.764V26.8543H139.782V29.0868H132.764V34.7733H141.604V37.0059H130.531V20.9375Z" fill="#473B7F"/>
<path d="M117.695 20.9375H119.928V20.9475H128.548V23.1801H119.928V27.1246H126.946V29.3571H119.928V37.0059H117.695V20.9375Z" fill="#473B7F"/>
<path d="M113.453 37.0059V20.9375H115.686V37.0059H113.453Z" fill="#473B7F"/>
<path d="M101.156 20.9375H103.389V34.7733H111.558V37.0059H101.156V20.9375Z" fill="#473B7F"/>
<path d="M97.4922 37.0035V35.0312H99.7247V37.0035H97.4922Z" fill="#473B7F"/>
<path d="M94.7362 24.1151C93.6283 23.0472 92.5738 22.5133 91.5726 22.5133C91.5125 22.5133 91.4525 22.5166 91.3924 22.5233C90.8785 22.57 90.4213 22.7869 90.0208 23.174C89.9007 23.2808 89.7806 23.441 89.6604 23.6546C89.5403 23.8615 89.4802 24.1084 89.4802 24.3954C89.4802 24.4088 89.4802 24.4221 89.4802 24.4355C89.5269 24.876 89.7005 25.2598 90.0008 25.5868C90.3012 25.9138 90.6382 26.1808 91.012 26.3877C91.3991 26.6013 91.7995 26.8115 92.2134 27.0184C92.754 27.2787 93.2846 27.5657 93.8052 27.8794C94.3324 28.1864 94.7996 28.5569 95.2068 28.9907C95.8609 29.7382 96.2713 30.5992 96.4382 31.5736C96.4916 31.8807 96.5183 32.181 96.5183 32.4747C96.5183 33.1287 96.3915 33.7661 96.1378 34.3869C95.7507 35.2946 95.14 36.0287 94.3057 36.5894C93.4781 37.15 92.5204 37.4437 91.4325 37.4704C91.359 37.4704 91.289 37.4704 91.2222 37.4704C90.2144 37.4704 89.31 37.2401 88.5091 36.7796C87.7149 36.3124 87.0608 35.6316 86.5469 34.7373L88.4891 33.6861C88.8629 34.3468 89.3034 34.814 89.8106 35.0877C90.2845 35.348 90.7784 35.4781 91.2923 35.4781C91.3257 35.4781 91.3624 35.4781 91.4024 35.4781C91.9564 35.4381 92.4703 35.2512 92.9442 34.9175C93.4181 34.5837 93.7618 34.1566 93.9754 33.636C94.1289 33.2622 94.2056 32.8851 94.2056 32.5047C94.2056 32.3645 94.1789 32.1276 94.1255 31.7939C94.0721 31.4535 93.8886 31.0664 93.5749 30.6326C93.3013 30.2655 92.9609 29.9551 92.5537 29.7015C92.1466 29.4479 91.5159 29.1075 90.6616 28.6803C89.8073 28.2532 89.0464 27.7025 88.379 27.0284C87.7115 26.3477 87.3311 25.5267 87.2377 24.5656C87.231 24.4922 87.2277 24.4221 87.2277 24.3554C87.2277 23.401 87.6114 22.5366 88.379 21.7624C89.1799 21.0016 90.121 20.5711 91.2022 20.4709C91.3157 20.4643 91.4258 20.4609 91.5326 20.4609C93.061 20.4609 94.5227 21.0683 95.9176 22.283L94.7362 24.1151Z" fill="#473B7F"/>
<path d="M77.2951 23.1779V28.3137H80.1283C80.9492 28.3137 81.65 28.0634 82.2307 27.5629C82.8114 27.0623 83.1017 26.4583 83.1017 25.7508C83.1017 25.0433 82.8114 24.4393 82.2307 23.9387C81.65 23.4315 80.9492 23.1779 80.1283 23.1779H77.2951ZM86.0551 37.0137H83.342L78.8268 30.5463H77.2951V37.0137H75.0625V20.9453H80.1283C81.5633 20.9453 82.7913 21.4159 83.8125 22.3569C84.827 23.298 85.3342 24.4293 85.3342 25.7508C85.3342 26.8521 84.9638 27.8365 84.223 28.7042C83.4955 29.5585 82.5677 30.1225 81.4398 30.3961L86.0551 37.0137Z" fill="#473B7F"/>
<path d="M69.3001 24.5278C68.0453 23.2997 66.5336 22.6857 64.7649 22.6857C62.9962 22.6857 61.4878 23.2997 60.2397 24.5278C58.9849 25.7559 58.3576 27.2342 58.3576 28.9629C58.3576 30.6982 58.9849 32.1799 60.2397 33.4079C61.4878 34.636 62.9962 35.25 64.7649 35.25C66.5336 35.25 68.0453 34.636 69.3001 33.4079C70.5482 32.1799 71.1722 30.6982 71.1722 28.9629C71.1722 27.2342 70.5482 25.7559 69.3001 24.5278ZM70.8719 34.9897C69.1833 36.6516 67.1476 37.4826 64.7649 37.4826C63.5969 37.4826 62.4756 37.259 61.401 36.8118C60.3732 36.378 59.4588 35.7706 58.6579 34.9897C57.8637 34.2022 57.2463 33.2978 56.8058 32.2766C56.3519 31.2221 56.125 30.1175 56.125 28.9629C56.125 27.8149 56.3519 26.7136 56.8058 25.6591C57.2463 24.6379 57.8637 23.7335 58.6579 22.946C60.3465 21.2841 62.3822 20.4531 64.7649 20.4531C65.9329 20.4531 67.0542 20.6767 68.1287 21.1239C69.1632 21.551 70.0776 22.1584 70.8719 22.946C71.6728 23.7335 72.2901 24.6379 72.724 25.6591C73.1778 26.7136 73.4047 27.8149 73.4047 28.9629C73.4047 30.1175 73.1778 31.2221 72.724 32.2766C72.2901 33.2978 71.6728 34.2022 70.8719 34.9897Z" fill="#473B7F"/>
<path d="M49.3643 20.9375H51.5969V20.9475H56.4825V23.1801H51.5969V37.0059H49.3643V23.1801H44.4688V20.9475H49.3643V20.9375Z" fill="#473B7F"/>
<path d="M40.4228 37.1722C39.6619 37.3791 38.8176 37.4826 37.8899 37.4826C36.7219 37.4826 35.6006 37.259 34.526 36.8118C33.4982 36.378 32.5838 35.7706 31.7829 34.9897C30.9887 34.2022 30.3713 33.2978 29.9308 32.2766C29.4769 31.2221 29.25 30.1175 29.25 28.9629C29.25 27.8149 29.4769 26.7136 29.9308 25.6591C30.3713 24.6379 30.9887 23.7335 31.7829 22.946C33.4715 21.2841 35.5072 20.4531 37.8899 20.4531C38.8176 20.4531 39.6619 20.5566 40.4228 20.7635C41.4706 21.0438 42.5152 21.5477 43.5563 22.2752L42.2849 24.1073C40.9167 23.1596 39.4517 22.6857 37.8899 22.6857C36.1212 22.6857 34.6128 23.2997 33.3647 24.5278C32.1099 25.7559 31.4826 27.2342 31.4826 28.9629C31.4826 30.6982 32.1099 32.1799 33.3647 33.4079C34.6128 34.636 36.1212 35.25 37.8899 35.25C38.6708 35.25 39.3649 35.1599 39.9723 34.9797C40.7198 34.7661 41.4907 34.3824 42.2849 33.8284L43.5563 35.6605C42.5152 36.388 41.4706 36.8919 40.4228 37.1722Z" fill="#473B7F"/>
<path d="M17.2969 20.9375L28.1493 20.9475V23.1801H19.5294V26.8543H26.5474V29.0868H19.5294V34.7733H28.3695V37.0059H17.2969V20.9375Z" fill="#473B7F"/>
<path d="M13.5154 20.9453H15.9382L8.97025 37.0037H6.96796L0 20.9453H2.43278L7.96911 33.6899L13.5154 20.9453Z" fill="#473B7F"/>
<path d="M33.3347 7.44851L29.25 0H112.946L102.454 17.2197H94.7649L100.612 7.44851H33.3347Z" fill="url(#paint0_linear_5497_41845)"/>
<path d="M33.3347 7.44851L29.25 0H72.099L70.417 3.20366L69.3759 5.12586L68.2546 7.44851H33.3347Z" fill="url(#paint1_linear_5497_41845)"/>
<path d="M69.2191 55.4242L77.4685 41.3281H85.8781L69.2191 70.0009L65 62.5009L66.5 60.0009L69.2191 55.4242Z" fill="url(#paint2_linear_5497_41845)"/>
<path d="M69.2191 55.4219L73.2675 63.0306L69.2191 69.9985L65 62.4985L67 58.9985L69.2191 55.4219Z" fill="url(#paint3_linear_5497_41845)"/>
<defs>
<linearGradient id="paint0_linear_5497_41845" x1="29.25" y1="8.60984" x2="112.946" y2="8.60984" gradientUnits="userSpaceOnUse">
<stop stop-color="#FDBC3B"/>
<stop offset="0.5" stop-color="#F9B3F8"/>
<stop offset="1" stop-color="#635BFF"/>
</linearGradient>
<linearGradient id="paint1_linear_5497_41845" x1="33.1745" y1="7.5286" x2="68.9754" y2="7.5286" gradientUnits="userSpaceOnUse">
<stop stop-color="#F9B3F8" stop-opacity="0"/>
<stop offset="0.475" stop-color="#F9B3F8" stop-opacity="0.3"/>
<stop offset="1" stop-color="#635BFF" stop-opacity="0.3"/>
</linearGradient>
<linearGradient id="paint2_linear_5497_41845" x1="71.0612" y1="70.0009" x2="85.9582" y2="41.3281" gradientUnits="userSpaceOnUse">
<stop stop-color="#473B7F"/>
<stop offset="1" stop-color="#9377FC"/>
</linearGradient>
<linearGradient id="paint3_linear_5497_41845" x1="64.1733" y1="48.2136" x2="74.9056" y2="67.4356" gradientUnits="userSpaceOnUse">
<stop stop-color="#473B7F"/>
<stop offset="1" stop-color="#9377FC"/>
</linearGradient>
</defs>
</svg>
