<svg width="142" height="70" viewBox="0 0 142 70" fill="none" xmlns="http://www.w3.org/2000/svg">
<path d="M130.529 20.9339L141.382 20.9439V23.1765H132.762V26.8507H139.78V29.0832H132.762V34.7697H141.602V37.0023H130.529V20.9339Z" fill="white"/>
<path d="M117.695 20.9339H119.927V20.9439H128.547V23.1765H119.927V27.121H126.945V29.3536H119.927V37.0023H117.695V20.9339Z" fill="white"/>
<path d="M113.45 37.0023V20.9339H115.682V37.0023H113.45Z" fill="white"/>
<path d="M101.156 20.9339H103.388V34.7697H111.557V37.0023H101.156V20.9339Z" fill="white"/>
<path d="M97.4914 37.0023V35.03H99.724V37.0023H97.4914Z" fill="white"/>
<path d="M94.7383 24.1176C93.6303 23.0497 92.5758 22.5157 91.5747 22.5157C91.5146 22.5157 91.4545 22.5191 91.3945 22.5258C90.8805 22.5725 90.4233 22.7894 90.0229 23.1765C89.9028 23.2833 89.7826 23.4435 89.6625 23.657C89.5423 23.8639 89.4823 24.1109 89.4823 24.3979C89.4823 24.4112 89.4823 24.4246 89.4823 24.4379C89.529 24.8784 89.7025 25.2622 90.0029 25.5893C90.3032 25.9163 90.6403 26.1833 91.014 26.3902C91.4011 26.6037 91.8016 26.814 92.2154 27.0209C92.756 27.2812 93.2866 27.5682 93.8072 27.8819C94.3345 28.1889 94.8017 28.5593 95.2088 28.9931C95.8629 29.7407 96.2734 30.6016 96.4402 31.5761C96.4936 31.8831 96.5203 32.1835 96.5203 32.4771C96.5203 33.1312 96.3935 33.7686 96.1399 34.3893C95.7528 35.297 95.1421 36.0312 94.3078 36.5918C93.4802 37.1525 92.5224 37.4461 91.4345 37.4728C91.3611 37.4728 91.291 37.4728 91.2243 37.4728C90.2164 37.4728 89.3121 37.2426 88.5112 36.782C87.7169 36.3148 87.0628 35.6341 86.5489 34.7397L88.4911 33.6885C88.8649 34.3493 89.3054 34.8165 89.8126 35.0901C90.2865 35.3504 90.7804 35.4806 91.2943 35.4806C91.3277 35.4806 91.3644 35.4806 91.4045 35.4806C91.9584 35.4405 92.4724 35.2536 92.9462 34.9199C93.4201 34.5862 93.7638 34.159 93.9774 33.6385C94.1309 33.2647 94.2077 32.8876 94.2077 32.5072C94.2077 32.367 94.181 32.1301 94.1276 31.7963C94.0742 31.456 93.8906 31.0688 93.577 30.635C93.3033 30.2679 92.9629 29.9576 92.5558 29.704C92.1487 29.4503 91.5179 29.1099 90.6636 28.6828C89.8093 28.2556 89.0484 27.705 88.381 27.0309C87.7136 26.3501 87.3331 25.5292 87.2397 24.5681C87.233 24.4947 87.2297 24.4246 87.2297 24.3578C87.2297 23.4034 87.6135 22.5391 88.381 21.7649C89.1819 21.004 90.123 20.5735 91.2042 20.4734C91.3177 20.4667 91.4278 20.4634 91.5346 20.4634C93.063 20.4634 94.5247 21.0708 95.9196 22.2855L94.7383 24.1176Z" fill="white"/>
<path d="M77.2983 23.1765V28.3124H80.1316C80.9525 28.3124 81.6533 28.0621 82.234 27.5615C82.8147 27.0609 83.105 26.4569 83.105 25.7494C83.105 25.042 82.8147 24.4379 82.234 23.9374C81.6533 23.4301 80.9525 23.1765 80.1316 23.1765H77.2983ZM86.0584 37.0123H83.3453L78.8301 30.5449H77.2983V37.0123H75.0658V20.9439H80.1316C81.5666 20.9439 82.7946 21.4145 83.8158 22.3556C84.8303 23.2966 85.3375 24.4279 85.3375 25.7494C85.3375 26.8507 84.9671 27.8351 84.2263 28.7028C83.4988 29.5571 82.571 30.1211 81.4431 30.3947L86.0584 37.0123Z" fill="white"/>
<path d="M69.2992 24.528C68.0444 23.3 66.5327 22.6859 64.764 22.6859C62.9953 22.6859 61.4869 23.3 60.2388 24.528C58.9841 25.7561 58.3567 27.2345 58.3567 28.9631C58.3567 30.6984 58.9841 32.1801 60.2388 33.4082C61.4869 34.6362 62.9953 35.2503 64.764 35.2503C66.5327 35.2503 68.0444 34.6362 69.2992 33.4082C70.5473 32.1801 71.1713 30.6984 71.1713 28.9631C71.1713 27.2345 70.5473 25.7561 69.2992 24.528ZM70.871 34.99C69.1824 36.6519 67.1467 37.4828 64.764 37.4828C63.596 37.4828 62.4747 37.2592 61.4002 36.8121C60.3723 36.3782 59.458 35.7709 58.657 34.99C57.8628 34.2024 57.2454 33.298 56.8049 32.2769C56.3511 31.2223 56.1241 30.1177 56.1241 28.9631C56.1241 27.8151 56.3511 26.7139 56.8049 25.6593C57.2454 24.6382 57.8628 23.7338 58.657 22.9462C60.3456 21.2843 62.3813 20.4534 64.764 20.4534C65.932 20.4534 67.0533 20.677 68.1279 21.1241C69.1624 21.5513 70.0768 22.1587 70.871 22.9462C71.6719 23.7338 72.2893 24.6382 72.7231 25.6593C73.177 26.7139 73.4039 27.8151 73.4039 28.9631C73.4039 30.1177 73.177 31.2223 72.7231 32.2769C72.2893 33.298 71.6719 34.2024 70.871 34.99Z" fill="white"/>
<path d="M49.3664 20.9339H51.599V20.9439H56.4846V23.1765H51.599V37.0023H49.3664V23.1765H44.4708V20.9439H49.3664V20.9339Z" fill="white"/>
<path d="M40.4262 37.1725C39.6653 37.3794 38.821 37.4828 37.8933 37.4828C36.7253 37.4828 35.604 37.2592 34.5295 36.8121C33.5016 36.3782 32.5872 35.7709 31.7863 34.99C30.9921 34.2024 30.3747 33.298 29.9342 32.2769C29.4804 31.2223 29.2534 30.1177 29.2534 28.9631C29.2534 27.8151 29.4804 26.7139 29.9342 25.6593C30.3747 24.6382 30.9921 23.7338 31.7863 22.9462C33.4749 21.2843 35.5106 20.4534 37.8933 20.4534C38.821 20.4534 39.6653 20.5568 40.4262 20.7637C41.4741 21.044 42.5186 21.548 43.5598 22.2755L42.2883 24.1075C40.9201 23.1598 39.4551 22.6859 37.8933 22.6859C36.1246 22.6859 34.6162 23.3 33.3681 24.528C32.1134 25.7561 31.486 27.2345 31.486 28.9631C31.486 30.6984 32.1134 32.1801 33.3681 33.4082C34.6162 34.6362 36.1246 35.2503 37.8933 35.2503C38.6742 35.2503 39.3683 35.1602 39.9757 34.98C40.7232 34.7664 41.4941 34.3826 42.2883 33.8287L43.5598 35.6607C42.5186 36.3882 41.4741 36.8922 40.4262 37.1725Z" fill="white"/>
<path d="M17.2998 20.9339L28.1522 20.9439V23.1765H19.5323V26.8507H26.5503V29.0832H19.5323V34.7697H28.3724V37.0023H17.2998V20.9339Z" fill="white"/>
<path d="M13.5155 20.9439H15.9382L8.97026 37.0023H6.96797L3.8147e-06 20.9439H2.43278L7.96911 33.6885L13.5155 20.9439Z" fill="white"/>
<path d="M33.3381 7.44851L29.2534 0H112.949L102.457 17.2197H94.7683L100.615 7.44851H33.3381Z" fill="url(#paint0_linear_113_911)"/>
<path d="M33.3381 7.44851L29.2534 0H72.1024L70.4205 3.20366L69.3793 5.12586L68.258 7.44851H33.3381Z" fill="url(#paint1_linear_113_911)"/>
<path d="M69.2191 55.4234L77.4685 41.3272H85.8781L69.2191 70L65 62.5L66.5 60L69.2191 55.4234Z" fill="url(#paint2_linear_113_911)"/>
<path d="M69.2191 55.4233L73.2675 63.032L69.2191 70L65 62.5L67 59L69.2191 55.4233Z" fill="url(#paint3_linear_113_911)"/>
<defs>
<linearGradient id="paint0_linear_113_911" x1="29.2534" y1="8.60984" x2="112.949" y2="8.60984" gradientUnits="userSpaceOnUse">
<stop stop-color="#FDBC3B"/>
<stop offset="0.5" stop-color="#F9B3F8"/>
<stop offset="1" stop-color="#635BFF"/>
</linearGradient>
<linearGradient id="paint1_linear_113_911" x1="33.1779" y1="7.5286" x2="68.9788" y2="7.5286" gradientUnits="userSpaceOnUse">
<stop stop-color="#F9B3F8" stop-opacity="0"/>
<stop offset="0.475" stop-color="#F9B3F8" stop-opacity="0.3"/>
<stop offset="1" stop-color="#635BFF" stop-opacity="0.3"/>
</linearGradient>
<linearGradient id="paint2_linear_113_911" x1="71.0612" y1="70" x2="85.9582" y2="41.3272" gradientUnits="userSpaceOnUse">
<stop stop-color="#473B7F"/>
<stop offset="1" stop-color="#9377FC"/>
</linearGradient>
<linearGradient id="paint3_linear_113_911" x1="64.1733" y1="48.2151" x2="74.9056" y2="67.4371" gradientUnits="userSpaceOnUse">
<stop stop-color="#473B7F"/>
<stop offset="1" stop-color="#9377FC"/>
</linearGradient>
</defs>
</svg>
