<svg width="48" height="24" viewBox="0 0 48 24" fill="none" xmlns="http://www.w3.org/2000/svg">
<rect width="48" height="24" rx="2" fill="#FBFAF8"/>
<path fill-rule="evenodd" clip-rule="evenodd" d="M29.8029 21C34.8804 21 38.9965 16.9706 38.9965 12C38.9965 7.02944 34.8804 3 29.8029 3C24.7255 3 20.6094 7.02944 20.6094 12C20.6094 16.9706 24.7255 21 29.8029 21Z" fill="#F79E1B"/>
<path fill-rule="evenodd" clip-rule="evenodd" d="M18.1935 21C23.271 21 27.3871 16.9706 27.3871 12C27.3871 7.02944 23.271 3 18.1935 3C13.1161 3 9 7.02944 9 12C9 16.9706 13.1161 21 18.1935 21Z" fill="#EB001B"/>
<path fill-rule="evenodd" clip-rule="evenodd" d="M23.9963 5.02344C21.9293 6.67377 20.6094 9.18671 20.6094 12.0015C20.6094 14.8162 21.9293 17.3291 23.9963 18.9795C26.0633 17.3291 27.3832 14.8162 27.3832 12.0015C27.3832 9.18671 26.0633 6.67377 23.9963 5.02344Z" fill="#FF5F00"/>
</svg>
