<svg width="48" height="24" viewBox="0 0 48 24" fill="none" xmlns="http://www.w3.org/2000/svg">
<rect width="48" height="24" rx="2" fill="#FBFAF8"/>
<path fill-rule="evenodd" clip-rule="evenodd" d="M32.1692 7.44798C31.592 7.23205 30.6874 7 29.5572 7C26.6775 7 24.6482 8.44574 24.6312 10.5164C24.6155 12.0486 26.0794 12.9017 27.1853 13.4125C28.3194 13.9339 28.7012 14.2673 28.6952 14.7335C28.688 15.4479 27.7898 15.7741 26.952 15.7741C25.7852 15.7741 25.1659 15.6133 24.2085 15.2154L23.8326 15.0457L23.4235 17.4315C24.1051 17.7285 25.363 17.9868 26.6702 18C29.7343 18 31.7236 16.5712 31.7457 14.3594C31.7563 13.1469 30.9803 12.2243 29.2993 11.4645C28.2798 10.9711 27.6561 10.6415 27.6629 10.1426C27.6629 9.70058 28.1904 9.22588 29.3312 9.22588C30.2856 9.21103 30.9752 9.41847 31.5128 9.63482L31.7746 9.757L32.1692 7.44798ZM18.6853 17.8418L20.5077 7.18583H23.4219L21.5987 17.8418H18.6853ZM37.3917 7.19625H39.644L42.0027 17.8446H39.2979C39.2979 17.8446 39.031 16.6211 38.9438 16.2482C38.7183 16.2482 37.7769 16.247 36.8921 16.2459L36.8797 16.2459C36.1 16.2449 35.3671 16.244 35.2109 16.244C35.0977 16.532 34.5975 17.8446 34.5975 17.8446H31.5364L35.8648 8.0799C36.1721 7.38546 36.6936 7.19625 37.3917 7.19625ZM36.0491 14.0644C36.2905 13.4505 37.2108 11.0851 37.2108 11.0851C37.2023 11.099 37.259 10.9523 37.3364 10.752L37.3364 10.7519C37.4176 10.5418 37.5215 10.2728 37.5969 10.0682L37.7936 10.9871C37.7936 10.9871 38.3521 13.5303 38.4691 14.0644H36.0491ZM13.3876 14.46L16.2405 7.19358H19.3276L14.7396 17.8288L11.6555 17.833L9.04688 8.51291C10.8969 9.43601 12.5524 11.2805 13.0832 12.9833L13.3876 14.46Z" fill="#1A1F71"/>
<path fill-rule="evenodd" clip-rule="evenodd" d="M10.7374 7.1875H6.03703L6 7.40894C9.65663 8.29174 12.0762 10.423 13.0804 12.9845L12.0583 8.08684C11.8821 7.41191 11.37 7.21083 10.7374 7.1875" fill="#F9A51A"/>
</svg>
