<svg width="48" height="24" viewBox="0 0 48 24" fill="none" xmlns="http://www.w3.org/2000/svg">
<rect width="48" height="24" rx="2" fill="#FBFAF8"/>
<g clip-path="url(#clip0_5497_41716)">
<path d="M18.356 12.101C18.3565 11.7608 18.326 11.4212 18.2649 11.0859H13.2812V13.0075H16.135C16.0766 13.3143 15.953 13.6066 15.7717 13.867C15.5904 14.1274 15.3551 14.3504 15.0801 14.5226V15.7731H16.7836C17.781 14.9048 18.356 13.62 18.356 12.101Z" fill="#4285F4"/>
<path d="M13.2835 16.9807C14.7083 16.9807 15.9108 16.5381 16.7859 15.7756L15.0823 14.5274C14.6078 14.8325 13.998 15.0048 13.2835 15.0048C11.9056 15.0048 10.7353 14.1276 10.3171 12.9453H8.5625V14.2313C9.00214 15.0578 9.67647 15.7526 10.5102 16.2381C11.3438 16.7237 12.304 16.9808 13.2835 16.9807V16.9807Z" fill="#34A853"/>
<path d="M10.318 12.9463C10.0968 12.3267 10.0968 11.6558 10.318 11.0363V9.75H8.5634C8.19294 10.4455 8 11.2133 8 11.9919C8 12.7704 8.19294 13.5382 8.5634 14.2338L10.318 12.9463Z" fill="#FBBC04"/>
<path d="M23.1353 12.8663V16.3825H21.9531V7.69593H25.0863C25.4604 7.68834 25.8324 7.75088 26.1807 7.87994C26.5291 8.00899 26.8469 8.202 27.1157 8.4478C27.383 8.68291 27.5962 8.96747 27.7419 9.28378C27.8877 9.60008 27.9629 9.94134 27.9629 10.2863C27.9629 10.6312 27.8877 10.9725 27.7419 11.2888C27.5962 11.6051 27.383 11.8897 27.1157 12.1248C26.5675 12.6185 25.891 12.865 25.0863 12.8641H23.1347L23.1353 12.8663ZM23.1353 8.76654V11.7993H25.1166C25.431 11.8048 25.7401 11.7227 26.0054 11.5633C26.2707 11.4039 26.4804 11.1743 26.6083 10.9031C26.7363 10.6318 26.7768 10.331 26.7249 10.0382C26.6729 9.74536 26.5308 9.47345 26.3163 9.2564C26.3056 9.24603 26.2962 9.23596 26.284 9.2259C26.1349 9.07529 25.9536 8.95634 25.7521 8.87694C25.5506 8.79753 25.3336 8.75949 25.1153 8.76532L23.1353 8.76654ZM30.6875 10.2462C31.5613 10.2462 32.2504 10.4664 32.7547 10.9068C33.259 11.3473 33.5115 11.9515 33.5121 12.7196V16.3825H32.3816V15.559H32.3309C31.8415 16.2386 31.1904 16.5781 30.3777 16.5777C29.6848 16.5777 29.1049 16.3836 28.638 15.9955C28.4141 15.8172 28.2351 15.5941 28.1141 15.3423C27.993 15.0905 27.9329 14.8164 27.9381 14.5399C27.9381 13.9246 28.1843 13.4355 28.6768 13.0728C29.1692 12.71 29.826 12.5282 30.6471 12.5274C31.3483 12.5274 31.9275 12.6494 32.3803 12.8907V12.6351C32.3817 12.4466 32.3387 12.2603 32.2543 12.0895C32.1699 11.9187 32.0464 11.7678 31.8926 11.6477C31.58 11.3815 31.1726 11.2364 30.7518 11.2415C30.0922 11.2415 29.5699 11.5043 29.1849 12.0299L28.1464 11.4095C28.7173 10.6336 29.564 10.2458 30.6865 10.2462H30.6875ZM29.1581 14.5637C29.1574 14.7055 29.1926 14.8454 29.2606 14.9719C29.3286 15.0983 29.4276 15.2077 29.5492 15.2909C29.8107 15.4849 30.135 15.5878 30.4675 15.5822C30.9659 15.5808 31.4435 15.3936 31.7963 15.0612C32.1878 14.7131 32.3835 14.3046 32.3832 13.8359C32.0146 13.5588 31.5008 13.42 30.8419 13.4196C30.3619 13.4196 29.9616 13.5288 29.6409 13.7472C29.3179 13.9701 29.1564 14.2398 29.1564 14.5637H29.1581ZM40.0006 10.4411L36.0558 19.0029H34.8361L36.2997 16.0067L33.7047 10.4411H34.9889L36.8623 14.7113H36.8879L38.7122 10.4411H40.0006Z" fill="#5F6368"/>
<path d="M13.2835 8.97621C14.0368 8.96457 14.7647 9.23321 15.3101 9.72411L16.8194 8.30029C15.8628 7.45211 14.5957 6.98627 13.2835 7.00031C12.3041 7.0005 11.3441 7.25766 10.5104 7.74309C9.67682 8.22852 9.00242 8.92314 8.5625 9.74943L10.3171 11.0357C10.7353 9.85344 11.9056 8.97621 13.2835 8.97621Z" fill="#EA4335"/>
</g>
<defs>
<clipPath id="clip0_5497_41716">
<rect width="32" height="12" fill="white" transform="translate(8 7)"/>
</clipPath>
</defs>
</svg>
