<svg width="48" height="24" viewBox="0 0 48 24" fill="none" xmlns="http://www.w3.org/2000/svg">
<rect width="48" height="24" rx="2" fill="#FBFAF8"/>
<path fill-rule="evenodd" clip-rule="evenodd" d="M25.1729 7.59906L23.1957 8.02443V6.41749L25.1729 6V7.59906ZM17.1382 6.91375L15.2162 7.32336L15.2083 13.633C15.2083 14.7988 16.0827 15.6574 17.2485 15.6574C17.8944 15.6574 18.367 15.5392 18.627 15.3975V13.7984C18.3749 13.9008 17.1303 14.2631 17.1303 13.0973V10.3009H18.627V8.6231H17.1303L17.1382 6.91375ZM12.4828 10.1985C12.0653 10.1985 11.8132 10.3167 11.8132 10.6239C11.8132 10.9593 12.247 11.1069 12.7852 11.2899C13.6626 11.5883 14.8174 11.9811 14.8223 13.436C14.8223 14.8461 13.6959 15.6574 12.0574 15.6574C11.38 15.6574 10.6395 15.5235 9.90696 15.2084V13.3336C10.5686 13.696 11.4036 13.9638 12.0574 13.9638C12.4985 13.9638 12.8136 13.8457 12.8136 13.4833C12.8136 13.1118 12.3434 12.9419 11.7756 12.7369C10.911 12.4247 9.82031 12.0308 9.82031 10.7184C9.82031 9.32416 10.8837 8.48918 12.4828 8.48918C13.1366 8.48918 13.7825 8.59159 14.4363 8.85153V10.7027C13.8377 10.3797 13.0815 10.1985 12.4828 10.1985ZM35.3344 8.48918C37.2013 8.48918 38.1781 10.0804 38.1781 12.0969C38.1781 12.2058 38.1729 12.3878 38.1684 12.5422L38.1684 12.5423V12.5423L38.1684 12.5427C38.1652 12.6562 38.1623 12.7546 38.1623 12.798H34.3104C34.3971 13.7275 35.0745 13.9953 35.8386 13.9953C36.6184 13.9953 37.2328 13.8299 37.7685 13.5621V15.1375C37.2328 15.4368 36.5239 15.6495 35.5865 15.6495C33.6645 15.6495 32.3254 14.4522 32.3254 12.0812C32.3254 10.0804 33.4597 8.48918 35.3344 8.48918ZM35.3266 10.0882C34.8303 10.0882 34.2868 10.4585 34.2868 11.3486H36.3191C36.3191 10.4585 35.8071 10.0882 35.3266 10.0882ZM21.0768 9.20601L20.9507 8.6231H19.2493V15.5156H21.2186V10.8445C21.6833 10.2379 22.471 10.3482 22.7152 10.4348V8.6231C22.4632 8.52857 21.5415 8.35527 21.0768 9.20601ZM25.1729 8.62309H23.1957V15.5156H25.1729V8.62309ZM29.2848 8.48918C28.5128 8.48918 28.0166 8.85153 27.7409 9.1036L27.6384 8.61522H25.9055V17.8L27.8748 17.3825L27.8826 15.1533C28.1662 15.3581 28.5837 15.6495 29.2769 15.6495C30.6869 15.6495 31.9709 14.5152 31.9709 12.0182C31.963 9.73378 30.6633 8.48918 29.2848 8.48918ZM28.8121 13.9165C28.3474 13.9165 28.0717 13.7511 27.8826 13.5463L27.8748 10.6239C28.0796 10.3955 28.3631 10.2379 28.8121 10.2379C29.529 10.2379 30.0252 11.0414 30.0252 12.0733C30.0252 13.1288 29.5368 13.9165 28.8121 13.9165Z" fill="#635BFF"/>
</svg>
