<svg width="60" height="60" viewBox="0 0 60 60" fill="none" xmlns="http://www.w3.org/2000/svg">
<path d="M56.25 21.5625H54.7313L50.5125 10.3125H54.375C55.4063 10.3125 56.25 9.46875 56.25 8.4375C56.25 7.40625 55.4063 6.5625 54.375 6.5625H36.2625C35.4563 3.8625 32.9625 1.875 30 1.875C27.0375 1.875 24.5625 3.8625 23.7375 6.5625H5.625C4.59375 6.5625 3.75 7.40625 3.75 8.4375C3.75 9.46875 4.59375 10.3125 5.625 10.3125H9.4875L5.26875 21.5625H3.75C2.71875 21.5625 1.875 22.4062 1.875 23.4375V27.1875C1.875 31.3313 5.23125 34.6875 9.375 34.6875H15C19.1438 34.6875 22.5 31.3313 22.5 27.1875V23.4375C22.5 22.4062 21.6563 21.5625 20.625 21.5625H19.1062L14.8875 10.3125H23.7375C24.375 12.4125 26.025 14.0625 28.125 14.7V31.875H25.3125C24.2812 31.875 23.4375 32.7187 23.4375 33.75V41.25C23.4375 42.2813 24.2812 43.125 25.3125 43.125C26.3438 43.125 27.1875 42.2813 27.1875 41.25V35.625H32.8125V41.25C32.8125 42.2813 33.6562 43.125 34.6875 43.125C35.7188 43.125 36.5625 42.2813 36.5625 41.25V33.75C36.5625 32.7187 35.7188 31.875 34.6875 31.875H31.875V14.7C33.975 14.0625 35.625 12.4125 36.2625 10.3125H45.1125L40.8937 21.5625H39.375C38.3437 21.5625 37.5 22.4062 37.5 23.4375V27.1875C37.5 31.3313 40.8562 34.6875 45 34.6875H50.625C54.7688 34.6875 58.125 31.3313 58.125 27.1875V23.4375C58.125 22.4062 57.2813 21.5625 56.25 21.5625ZM18.75 27.1875C18.75 29.25 17.0625 30.9375 15 30.9375H9.375C7.3125 30.9375 5.625 29.25 5.625 27.1875V25.3125H18.75V27.1875ZM9.2625 21.5625L12.1875 13.7812L15.1125 21.5625H9.28125H9.2625ZM30 11.25C28.4438 11.25 27.1875 9.99375 27.1875 8.4375C27.1875 6.88125 28.4438 5.625 30 5.625C31.5562 5.625 32.8125 6.88125 32.8125 8.4375C32.8125 9.99375 31.5562 11.25 30 11.25ZM47.8125 13.7812L50.7375 21.5625H44.9063L47.8313 13.7812H47.8125ZM54.375 27.1875C54.375 29.25 52.6875 30.9375 50.625 30.9375H45C42.9375 30.9375 41.25 29.25 41.25 27.1875V25.3125H54.375V27.1875Z" fill="#473B7F"/>
<path d="M47.8125 50.625C48.8438 50.625 49.6875 49.7813 49.6875 48.75C49.6875 47.7187 48.8438 46.875 47.8125 46.875H12.1875C11.1562 46.875 10.3125 47.7187 10.3125 48.75C10.3125 49.7813 11.1562 50.625 12.1875 50.625H13.125V54.375H12.1875C11.1562 54.375 10.3125 55.2187 10.3125 56.25C10.3125 57.2813 11.1562 58.125 12.1875 58.125H47.8125C48.8438 58.125 49.6875 57.2813 49.6875 56.25C49.6875 55.2187 48.8438 54.375 47.8125 54.375H46.875V50.625H47.8125Z" fill="#9292DF"/>
</svg>
