<svg width="60" height="60" viewBox="0 0 60 60" fill="none" xmlns="http://www.w3.org/2000/svg">
<path d="M48.75 26.25H33.75C32.7187 26.25 31.875 27.0937 31.875 28.125V37.5H18.75C17.7187 37.5 16.875 38.3437 16.875 39.375V43.125H3.75C2.71875 43.125 1.875 43.9687 1.875 45V56.25C1.875 57.2813 2.71875 58.125 3.75 58.125H48.75C49.7813 58.125 50.625 57.2813 50.625 56.25V28.125C50.625 27.0937 49.7813 26.25 48.75 26.25ZM5.625 46.875H16.875V54.375H5.625V46.875ZM20.625 54.375V41.25H31.875V54.375H20.625ZM46.875 54.375H35.625V30H46.875V54.375Z" fill="#473B7F"/>
<path d="M40.3125 37.5H42.1875C43.2188 37.5 44.0625 36.6563 44.0625 35.625C44.0625 34.5937 43.2188 33.75 42.1875 33.75H40.3125C39.2812 33.75 38.4375 34.5937 38.4375 35.625C38.4375 36.6563 39.2812 37.5 40.3125 37.5Z" fill="#473B7F"/>
<path d="M56.25 3.75H43.125C43.125 2.71875 42.2813 1.875 41.25 1.875C40.2187 1.875 39.375 2.71875 39.375 3.75V22.5H43.125V16.875H56.25C57.2813 16.875 58.125 16.0313 58.125 15V5.625C58.125 4.59375 57.2813 3.75 56.25 3.75Z" fill="#9292DF"/>
</svg>
