<svg width="60" height="60" viewBox="0 0 60 60" fill="none" xmlns="http://www.w3.org/2000/svg">
<path d="M24.375 13.1281C18.1688 13.1281 13.125 18.1719 13.125 24.3781C13.125 29.9469 17.2688 34.7281 22.7625 35.4969C22.8563 35.4969 22.9313 35.4969 23.025 35.4969C23.9438 35.4969 24.75 34.8219 24.8813 33.8844C25.0313 32.8531 24.3188 31.9156 23.2875 31.7656C19.6313 31.2594 16.875 28.0719 16.875 24.3594C16.875 20.2156 20.2313 16.8594 24.375 16.8594C28.0875 16.8594 31.275 19.6156 31.7813 23.2719C31.9313 24.3031 32.85 25.0156 33.9 24.8656C34.9313 24.7156 35.6438 23.7781 35.4938 22.7469C34.725 17.2531 29.9438 13.1094 24.375 13.1094V13.1281Z" fill="#473B7F"/>
<path d="M45 22.5H43.0313C42.15 13.65 35.1 6.6 26.25 5.71875V3.75C26.25 2.71875 25.4063 1.875 24.375 1.875C23.3437 1.875 22.5 2.71875 22.5 3.75V5.71875C13.65 6.6 6.6 13.65 5.71875 22.5H3.75C2.71875 22.5 1.875 23.3437 1.875 24.375C1.875 25.4063 2.71875 26.25 3.75 26.25H5.71875C6.6 35.1 13.65 42.15 22.5 43.0313V45C22.5 46.0313 23.3437 46.875 24.375 46.875C25.4063 46.875 26.25 46.0313 26.25 45V43.0313C27.675 42.9 29.0438 42.6 30.375 42.15C31.35 41.8125 31.875 40.7437 31.5375 39.7687C31.2 38.7937 30.1313 38.2688 29.1563 38.6063C27.6563 39.1313 26.0438 39.3938 24.3938 39.3938C16.125 39.3938 9.39375 32.6625 9.39375 24.3938C9.39375 16.125 16.125 9.39375 24.3938 9.39375C32.6625 9.39375 39.3938 16.125 39.3938 24.3938C39.3938 26.0625 39.1313 27.6563 38.6063 29.1563C38.2688 30.1313 38.7937 31.2 39.7687 31.5375C40.7437 31.875 41.8125 31.35 42.15 30.375C42.6 29.0625 42.9 27.675 43.0313 26.25H45C46.0313 26.25 46.875 25.4063 46.875 24.375C46.875 23.3437 46.0313 22.5 45 22.5Z" fill="#473B7F"/>
<path d="M57.5828 44.9969L51.6766 39.0719C50.2328 37.6281 48.1141 37.1219 46.1641 37.7781L41.8703 39.2031L25.7078 23.0406C24.9766 22.3094 23.7953 22.3094 23.0641 23.0406C22.3328 23.7719 22.3328 24.9531 23.0641 25.6844L39.2266 41.8469L37.8016 46.1406C37.1453 48.0906 37.6516 50.2094 39.1141 51.6531L45.0203 57.5594C45.3766 57.9156 45.8641 58.1031 46.3516 58.1031C46.5016 58.1031 46.6328 58.1031 46.7828 58.0469C47.4203 57.8969 47.9266 57.4281 48.1328 56.8094L50.3266 50.2469L56.8891 48.0531C57.5078 47.8469 57.9766 47.3406 58.1266 46.7031C58.2766 46.0656 58.0891 45.4094 57.6203 44.9406L57.5828 44.9969Z" fill="#9292DF"/>
</svg>
