<svg width="60" height="60" viewBox="0 0 60 60" fill="none" xmlns="http://www.w3.org/2000/svg">
<path d="M56.25 37.5H54.375C53.3437 37.5 52.5 38.3437 52.5 39.375C52.5 40.4063 53.3437 41.25 54.375 41.25H56.25C57.2813 41.25 58.125 40.4063 58.125 39.375C58.125 38.3437 57.2813 37.5 56.25 37.5Z" fill="#473B7F"/>
<path d="M52.5533 28.0299C52.8346 28.0299 53.0971 27.9736 53.3596 27.8424L55.1221 26.9986C56.0596 26.5486 56.4533 25.4236 56.0033 24.5049C55.5533 23.5674 54.4283 23.1736 53.5096 23.6236L51.7471 24.4674C50.8096 24.9174 50.4158 26.0424 50.8658 26.9611C51.1846 27.6361 51.8596 28.0299 52.5533 28.0299Z" fill="#473B7F"/>
<path d="M55.1221 51.7486L53.3596 50.9049C52.4221 50.4549 51.3158 50.8486 50.8658 51.7861C50.4158 52.7236 50.8096 53.8299 51.7471 54.2799L53.5096 55.1236C53.7721 55.2549 54.0533 55.3111 54.3158 55.3111C55.0096 55.3111 55.6846 54.9174 56.0033 54.2424C56.4533 53.3049 56.0596 52.1986 55.1221 51.7486Z" fill="#473B7F"/>
<path d="M7.5 39.375C7.5 38.3437 6.65625 37.5 5.625 37.5H3.75C2.71875 37.5 1.875 38.3437 1.875 39.375C1.875 40.4063 2.71875 41.25 3.75 41.25H5.625C6.65625 41.25 7.5 40.4063 7.5 39.375Z" fill="#473B7F"/>
<path d="M8.24707 24.4674L6.48457 23.6236C5.54707 23.1736 4.44082 23.5674 3.99082 24.5049C3.54082 25.4424 3.93457 26.5486 4.87207 26.9986L6.63457 27.8424C6.89707 27.9736 7.17832 28.0299 7.44082 28.0299C8.13457 28.0299 8.80957 27.6361 9.12832 26.9611C9.57832 26.0236 9.18457 24.9174 8.24707 24.4674Z" fill="#473B7F"/>
<path d="M6.63457 50.9049L4.87207 51.7486C3.93457 52.1986 3.54082 53.3236 3.99082 54.2424C4.30957 54.9174 4.98457 55.3111 5.67832 55.3111C5.95957 55.3111 6.22207 55.2549 6.48457 55.1236L8.24707 54.2799C9.18457 53.8299 9.57832 52.7049 9.12832 51.7861C8.67832 50.8486 7.55332 50.4549 6.63457 50.9049Z" fill="#473B7F"/>
<path d="M30 20.625C19.6687 20.625 11.25 29.0437 11.25 39.375C11.25 49.7063 19.6687 58.125 30 58.125C40.3313 58.125 48.75 49.7063 48.75 39.375C48.75 29.0437 40.3313 20.625 30 20.625ZM30 54.375C21.7313 54.375 15 47.6437 15 39.375C15 31.1063 21.7313 24.375 30 24.375C38.2687 24.375 45 31.1063 45 39.375C45 47.6437 38.2687 54.375 30 54.375Z" fill="#473B7F"/>
<path d="M28.3125 34.5H35.0625C36.0938 34.5 36.9375 33.6562 36.9375 32.625C36.9375 31.5937 36.0938 30.75 35.0625 30.75H31.875V29.25C31.875 28.2187 31.0312 27.375 30 27.375C28.9687 27.375 28.125 28.2187 28.125 29.25V30.7687C25.3125 30.8625 23.0625 33.1688 23.0625 36C23.0625 38.8313 25.425 41.25 28.3125 41.25H31.6875C32.5125 41.25 33.1875 41.925 33.1875 42.75C33.1875 43.575 32.5125 44.25 31.6875 44.25H24.9375C23.9062 44.25 23.0625 45.0937 23.0625 46.125C23.0625 47.1563 23.9062 48 24.9375 48H28.125V49.5C28.125 50.5312 28.9687 51.375 30 51.375C31.0312 51.375 31.875 50.5312 31.875 49.5V47.9812C34.6875 47.8875 36.9375 45.5812 36.9375 42.75C36.9375 39.9187 34.575 37.5 31.6875 37.5H28.3125C27.4875 37.5 26.8125 36.825 26.8125 36C26.8125 35.175 27.4875 34.5 28.3125 34.5Z" fill="#473B7F"/>
<path d="M21.5625 15H28.125V16.9688C28.7438 16.9125 29.3625 16.875 30 16.875C30.6375 16.875 31.2562 16.9125 31.875 16.9688V15H38.4375C43.6125 15 47.8125 12.675 47.8125 7.5V3.75C47.8125 2.71875 46.9688 1.875 45.9375 1.875H37.5C34.425 1.875 31.7063 3.39375 30 5.68125C28.2937 3.375 25.575 1.875 22.5 1.875H14.0625C13.0312 1.875 12.1875 2.71875 12.1875 3.75V5.625C12.1875 10.8 16.3875 15 21.5625 15Z" fill="#9292DF"/>
</svg>
