<svg width="350" height="46" viewBox="0 0 350 46" fill="none" xmlns="http://www.w3.org/2000/svg">
<path d="M39.3141 0.000167847C24.3671 0.000167847 16.5791 7.59411 16.5791 17.6562C16.5791 27.7177 24.3671 35.3125 39.3141 35.3125V34.1575V32.6029V2.65981V1.88053V0.000167847ZM37.4651 1.89209V2.65981V32.6029V33.4206C25.6701 32.8638 18.4282 26.9311 18.4282 17.6562C18.4282 8.38157 25.6701 2.44884 37.4651 1.89209Z" fill="white"/>
<path d="M11.3679 1.8813C3.87355 4.73132 0 10.576 0 17.657C0 24.7373 3.87355 30.5823 11.3679 33.4326V32.4119V31.5195V3.79353V3.62769V1.8813ZM9.98114 3.99688V31.3167C4.42014 28.5544 1.38679 23.7685 1.38679 17.657C1.38679 11.5451 4.42014 6.75919 9.98114 3.99688Z" fill="white"/>
<path d="M68.0635 30.4457C79.7698 30.4457 85.429 25.0765 85.429 17.6757C85.429 10.2741 79.7698 4.90492 68.0635 4.90492C56.3083 4.90492 50.6494 10.2741 50.6494 17.6757C50.6494 25.0765 56.3083 30.4457 68.0635 30.4457ZM68.0635 0.0196991C83.0102 0.0196991 90.7982 7.61336 90.7982 17.6757C90.7982 27.7372 83.0102 35.332 68.0635 35.332C53.1159 35.332 45.3279 27.7372 45.3279 17.6757C45.3279 7.61336 53.1159 0.0196991 68.0635 0.0196991Z" fill="white"/>
<path d="M100.421 21.8353C100.421 26.8181 103.952 30.4945 111.304 30.4945C117.738 30.4945 123.737 27.6884 125.333 25.2217V15.5957C121.511 14.3857 116.433 13.3221 112.03 13.3221C103.71 13.3221 100.421 16.95 100.421 21.8353ZM125.333 8.00089V0.600136L130.557 0.0196991V34.6061H125.912L125.575 30.1072L125.526 30.0593C123.059 32.4293 117.787 35.332 110.676 35.332C100.71 35.332 95.1001 29.672 95.1001 21.7873C95.1001 14.144 100.324 8.48487 111.546 8.48487C116.48 8.48487 121.511 9.64575 125.333 11.3388L125.382 11.29L125.333 8.00089Z" fill="white"/>
<path d="M134.105 9.20987H140.199L147.987 22.5126L152.438 30.0594L164.628 9.20987H170.772L154.372 36.4931C150.842 42.2975 147.166 44.0391 142.473 44.0391C140.345 44.0391 137.975 43.7006 135.362 43.1678V39.105C137.249 39.4435 139.62 39.9754 141.795 39.9754C144.94 39.9754 147.552 38.8631 149.39 35.7671L149.923 34.7994L134.105 9.20987Z" fill="white"/>
<path d="M173.1 28.4144C179.824 29.962 183.839 30.4945 188.966 30.4945C192.305 30.4945 201.398 30.204 201.398 26.9148C201.398 24.012 195.69 24.0608 189.499 24.012C181.662 23.8188 172.713 23.2872 172.713 16.5628C172.713 8.92005 183.258 8.48486 189.015 8.48486C193.708 8.48486 198.883 8.96885 204.495 9.93568L203.624 14.7732C197.625 13.7088 193.466 13.3701 188.096 13.3701C183.162 13.3701 178.034 13.7088 178.034 16.5628C178.034 19.4165 183.356 19.4165 189.354 19.4653C197.286 19.562 206.72 19.8528 206.72 26.8669C206.72 34.848 193.466 35.332 188.386 35.332C182.726 35.332 178.421 34.7993 172.084 33.2032L173.1 28.4144Z" fill="white"/>
<path d="M211.878 34.6064V9.40442L217.102 8.8237V34.6064H211.878ZM211.878 0.358532H217.102V6.16293H211.878V0.358532Z" fill="white"/>
<path d="M227.98 21.8355C227.98 26.8183 231.512 30.4947 238.865 30.4947C245.298 30.4947 251.296 27.6887 252.893 25.2219V15.5959C249.071 14.3859 243.992 13.3224 239.591 13.3224C231.27 13.3224 227.98 16.9503 227.98 21.8355ZM252.941 30.1075L252.893 30.0595C250.377 32.4295 245.346 35.3323 238.235 35.3323C228.271 35.3323 222.659 29.6723 222.659 21.7875C222.659 14.1442 227.884 8.48509 239.107 8.48509C244.04 8.48509 249.071 9.64597 252.893 11.3391L252.941 11.2903L253.086 9.45193L258.117 8.87149V32.0423C258.117 39.8302 252.312 45.4902 238.187 45.4902C231.077 45.4902 226.19 44.0871 224.497 43.4587L225.465 38.9111C226.867 39.3471 231.85 40.6527 238.139 40.6527C249.119 40.6527 252.893 37.0251 252.893 32.0423L252.941 30.1075Z" fill="white"/>
<path d="M293.305 34.6064V21.7877C293.305 16.9504 290.693 13.3225 282.422 13.3225C277.922 13.3225 273.521 14.4837 269.747 15.5961V34.6064H264.523V0.600529L269.747 0.0200882V8.00127L269.699 11.2904L269.747 11.3392C273.424 9.79082 277.777 8.48526 282.953 8.48526C294.031 8.48526 298.529 14.1441 298.529 21.7389V34.6064H293.305Z" fill="white"/>
<path d="M310.407 9.20999H318.195V13.5644H310.407V26.3832C310.407 29.6235 311.472 30.9299 314.18 30.9299C315.244 30.9299 316.599 30.7844 318.195 30.5424V34.6063C316.163 35.0415 314.325 35.332 312.728 35.332C307.989 35.332 305.182 33.1067 305.182 26.3832V13.5644H301.797V9.20999H305.182V2.77721L310.407 2.19677V9.20999Z" fill="white"/>
<path d="M337.549 8.482L335.189 4.7836L332.808 8.482L332.425 8.99306H337.931L337.549 8.482ZM329.597 13.585H326.43L333.615 2.42377H336.762L343.947 13.585H340.78L339.355 11.5227H331L329.597 13.585Z" fill="white"/>
<path d="M347.257 2.42406H350V13.585H347.257V2.42406Z" fill="white"/>
</svg>
