<svg xmlns="http://www.w3.org/2000/svg" width="205.108" height="82.606" viewBox="0 0 205.108 82.606">
  <g id="HATL_BLACK" data-name="HATL BLACK" transform="translate(102.554 41.303)">
    <g id="Group_1" data-name="Group 1" transform="translate(-102.554 -41.303)">
      <path id="Path_1" data-name="Path 1" d="M70.177,118.872,5,118.913c20.269-1.168,40.851-2.04,62.087-2.534A15.937,15.937,0,0,0,70.177,118.872Z" transform="translate(-5 -95.476)" fill="#ffc820" fill-rule="evenodd"/>
      <path id="Path_2" data-name="Path 2" d="M406.446,117.37a11.014,11.014,0,0,0-.244-2.942q2.146-.012,4.3-.011c36.3-.046,70.554,1.043,102.581,2.885Z" transform="translate(-307.978 -93.993)" fill="#ffc820" fill-rule="evenodd"/>
      <path id="Path_3" data-name="Path 3" d="M285.409,69.113a2.717,2.717,0,1,0,5.426,0c0-1.579-1.214-4.011-2.713-4.011S285.409,67.534,285.409,69.113Z" transform="translate(-216.758 -56.753)" fill="#ffc820"/>
      <path id="Path_4" data-name="Path 4" d="M292.713,54.03a9.083,9.083,0,0,1-9.022,8.421c-.217,0-.437-.008-.662-.026a9.067,9.067,0,0,1-8.23-7.36,16.39,16.39,0,0,0,2.116-1.244,6.788,6.788,0,0,0,13.546.046,6.649,6.649,0,0,0-5.943-7.253v2.972l3.185,3.55a.969.969,0,0,1,.24.7.976.976,0,0,1-1.012.917.987.987,0,0,1-.666-.316l-2.778-3.094-.575.643,1.031,1.153a.961.961,0,0,1-.072,1.37.952.952,0,0,1-1.362-.072l-.9-1-.9,1a.986.986,0,0,1-.666.316.965.965,0,0,1-.692-.251.943.943,0,0,1-.32-.666.97.97,0,0,1,.24-.7l3.311-3.687V46.636a6.153,6.153,0,0,0-1.244.366,14.942,14.942,0,0,0-3.7,2.511,18.317,18.317,0,0,1-4.962,3.25,10.486,10.486,0,0,1-3.082.7,12.164,12.164,0,0,1-2.005-.019c-.323-.03-.647-.08-.963-.141a8.876,8.876,0,0,1-3.782-1.773,9.806,9.806,0,0,1-3.607-7.721,16.479,16.479,0,0,1,2.435-8.262c1.808-2.934,4.2-4.547,6.746-4.547h.012a6.264,6.264,0,0,1,4.475,2.3,12.167,12.167,0,0,1,1.214,1.545,19.805,19.805,0,0,1,3.136,8.4,23.668,23.668,0,0,0-2.215,1.629,16.031,16.031,0,0,0-2.907-8.931,10.193,10.193,0,0,0-.886-1.1,4.278,4.278,0,0,0-2.82-1.579h-.008c-2.332,0-4.026,2.177-4.825,3.47a14.32,14.32,0,0,0-2.093,7.067,7.493,7.493,0,0,0,3.158,6.241,6.539,6.539,0,0,0,1.933.913,6.848,6.848,0,0,0,1.2.221,9.207,9.207,0,0,0,1.773,0,8.654,8.654,0,0,0,3.626-1.191,23.251,23.251,0,0,0,3.01-2.234,14.905,14.905,0,0,1,5.03-3.132,8.245,8.245,0,0,1,1.355-.285V43.2a.986.986,0,0,1,.072-.377.937.937,0,0,1,.205-.319.878.878,0,0,1,.19-.148,1.351,1.351,0,0,1,.129-.065.961.961,0,0,1,.373-.076.994.994,0,0,1,.377.076.688.688,0,0,1,.1.053.975.975,0,0,1,.213.16.952.952,0,0,1,.209.319.991.991,0,0,1,.072.377V44.33a8.957,8.957,0,0,1,8.2,9.7Z" transform="translate(-196.993 -31)" fill="#ffc820"/>
      <path id="Path_5" data-name="Path 5" d="M80.781,170.206v22.5H76.44v-9.6h-10.2v9.6H61.866v-22.5h4.372V179.3h10.2v-9.095Z" transform="translate(-47.944 -136.125)"/>
      <path id="Path_6" data-name="Path 6" d="M164.684,206.563a2.642,2.642,0,0,0,.571-.712,1.466,1.466,0,0,0,.221-.681v-1.636a9.4,9.4,0,0,0-3.326-.651,4.847,4.847,0,0,0-2.709.7,2.113,2.113,0,0,0-1.062,1.838,2.238,2.238,0,0,0,.35,1.191,2.5,2.5,0,0,0,1,.913,3.407,3.407,0,0,0,1.6.339,4.935,4.935,0,0,0,1.868-.369A4.459,4.459,0,0,0,164.684,206.563Zm-10.331-.8a4.474,4.474,0,0,1,.9-2.785,5.916,5.916,0,0,1,2.5-1.861,9.523,9.523,0,0,1,3.721-.674,14.443,14.443,0,0,1,2.123.16,7.31,7.31,0,0,1,1.868.506V200.2a3.039,3.039,0,0,0-.921-2.363A3.97,3.97,0,0,0,161.8,197a7.277,7.277,0,0,0-2.629.476,14.2,14.2,0,0,0-2.6,1.362l-1.332-2.755a12.152,12.152,0,0,1,3.345-1.632,12.4,12.4,0,0,1,3.626-.521,8.112,8.112,0,0,1,5.529,1.735,6.306,6.306,0,0,1,1.979,5.012v5.217a1.465,1.465,0,0,0,.236.936,1.158,1.158,0,0,0,.776.343v3.455c-.38.065-.723.114-1.031.16a3.292,3.292,0,0,1-.776.031,2.89,2.89,0,0,1-1.918-.556,2.193,2.193,0,0,1-.776-1.377l-.1-.856a7.526,7.526,0,0,1-2.724,2.154,7.679,7.679,0,0,1-3.3.761,6.227,6.227,0,0,1-2.964-.689,5.3,5.3,0,0,1-2.058-1.861,4.8,4.8,0,0,1-.746-2.615Z" transform="translate(-117.78 -154.037)"/>
      <path id="Path_7" data-name="Path 7" d="M238.781,210.923a12,12,0,0,1-4.071-.7,8.813,8.813,0,0,1-3.311-2.059l1.553-2.755a10.966,10.966,0,0,0,2.884,1.773,7.478,7.478,0,0,0,2.789.571,3.985,3.985,0,0,0,1.979-.426,1.392,1.392,0,0,0,.746-1.282,1.156,1.156,0,0,0-.411-.955,3.6,3.6,0,0,0-1.187-.563c-.518-.156-1.145-.339-1.887-.548a23.431,23.431,0,0,1-3.059-1.142,4.752,4.752,0,0,1-1.853-1.438,3.624,3.624,0,0,1-.636-2.2,4.694,4.694,0,0,1,.841-2.8,5.49,5.49,0,0,1,2.344-1.83,8.78,8.78,0,0,1,3.531-.658,10.124,10.124,0,0,1,3.36.555,7.961,7.961,0,0,1,2.884,1.792l-1.743,2.725a9.234,9.234,0,0,0-2.378-1.473,6.192,6.192,0,0,0-2.313-.461,4.9,4.9,0,0,0-1.252.156,2.069,2.069,0,0,0-.951.514,1.358,1.358,0,0,0-.365,1.012,1.252,1.252,0,0,0,.331.906,2.692,2.692,0,0,0,1.016.594q.679.251,1.663.559a28.53,28.53,0,0,1,3.36,1.138,5.221,5.221,0,0,1,2.074,1.45,3.661,3.661,0,0,1,.711,2.371,4.506,4.506,0,0,1-1.808,3.806,7.833,7.833,0,0,1-4.847,1.374Z" transform="translate(-175.971 -154.025)"/>
      <path id="Path_8" data-name="Path 8" d="M315.063,210.591l-4.848-7.1-2.283,2.2v4.905h-4.216v-16.7h4.216v7.641l6.716-7.39h4.5l-6.179,6.979,6.621,9.464h-4.532Z" transform="translate(-230.583 -154.013)"/>
      <path id="Path_9" data-name="Path 9" d="M375.94,201.056h8.683a4.88,4.88,0,0,0-.711-2.154,4.029,4.029,0,0,0-1.537-1.423,4.441,4.441,0,0,0-2.123-.51,4.207,4.207,0,0,0-2.074.51,4.163,4.163,0,0,0-1.522,1.423,4.818,4.818,0,0,0-.711,2.154Zm4.342,9.856a9.294,9.294,0,0,1-3.611-.673,8.14,8.14,0,0,1-4.5-4.528,8.552,8.552,0,0,1-.6-3.227,8.836,8.836,0,0,1,1.062-4.277,8.154,8.154,0,0,1,3.01-3.135,8.876,8.876,0,0,1,4.673-1.176,8.692,8.692,0,0,1,4.627,1.176,8.167,8.167,0,0,1,2.979,3.09,8.57,8.57,0,0,1,1.046,4.174c0,.274-.011.529-.03.769s-.042.445-.065.613h-12.8a4.48,4.48,0,0,0,.712,2.215,4.2,4.2,0,0,0,1.583,1.408,4.4,4.4,0,0,0,2.043.495,4.958,4.958,0,0,0,2.424-.616,3.247,3.247,0,0,0,1.537-1.663l3.611,1.016a6.63,6.63,0,0,1-1.678,2.249,8.108,8.108,0,0,1-2.629,1.537,9.852,9.852,0,0,1-3.39.555Z" transform="translate(-281.826 -154.014)"/>
      <path id="Path_10" data-name="Path 10" d="M456.323,167.625h4.247v17.832a2.346,2.346,0,0,0,.38,1.575,1.332,1.332,0,0,0,1.016.4,4.64,4.64,0,0,0,1.092-.126,3.886,3.886,0,0,0,.936-.35l.571,3.265a8.31,8.31,0,0,1-1.983.636,10.732,10.732,0,0,1-2.074.221,4.238,4.238,0,0,1-3.09-1.065,3.985,3.985,0,0,1-1.092-3V167.625Z" transform="translate(-345.828 -134.176)"/>
      <path id="Path_11" data-name="Path 11" d="M508.949,187.463a4.739,4.739,0,0,0,1.884-.373,4.114,4.114,0,0,0,1.473-1.042,4.979,4.979,0,0,0,.936-1.537,5.274,5.274,0,0,0,.331-1.895,5.61,5.61,0,0,0-.54-2.424,4.532,4.532,0,0,0-1.522-1.834,3.888,3.888,0,0,0-2.283-.685,3.775,3.775,0,0,0-1.758.434,5.394,5.394,0,0,0-1.488,1.134,6.023,6.023,0,0,0-1.062,1.6v3.885a4.513,4.513,0,0,0,.666,1.134,3.65,3.65,0,0,0,.982.856,5.966,5.966,0,0,0,1.187.544,3.852,3.852,0,0,0,1.187.2Zm1.2,3.611a6.678,6.678,0,0,1-3.39-.856,6.242,6.242,0,0,1-2.344-2.344v2.884h-3.706V167.625h4.216v9.632a6.882,6.882,0,0,1,2.359-2.344,6.936,6.936,0,0,1,6.32-.183,7.028,7.028,0,0,1,2.3,1.865,9.081,9.081,0,0,1,1.507,2.744,9.959,9.959,0,0,1,.54,3.276,9.094,9.094,0,0,1-.6,3.307,8.885,8.885,0,0,1-1.663,2.694,7.556,7.556,0,0,1-2.454,1.819,7.292,7.292,0,0,1-3.075.643Z" transform="translate(-379.349 -134.176)"/>
      <path id="Path_12" data-name="Path 12" d="M586.24,201.056h8.683a4.878,4.878,0,0,0-.712-2.154,4.031,4.031,0,0,0-1.537-1.423,4.443,4.443,0,0,0-2.123-.51,4.208,4.208,0,0,0-2.074.51,4.163,4.163,0,0,0-1.522,1.423,4.815,4.815,0,0,0-.712,2.154Zm4.342,9.856a9.3,9.3,0,0,1-3.611-.673,8.139,8.139,0,0,1-4.5-4.528,8.554,8.554,0,0,1-.6-3.227,8.833,8.833,0,0,1,1.062-4.277,8.153,8.153,0,0,1,3.01-3.135,8.875,8.875,0,0,1,4.673-1.176,8.691,8.691,0,0,1,4.627,1.176,8.17,8.17,0,0,1,2.979,3.09,8.573,8.573,0,0,1,1.046,4.174c0,.274-.012.529-.031.769s-.042.445-.065.613h-12.8a4.481,4.481,0,0,0,.711,2.215,4.2,4.2,0,0,0,1.583,1.408,4.4,4.4,0,0,0,2.043.495,4.959,4.959,0,0,0,2.424-.616,3.245,3.245,0,0,0,1.537-1.663l3.611,1.016a6.629,6.629,0,0,1-1.678,2.249,8.111,8.111,0,0,1-2.629,1.537,9.852,9.852,0,0,1-3.39.555Z" transform="translate(-440.64 -154.014)"/>
      <path id="Path_13" data-name="Path 13" d="M676.667,197.278a8.47,8.47,0,0,0-3.486.746,4.522,4.522,0,0,0-2.218,2.108v10.077h-4.216V193.761h3.9v3.391a7.417,7.417,0,0,1,2.264-2.694,5.547,5.547,0,0,1,2.9-1.077,2.672,2.672,0,0,0,.506.015.76.76,0,0,1,.35.046v3.836Z" transform="translate(-504.736 -153.626)"/>
      <path id="Path_14" data-name="Path 14" d="M724.414,207.517a3.939,3.939,0,0,0,1.347-.221,4.864,4.864,0,0,0,1.157-.6,4.565,4.565,0,0,0,.951-.906,3.624,3.624,0,0,0,.6-1.1v-3.942a4.815,4.815,0,0,0-1.031-1.716,5.016,5.016,0,0,0-1.522-1.13,4.037,4.037,0,0,0-1.758-.4,3.837,3.837,0,0,0-1.758.415,4.072,4.072,0,0,0-1.377,1.146,5.607,5.607,0,0,0-.887,1.652,5.773,5.773,0,0,0-.316,1.906,5.056,5.056,0,0,0,.365,1.906,5.319,5.319,0,0,0,.982,1.572,4.138,4.138,0,0,0,1.472,1.05A4.468,4.468,0,0,0,724.414,207.517Zm-2.679,11.08h-3.524v-3.181l5.32-.019a6.607,6.607,0,0,0,2.473-.46,3.95,3.95,0,0,0,1.807-1.431,8.228,8.228,0,0,0,.666-3.48v-2.093a5.379,5.379,0,0,1-2.3,2.2,6.858,6.858,0,0,1-3.185.776,6.773,6.773,0,0,1-3.025-.666,7.111,7.111,0,0,1-2.359-1.827,8.531,8.531,0,0,1-1.522-2.683,9.688,9.688,0,0,1-.54-3.238,9.954,9.954,0,0,1,.555-3.364,8.6,8.6,0,0,1,1.583-2.748,7.126,7.126,0,0,1,2.439-1.842,7.369,7.369,0,0,1,3.12-.65,6.561,6.561,0,0,1,3.39.856,7.246,7.246,0,0,1,2.409,2.314v-2.915h3.706v15.7a10.6,10.6,0,0,1-1.206,5.14,7.732,7.732,0,0,1-3.265,2.675,11.5,11.5,0,0,1-4.753.928" transform="translate(-541.589 -154.014)"/>
      <path id="Path_15" data-name="Path 15" d="M64.977,321.834l-1.764-4.521-1.82,4.521Zm-2.288-5.955h1.048l4,9.787H66.41L65.252,322.8H61.145L60,325.666H58.677Z" transform="translate(-45.536 -246.134)"/>
      <path id="Path_16" data-name="Path 16" d="M103.376,322.293v-2.068a2.226,2.226,0,0,0-.538-.841,2.845,2.845,0,0,0-.841-.607,1.973,1.973,0,0,0-.91-.234,2.054,2.054,0,0,0-.979.234,2.357,2.357,0,0,0-.744.607,2.748,2.748,0,0,0-.469.855,3.076,3.076,0,0,0-.165,1.006,2.727,2.727,0,0,0,.7,1.875,2.527,2.527,0,0,0,.786.579,2.337,2.337,0,0,0,.979.207,1.983,1.983,0,0,0,.675-.124,2.75,2.75,0,0,0,.675-.344,2.377,2.377,0,0,0,.538-.51A1.646,1.646,0,0,0,103.376,322.293Zm-5.9-1.062a4.16,4.16,0,0,1,.414-1.861,3.583,3.583,0,0,1,1.158-1.365,2.93,2.93,0,0,1,1.7-.51,2.765,2.765,0,0,1,1.558.455,3.412,3.412,0,0,1,1.075,1.1v-4.3h1.213v8.684a.547.547,0,0,0,.083.331.46.46,0,0,0,.3.11v.937a3.634,3.634,0,0,1-.538.055.92.92,0,0,1-.634-.248.747.747,0,0,1-.262-.551v-.607a3.1,3.1,0,0,1-1.144,1.089,3.016,3.016,0,0,1-1.489.4,3.281,3.281,0,0,1-1.379-.289,3.53,3.53,0,0,1-1.089-.827,3.834,3.834,0,0,1-.965-2.605Z" transform="translate(-74.836 -245.283)"/>
      <path id="Path_17" data-name="Path 17" d="M134.529,333.659l-2.826-7.2h1.268l2.261,6.038,2.261-6.038h1.185l-2.826,7.2Z" transform="translate(-100.683 -254.127)"/>
      <path id="Path_18" data-name="Path 18" d="M166.815,331.705a1.921,1.921,0,0,0,.262-.386.86.86,0,0,0,.1-.344v-.9a4.784,4.784,0,0,0-.9-.248,4.589,4.589,0,0,0-.923-.1,2.736,2.736,0,0,0-1.5.372,1.117,1.117,0,0,0-.565.992,1.4,1.4,0,0,0,.179.675,1.514,1.514,0,0,0,.551.524,1.85,1.85,0,0,0,.91.207,2.678,2.678,0,0,0,1.075-.221A2.4,2.4,0,0,0,166.815,331.705Zm-4.687-.51a1.874,1.874,0,0,1,.386-1.185,2.553,2.553,0,0,1,1.089-.786,4.284,4.284,0,0,1,1.6-.276,6.738,6.738,0,0,1,1.02.083,4.394,4.394,0,0,1,.951.221v-.524a1.7,1.7,0,0,0-.5-1.3,1.934,1.934,0,0,0-1.406-.483,3.049,3.049,0,0,0-1.144.221,6.065,6.065,0,0,0-1.144.606l-.441-.855a5.655,5.655,0,0,1,1.406-.717,4.355,4.355,0,0,1,1.461-.248,3,3,0,0,1,2.178.772,2.785,2.785,0,0,1,.8,2.123V331.9a.549.549,0,0,0,.083.331.461.461,0,0,0,.3.11v.937q-.179.027-.317.041a1.893,1.893,0,0,1-.207.014.848.848,0,0,1-.648-.234.886.886,0,0,1-.234-.5l-.028-.455a3.065,3.065,0,0,1-1.227.937,3.733,3.733,0,0,1-1.5.331,2.773,2.773,0,0,1-1.282-.289,2.325,2.325,0,0,1-.882-.8A2.1,2.1,0,0,1,162.128,331.2Z" transform="translate(-123.659 -253.745)"/>
      <path id="Path_19" data-name="Path 19" d="M201.856,333.277h-1.213v-4.025a3.019,3.019,0,0,0-.358-1.668,1.173,1.173,0,0,0-1.062-.538,2.2,2.2,0,0,0-.993.248,3.038,3.038,0,0,0-.868.675,2.5,2.5,0,0,0-.538.965v4.342h-1.213v-7.2h1.1v1.544a3.124,3.124,0,0,1,.744-.882,3.452,3.452,0,0,1,1.034-.579,3.579,3.579,0,0,1,1.213-.207,2.074,2.074,0,0,1,1.034.234,1.574,1.574,0,0,1,.661.634,2.654,2.654,0,0,1,.345.951,6.126,6.126,0,0,1,.11,1.2Z" transform="translate(-148.946 -253.745)"/>
      <path id="Path_20" data-name="Path 20" d="M230.518,333.414a3.457,3.457,0,0,1-2.647-1.116,3.778,3.778,0,0,1-1.02-2.633,3.85,3.85,0,0,1,.455-1.861,3.447,3.447,0,0,1,1.282-1.337,3.577,3.577,0,0,1,1.916-.51,3.457,3.457,0,0,1,1.847.483,2.919,2.919,0,0,1,1.185,1.268l-1.185.372a1.922,1.922,0,0,0-.772-.786,2.145,2.145,0,0,0-1.1-.29,2.242,2.242,0,0,0-1.213.345,2.45,2.45,0,0,0-.854.951,2.847,2.847,0,0,0-.317,1.365,2.982,2.982,0,0,0,.317,1.378,2.673,2.673,0,0,0,.868.965,2.18,2.18,0,0,0,1.213.358,2.2,2.2,0,0,0,.813-.151,2.3,2.3,0,0,0,.689-.4,1.379,1.379,0,0,0,.413-.565l1.185.358a2.652,2.652,0,0,1-.675.937,3.291,3.291,0,0,1-1.062.634A3.681,3.681,0,0,1,230.518,333.414Z" transform="translate(-172.537 -253.745)"/>
      <path id="Path_21" data-name="Path 21" d="M258.992,329.252H263.9a2.641,2.641,0,0,0-.4-1.241,2.491,2.491,0,0,0-.882-.841,2.37,2.37,0,0,0-1.185-.3,2.343,2.343,0,0,0-1.172.3,2.491,2.491,0,0,0-.882.841A2.739,2.739,0,0,0,258.992,329.252Zm2.426,4.163a3.742,3.742,0,0,1-1.489-.289,3.823,3.823,0,0,1-1.158-.813,3.778,3.778,0,0,1-1.02-2.633,3.758,3.758,0,0,1,.469-1.861,3.574,3.574,0,0,1,3.212-1.861,3.368,3.368,0,0,1,1.889.524,3.477,3.477,0,0,1,1.254,1.351,3.659,3.659,0,0,1,.455,1.792q0,.138-.014.276a1.024,1.024,0,0,1-.014.193h-5.969a2.833,2.833,0,0,0,.386,1.254,2.616,2.616,0,0,0,.882.855,2.32,2.32,0,0,0,1.158.3,2.46,2.46,0,0,0,1.24-.331,1.763,1.763,0,0,0,.813-.868l1.048.289a2.732,2.732,0,0,1-.7.937,3.294,3.294,0,0,1-1.089.648A3.793,3.793,0,0,1,261.419,333.414Z" transform="translate(-195.872 -253.745)"/>
      <path id="Path_22" data-name="Path 22" d="M296.973,322.293v-2.068a2.226,2.226,0,0,0-.538-.841,2.846,2.846,0,0,0-.841-.607,1.973,1.973,0,0,0-.91-.234,2.054,2.054,0,0,0-.979.234,2.357,2.357,0,0,0-.744.607,2.746,2.746,0,0,0-.469.855,3.077,3.077,0,0,0-.165,1.006,2.727,2.727,0,0,0,.7,1.875,2.53,2.53,0,0,0,.786.579,2.336,2.336,0,0,0,.978.207,1.983,1.983,0,0,0,.675-.124,2.749,2.749,0,0,0,.676-.344,2.377,2.377,0,0,0,.538-.51A1.646,1.646,0,0,0,296.973,322.293Zm-5.9-1.062a4.16,4.16,0,0,1,.414-1.861,3.584,3.584,0,0,1,1.158-1.365,2.93,2.93,0,0,1,1.7-.51,2.765,2.765,0,0,1,1.558.455,3.411,3.411,0,0,1,1.075,1.1v-4.3h1.213v8.684a.548.548,0,0,0,.083.331.46.46,0,0,0,.3.11v.937a3.633,3.633,0,0,1-.538.055.919.919,0,0,1-.634-.248.746.746,0,0,1-.262-.551v-.607a3.1,3.1,0,0,1-1.144,1.089,3.016,3.016,0,0,1-1.489.4,3.279,3.279,0,0,1-1.378-.289,3.527,3.527,0,0,1-1.089-.827,3.833,3.833,0,0,1-.965-2.605Z" transform="translate(-221.036 -245.283)"/>
      <path id="Path_23" data-name="Path 23" d="M345.888,316.982h-3.377v8.684H341.27v-8.684h-3.377v-1.1h7.995Z" transform="translate(-256.393 -246.134)"/>
      <path id="Path_24" data-name="Path 24" d="M368.52,329.252h4.907a2.644,2.644,0,0,0-.4-1.241,2.493,2.493,0,0,0-.882-.841,2.369,2.369,0,0,0-1.185-.3,2.344,2.344,0,0,0-1.172.3,2.493,2.493,0,0,0-.882.841A2.737,2.737,0,0,0,368.52,329.252Zm2.426,4.163a3.741,3.741,0,0,1-1.489-.289,3.819,3.819,0,0,1-1.158-.813,3.776,3.776,0,0,1-1.02-2.633,3.755,3.755,0,0,1,.469-1.861,3.573,3.573,0,0,1,3.212-1.861,3.367,3.367,0,0,1,1.889.524,3.477,3.477,0,0,1,1.254,1.351,3.66,3.66,0,0,1,.455,1.792,2.744,2.744,0,0,1-.014.276,1.049,1.049,0,0,1-.014.193h-5.969a2.836,2.836,0,0,0,.386,1.254,2.614,2.614,0,0,0,.882.855,2.32,2.32,0,0,0,1.158.3,2.459,2.459,0,0,0,1.241-.331,1.764,1.764,0,0,0,.813-.868l1.048.289a2.736,2.736,0,0,1-.7.937,3.3,3.3,0,0,1-1.089.648A3.793,3.793,0,0,1,370.946,333.414Z" transform="translate(-278.584 -253.745)"/>
      <path id="Path_25" data-name="Path 25" d="M404.211,333.414a3.457,3.457,0,0,1-2.647-1.116,3.779,3.779,0,0,1-1.02-2.633A3.85,3.85,0,0,1,401,327.8a3.448,3.448,0,0,1,1.282-1.337,3.577,3.577,0,0,1,1.916-.51,3.457,3.457,0,0,1,1.847.483,2.919,2.919,0,0,1,1.185,1.268l-1.185.372a1.923,1.923,0,0,0-.772-.786,2.145,2.145,0,0,0-1.1-.29,2.243,2.243,0,0,0-1.213.345,2.45,2.45,0,0,0-.854.951,2.846,2.846,0,0,0-.317,1.365,2.981,2.981,0,0,0,.317,1.378,2.672,2.672,0,0,0,.868.965,2.18,2.18,0,0,0,1.213.358,2.2,2.2,0,0,0,.813-.151,2.3,2.3,0,0,0,.689-.4,1.378,1.378,0,0,0,.413-.565l1.186.358a2.656,2.656,0,0,1-.675.937,3.291,3.291,0,0,1-1.062.634A3.68,3.68,0,0,1,404.211,333.414Z" transform="translate(-303.705 -253.745)"/>
      <path id="Path_26" data-name="Path 26" d="M439.935,324.816h-1.213v-4.025a2.816,2.816,0,0,0-.4-1.654,1.279,1.279,0,0,0-1.116-.551,2.069,2.069,0,0,0-.951.248,2.757,2.757,0,0,0-.827.675,2.59,2.59,0,0,0-.524.965v4.342h-1.213V314.753H434.9v4.411a3.2,3.2,0,0,1,1.158-1.213,3.015,3.015,0,0,1,1.6-.455,2.219,2.219,0,0,1,1.075.234,1.736,1.736,0,0,1,.7.634,2.816,2.816,0,0,1,.372.965,5.271,5.271,0,0,1,.124,1.185Z" transform="translate(-328.737 -245.283)"/>
      <path id="Path_27" data-name="Path 27" d="M473.145,333.277h-1.213v-4.025a3.017,3.017,0,0,0-.358-1.668,1.172,1.172,0,0,0-1.061-.538,2.2,2.2,0,0,0-.993.248,3.036,3.036,0,0,0-.868.675,2.5,2.5,0,0,0-.537.965v4.342H466.9v-7.2H468v1.544a3.124,3.124,0,0,1,.744-.882,3.451,3.451,0,0,1,1.034-.579,3.578,3.578,0,0,1,1.213-.207,2.073,2.073,0,0,1,1.034.234,1.574,1.574,0,0,1,.662.634,2.656,2.656,0,0,1,.345.951,6.127,6.127,0,0,1,.11,1.2Z" transform="translate(-353.817 -253.745)"/>
      <path id="Path_28" data-name="Path 28" d="M499.381,329.706a2.869,2.869,0,0,0,.317,1.351,2.675,2.675,0,0,0,.868.965,2.175,2.175,0,0,0,1.2.344,2.114,2.114,0,0,0,1.2-.358,2.517,2.517,0,0,0,.868-.965,2.854,2.854,0,0,0,.331-1.365,2.775,2.775,0,0,0-.331-1.351,2.517,2.517,0,0,0-.868-.965,2.114,2.114,0,0,0-1.2-.358,2.059,2.059,0,0,0-1.2.372,2.676,2.676,0,0,0-.868.965A2.9,2.9,0,0,0,499.381,329.706Zm2.385,3.708a3.45,3.45,0,0,1-2.619-1.1,3.753,3.753,0,0,1-.744-1.2,4.015,4.015,0,0,1,0-2.853,3.6,3.6,0,0,1,.744-1.185,3.376,3.376,0,0,1,1.144-.813,3.56,3.56,0,0,1,1.475-.3,3.5,3.5,0,0,1,1.475.3,3.372,3.372,0,0,1,1.144.813,3.489,3.489,0,0,1,.758,1.185,4.015,4.015,0,0,1,0,2.853,3.759,3.759,0,0,1-.744,1.2,3.511,3.511,0,0,1-2.633,1.1Z" transform="translate(-377.408 -253.745)"/>
      <path id="Path_29" data-name="Path 29" d="M533.928,314.753h1.213v8.2q0,.593.166.731a.6.6,0,0,0,.4.138,2.672,2.672,0,0,0,.551-.055,4.245,4.245,0,0,0,.441-.138l.193.993a3.954,3.954,0,0,1-.716.207,3.785,3.785,0,0,1-.731.082,1.539,1.539,0,0,1-1.117-.4,1.509,1.509,0,0,1-.4-1.117Z" transform="translate(-404.434 -245.283)"/>
      <path id="Path_30" data-name="Path 30" d="M549.2,329.706a2.872,2.872,0,0,0,.317,1.351,2.677,2.677,0,0,0,.869.965,2.175,2.175,0,0,0,1.2.344,2.114,2.114,0,0,0,1.2-.358,2.518,2.518,0,0,0,.868-.965,2.854,2.854,0,0,0,.331-1.365,2.775,2.775,0,0,0-.331-1.351,2.518,2.518,0,0,0-.868-.965,2.114,2.114,0,0,0-1.2-.358,2.058,2.058,0,0,0-1.2.372,2.678,2.678,0,0,0-.869.965A2.9,2.9,0,0,0,549.2,329.706Zm2.385,3.708a3.45,3.45,0,0,1-2.619-1.1,3.756,3.756,0,0,1-.744-1.2,4.014,4.014,0,0,1,0-2.853,3.6,3.6,0,0,1,.744-1.185,3.377,3.377,0,0,1,1.144-.813,3.561,3.561,0,0,1,1.475-.3,3.5,3.5,0,0,1,1.475.3,3.378,3.378,0,0,1,1.144.813,3.494,3.494,0,0,1,.758,1.185,4.016,4.016,0,0,1,0,2.853,3.756,3.756,0,0,1-.744,1.2,3.51,3.51,0,0,1-2.633,1.1Z" transform="translate(-415.027 -253.745)"/>
      <path id="Path_31" data-name="Path 31" d="M585.467,332.367a2.053,2.053,0,0,0,.744-.138,2.867,2.867,0,0,0,.662-.358,2.494,2.494,0,0,0,.51-.524,1.643,1.643,0,0,0,.276-.593v-2.068a2.59,2.59,0,0,0-.551-.868,2.534,2.534,0,0,0-.813-.593,2.127,2.127,0,0,0-.938-.221,2.082,2.082,0,0,0-.992.234,2.3,2.3,0,0,0-.731.634,2.935,2.935,0,0,0-.469.868,3,3,0,0,0-.165.979,2.717,2.717,0,0,0,.193,1.02,2.941,2.941,0,0,0,.524.841,2.332,2.332,0,0,0,.786.579A2.3,2.3,0,0,0,585.467,332.367Zm-.372.992a3.155,3.155,0,0,1-1.351-.289,3.355,3.355,0,0,1-1.048-.813,4.022,4.022,0,0,1-.689-1.185,4.1,4.1,0,0,1-.234-1.379,4.346,4.346,0,0,1,.234-1.433,3.8,3.8,0,0,1,.689-1.185,3.247,3.247,0,0,1,1.061-.813,2.978,2.978,0,0,1,1.351-.3,2.741,2.741,0,0,1,1.558.441,3.956,3.956,0,0,1,1.13,1.117v-1.434h1.075v7.113a2.914,2.914,0,0,1-.5,1.723,2.981,2.981,0,0,1-1.323,1.062,4.454,4.454,0,0,1-1.847.372,4.071,4.071,0,0,1-1.985-.427,3.776,3.776,0,0,1-1.282-1.158l.7-.62a2.687,2.687,0,0,0,1.1.951,3.453,3.453,0,0,0,1.461.317,2.926,2.926,0,0,0,1.213-.248,1.948,1.948,0,0,0,.9-.731,2.126,2.126,0,0,0,.344-1.241v-1.268a2.881,2.881,0,0,1-1.1,1.048A2.946,2.946,0,0,1,585.1,333.359Z" transform="translate(-440.565 -253.745)"/>
      <path id="Path_32" data-name="Path 32" d="M618.765,316.269v-1.516h1.213v1.516Zm0,8.546v-7.2h1.213v7.2Z" transform="translate(-468.501 -245.283)"/>
      <path id="Path_33" data-name="Path 33" d="M631.011,329.252h4.907a2.644,2.644,0,0,0-.4-1.241,2.491,2.491,0,0,0-.882-.841,2.369,2.369,0,0,0-1.185-.3,2.343,2.343,0,0,0-1.172.3,2.493,2.493,0,0,0-.882.841A2.74,2.74,0,0,0,631.011,329.252Zm2.426,4.163a3.74,3.74,0,0,1-1.488-.289,3.819,3.819,0,0,1-1.158-.813,3.778,3.778,0,0,1-1.02-2.633,3.757,3.757,0,0,1,.469-1.861,3.574,3.574,0,0,1,3.212-1.861,3.366,3.366,0,0,1,1.888.524,3.476,3.476,0,0,1,1.254,1.351,3.66,3.66,0,0,1,.455,1.792q0,.138-.014.276a1.023,1.023,0,0,1-.014.193h-5.968a2.834,2.834,0,0,0,.386,1.254,2.617,2.617,0,0,0,.882.855,2.319,2.319,0,0,0,1.158.3,2.461,2.461,0,0,0,1.241-.331,1.762,1.762,0,0,0,.813-.868l1.048.289a2.735,2.735,0,0,1-.7.937,3.3,3.3,0,0,1-1.089.648A3.793,3.793,0,0,1,633.438,333.414Z" transform="translate(-476.812 -253.745)"/>
      <path id="Path_34" data-name="Path 34" d="M665.731,333.414a4.828,4.828,0,0,1-1.682-.289,3.665,3.665,0,0,1-1.351-.9l.469-.855a4.06,4.06,0,0,0,1.241.827,3.39,3.39,0,0,0,1.268.248,2.37,2.37,0,0,0,1.213-.276.93.93,0,0,0,.469-.841.7.7,0,0,0-.248-.593,1.853,1.853,0,0,0-.675-.317q-.441-.138-1.047-.3a8.322,8.322,0,0,1-1.255-.469,1.973,1.973,0,0,1-.772-.62,1.588,1.588,0,0,1-.262-.937,1.849,1.849,0,0,1,.359-1.158,2.205,2.205,0,0,1,.979-.731,3.908,3.908,0,0,1,1.434-.248,4.02,4.02,0,0,1,1.448.248,3.059,3.059,0,0,1,1.116.731l-.551.841a2.736,2.736,0,0,0-.938-.648,2.851,2.851,0,0,0-1.144-.221,2.808,2.808,0,0,0-.731.1,1.2,1.2,0,0,0-.593.317.829.829,0,0,0-.234.634.811.811,0,0,0,.179.551,1.565,1.565,0,0,0,.551.331q.372.138.9.3.813.234,1.406.469a2.369,2.369,0,0,1,.937.606,1.5,1.5,0,0,1,.331,1.034,1.887,1.887,0,0,1-.772,1.6A3.374,3.374,0,0,1,665.731,333.414Z" transform="translate(-501.678 -253.745)"/>
      <path id="Path_35" data-name="Path 35" d="M707.527,325.666v-9.787h1.241v8.684h5.459v1.1Z" transform="translate(-535.532 -246.134)"/>
      <path id="Path_36" data-name="Path 36" d="M740.725,325.9q-.152.069-.414.179a3.951,3.951,0,0,1-.607.193,3.127,3.127,0,0,1-.73.082,2.134,2.134,0,0,1-.813-.152,1.36,1.36,0,0,1-.593-.5,1.554,1.554,0,0,1-.221-.855v-4.838h-.979v-.951h.979v-2.4h1.213v2.4h1.613v.951h-1.613v4.466a.784.784,0,0,0,.262.579.882.882,0,0,0,.551.179,1.73,1.73,0,0,0,.662-.124,4.224,4.224,0,0,0,.4-.179Z" transform="translate(-557.313 -246.729)"/>
      <path id="Path_37" data-name="Path 37" d="M762.409,322.293v-2.068a2.228,2.228,0,0,0-.537-.841,2.847,2.847,0,0,0-.841-.607,1.973,1.973,0,0,0-.91-.234,2.054,2.054,0,0,0-.979.234,2.352,2.352,0,0,0-.744.607,2.751,2.751,0,0,0-.469.855,3.084,3.084,0,0,0-.165,1.006,2.729,2.729,0,0,0,.7,1.875,2.527,2.527,0,0,0,.786.579,2.337,2.337,0,0,0,.979.207,1.986,1.986,0,0,0,.676-.124,2.759,2.759,0,0,0,.676-.344,2.385,2.385,0,0,0,.537-.51A1.645,1.645,0,0,0,762.409,322.293Zm-5.9-1.062a4.164,4.164,0,0,1,.413-1.861,3.583,3.583,0,0,1,1.158-1.365,2.929,2.929,0,0,1,1.7-.51,2.764,2.764,0,0,1,1.557.455,3.41,3.41,0,0,1,1.075,1.1v-4.3h1.213v8.684a.55.55,0,0,0,.082.331.461.461,0,0,0,.3.11v.937a3.63,3.63,0,0,1-.537.055.92.92,0,0,1-.634-.248.746.746,0,0,1-.262-.551v-.607a3.1,3.1,0,0,1-1.144,1.089,3.014,3.014,0,0,1-1.489.4,3.281,3.281,0,0,1-1.379-.289,3.533,3.533,0,0,1-1.089-.827,3.835,3.835,0,0,1-.965-2.605Z" transform="translate(-572.522 -245.283)"/>
    </g>
  </g>
</svg>
