<svg width="230" height="81" viewBox="0 0 230 81" fill="none" xmlns="http://www.w3.org/2000/svg">
<path d="M50.1908 4.29993e-07L43.1855 7.00525L50.1564 13.9761L57.1616 6.97083L50.1908 4.29993e-07Z" fill="white"/>
<path d="M59.0638 8.77527L52.0586 15.7805L59.0294 22.7513L66.0347 15.7461L59.0638 8.77527Z" fill="white"/>
<path d="M50.1517 17.4468L43.1465 24.452L50.1173 31.4228L57.1226 24.4176L50.1517 17.4468Z" fill="white"/>
<path d="M41.4401 22.7925L48.4453 15.7872L41.4745 8.81641L34.4693 15.8216L41.4401 22.7925Z" fill="white"/>
<path d="M121.085 27.4005H114.961L105.183 40.8351H96.6414V27.4005H91.1582V59.3892H96.6414V45.9547H105.137L114.915 59.3892H121.678L109.752 42.9854L121.085 27.4005Z" fill="white"/>
<path d="M224.517 27.4005V40.8351H203.79V27.4005H198.307V59.3892H203.79V45.9547H224.517V59.3892H230V27.4005H224.517Z" fill="white"/>
<path d="M84.9474 37.3046L75.2122 27.5694V27.495H63.0976V27.5895L63.0089 27.5007L53.205 37.3046L53.2164 37.3161H53.1992V59.3892H58.6824V48.8781H79.533V59.3892H85.0162V37.3161H84.936L84.9474 37.3046ZM58.6824 43.3949V39.5781L65.2852 32.9753H72.8643L79.533 39.644V43.3949H58.6824Z" fill="white"/>
<path d="M149.028 27.412L149.008 27.432V27.4062H128.891V27.4263L128.877 27.412L123.084 33.2044L123.116 33.2359H123.004V53.5539H123.118L123.084 53.5882L128.877 59.3807L128.891 59.3664V59.3864H149.008V59.3606L149.028 59.3807L154.821 53.5882L154.786 53.5539H154.821V33.2359H154.789L154.821 33.2044L149.028 27.412ZM146.749 53.906H131.153L128.484 51.2375V35.5552L131.153 32.8866H146.749L149.335 35.4721V51.3148L146.749 53.906Z" fill="white"/>
<path d="M191.91 40.0964H166.261V35.4664L168.843 32.8866H191.564V27.4005H166.607V27.4377L166.57 27.4005L160.777 33.1958L160.789 33.2044H160.777V40.0964V45.5796H186.427V51.3262L183.847 53.906H160.777V59.3892H186.08V59.3549L186.118 59.3892L191.91 53.5968L191.899 53.5853H191.91V44.5946V40.0964Z" fill="white"/>
<path d="M47.2357 37.3046L37.5005 27.5665V27.4921H30.9521V27.5866L30.8633 27.4978L23.7652 34.5988L16.733 27.5665V27.4921H10.1875V27.5866L10.0987 27.4978L0.291929 37.3046L0.306242 37.316H0.289062V59.3892H5.77228V39.578L12.375 32.9753H14.3879L21.0566 39.6439V59.3892H26.5398V39.578L33.1425 32.9753H35.1525L41.8212 39.6439V59.3892H47.3044V37.316H47.2242L47.2357 37.3046Z" fill="white"/>
<path d="M0 67.0228H2.21619L1.17968 69.5798H1.03651L0 67.0228ZM0.355046 70.5046H1.84683V77.6113H0.355046V70.5046Z" fill="white"/>
<path d="M4.40625 70.5046H5.89803V73.3622H9.59167V70.5046H11.0835V77.6113H9.59167V74.7538H5.89803V77.6113H4.40625V70.5046Z" fill="white"/>
<path d="M17.2942 70.5046C18.0701 70.5046 18.6829 70.6678 19.1267 70.9943C19.5734 71.3207 19.7938 71.7731 19.7938 72.3515C19.7938 72.7122 19.7051 73.0243 19.5304 73.2906C19.3558 73.5569 19.1009 73.7659 18.7688 73.9148V73.9721C19.1868 74.1238 19.5018 74.3443 19.7223 74.6335C19.9399 74.9227 20.0487 75.272 20.0487 75.6786C20.0487 76.2856 19.8139 76.7581 19.3443 77.0988C18.8747 77.4395 18.2248 77.6113 17.3915 77.6113H13.6406V70.5046H17.2942ZM17.9499 73.2248C18.1761 73.0587 18.2906 72.8382 18.2906 72.5633C18.2906 72.2885 18.1847 72.068 17.9699 71.9019C17.758 71.7359 17.466 71.6528 17.0966 71.6528H15.1066V73.471H17.0394C17.4173 73.4739 17.7208 73.3908 17.9499 73.2248ZM18.199 76.2112C18.4223 76.0451 18.534 75.8161 18.534 75.5211C18.534 75.2377 18.4195 75.0143 18.1933 74.854C17.9671 74.6936 17.6492 74.6135 17.2398 74.6135H15.1066V76.4603H17.2655C17.6635 76.4603 17.9756 76.3773 18.199 76.2112Z" fill="white"/>
<path d="M23.0147 77.2763C22.4305 76.9585 21.9781 76.5204 21.6517 75.9621C21.3253 75.4037 21.1621 74.7767 21.1621 74.0866C21.1621 73.3851 21.3339 72.7523 21.6746 72.1882C22.0154 71.6242 22.4792 71.1803 23.0662 70.8511C23.6532 70.5246 24.2974 70.3615 24.9989 70.3615C25.689 70.3615 26.3189 70.5189 26.883 70.8367C27.447 71.1546 27.8909 71.5898 28.2115 72.1453C28.5322 72.7008 28.6954 73.3164 28.6954 74.0007C28.6954 74.1324 28.6868 74.3128 28.6668 74.5419H22.6424C22.7283 75.0916 22.9917 75.5526 23.4384 75.9277C23.8851 76.3028 24.432 76.4889 25.0877 76.4889C25.4943 76.4889 25.8722 76.4001 26.2187 76.2197C26.5651 76.0394 26.8142 75.7988 26.966 75.4953H28.4435C28.349 75.9134 28.1428 76.2913 27.825 76.6321C27.5072 76.9728 27.1034 77.2448 26.6167 77.4481C26.1299 77.6514 25.5945 77.7545 25.019 77.7545C24.263 77.7516 23.5988 77.5941 23.0147 77.2763ZM26.4048 72.1109C26.0068 71.8074 25.5344 71.6557 24.9846 71.6557C24.4263 71.6557 23.9338 71.8103 23.5071 72.1167C23.0805 72.4259 22.8056 72.8296 22.6825 73.3307H27.2008C27.0691 72.821 26.8028 72.4144 26.4048 72.1109Z" fill="white"/>
<path d="M31.7571 77.2706C31.1845 76.947 30.7349 76.5089 30.4056 75.9477C30.0792 75.3894 29.916 74.7595 29.916 74.058C29.916 73.3679 30.0821 72.738 30.4142 72.1739C30.7464 71.6099 31.2016 71.166 31.7772 70.8453C32.3555 70.5247 32.994 70.3615 33.6956 70.3615C34.3312 70.3615 34.9039 70.4846 35.4164 70.7308C35.9289 70.9771 36.3441 71.3207 36.6677 71.7616C36.9883 72.2026 37.1888 72.7065 37.2632 73.2763H35.7858C35.6626 72.8038 35.4164 72.4259 35.047 72.1453C34.6777 71.8647 34.2281 71.7272 33.6956 71.7272C33.2603 71.7272 32.8681 71.8303 32.5245 72.0336C32.178 72.2369 31.906 72.5175 31.7084 72.8726C31.5109 73.2276 31.4106 73.6227 31.4106 74.058C31.4106 74.4932 31.5109 74.8883 31.7084 75.2462C31.906 75.6013 32.1809 75.8819 32.5245 76.0852C32.8709 76.2885 33.2603 76.3915 33.6956 76.3915C34.2253 76.3915 34.6777 76.2484 35.0528 75.9649C35.4279 75.6815 35.6712 75.3006 35.7858 74.8282H37.2632C37.1773 75.398 36.9712 75.9048 36.6448 76.3486C36.3183 76.7953 35.8974 77.1389 35.3878 77.3851C34.8752 77.6313 34.3112 77.7545 33.6956 77.7545C32.9769 77.7516 32.3298 77.5913 31.7571 77.2706Z" fill="white"/>
<path d="M40.8446 71.8962H38.0156V70.5046H45.1653V71.8962H42.3363V77.6085H40.8446V71.8962Z" fill="white"/>
<path d="M46.8262 70.5046H48.3179V75.65L52.1548 70.5046H53.7038V77.6113H52.212V72.466L48.3752 77.6113H46.8262V70.5046Z" fill="white"/>
<path d="M62.4885 77.6113H56.2637V70.5046H57.7555V76.2742H61.4233V70.5046H62.9151V76.2742H63.923V79.2434H62.4885V77.6113Z" fill="white"/>
<path d="M65.3184 67.0228H67.5345L66.498 69.5798H66.3549L65.3184 67.0228ZM65.6734 70.5046H67.1652V77.6113H65.6734V70.5046Z" fill="white"/>
<path d="M69.7207 70.5046H71.2125V75.6499L75.0493 70.5046H76.5983V77.6113H75.1066V72.466L71.2698 77.6113H69.7207V70.5046ZM71.7307 69.2906C71.3184 69.0787 71.0006 68.7838 70.7773 68.4087C70.5539 68.0336 70.4423 67.6098 70.4423 67.1374V67.0228H71.7078V67.1231C71.7078 67.5211 71.8395 67.8417 72.1058 68.0822C72.3721 68.3228 72.7214 68.4459 73.1567 68.4459C73.6005 68.4459 73.9584 68.3256 74.2218 68.0822C74.4881 67.8417 74.6198 67.5211 74.6198 67.1231V67.0228H75.8854V67.1374C75.8854 67.6127 75.7709 68.0364 75.5447 68.4087C75.3185 68.7838 74.9978 69.0758 74.5854 69.2906C74.1731 69.5053 73.6978 69.6113 73.1567 69.6113C72.6155 69.6113 72.1431 69.5025 71.7307 69.2906Z" fill="white"/>
<path d="M79.1582 70.5046H80.65V73.3622H84.3436V70.5046H85.8354V77.6113H84.3436V74.7538H80.65V77.6113H79.1582V70.5046Z" fill="white"/>
<path d="M89.582 77.2763C88.9979 76.9585 88.5455 76.5204 88.2162 75.9621C87.8869 75.4037 87.7266 74.7767 87.7266 74.0866C87.7266 73.3851 87.8984 72.7523 88.2391 72.1882C88.5798 71.6242 89.0437 71.1803 89.6307 70.8511C90.2176 70.5246 90.8619 70.3615 91.5634 70.3615C92.2534 70.3615 92.8834 70.5189 93.4474 70.8367C94.0115 71.1546 94.4553 71.5898 94.776 72.1453C95.0967 72.7008 95.2599 73.3164 95.2599 74.0007C95.2599 74.1324 95.2513 74.3128 95.2313 74.5419H89.2069C89.2928 75.0916 89.5562 75.5526 90.0029 75.9277C90.4467 76.3028 90.9965 76.4889 91.6521 76.4889C92.0587 76.4889 92.4367 76.4001 92.7832 76.2197C93.1296 76.0394 93.3787 75.7988 93.5305 75.4953H95.0079C94.9134 75.9134 94.7073 76.2913 94.3895 76.6321C94.0716 76.9728 93.6679 77.2448 93.1811 77.4481C92.6944 77.6514 92.159 77.7545 91.5834 77.7545C90.8304 77.7516 90.1661 77.5941 89.582 77.2763ZM92.9721 72.1109C92.5741 71.8074 92.1017 71.6557 91.5519 71.6557C90.9936 71.6557 90.5011 71.8103 90.0745 72.1167C89.6478 72.4259 89.373 72.8296 89.2498 73.3307H93.7681C93.6364 72.821 93.3701 72.4144 92.9721 72.1109Z" fill="white"/>
<path d="M102.137 73.9864L99.6234 70.5047H101.316L103.349 73.3622H104.528V67.5211H106.02V73.3622H107.257L109.29 70.5047H110.953L108.437 74.0007L111.008 77.6114H109.218L107.2 74.7395H106.02V77.6114H104.528V74.7395H103.363L101.344 77.6114H99.5547L102.137 73.9864Z" fill="white"/>
<path d="M112.484 70.5046H113.976V75.65L117.813 70.5046H119.362V77.6113H117.87V72.466L114.033 77.6113H112.484V70.5046Z" fill="white"/>
<path d="M125.573 70.5046C126.349 70.5046 126.962 70.6678 127.406 70.9943C127.853 71.3207 128.073 71.7731 128.073 72.3515C128.073 72.7122 127.984 73.0243 127.81 73.2906C127.635 73.5569 127.38 73.7659 127.048 73.9148V73.9721C127.466 74.1238 127.781 74.3443 128.002 74.6335C128.219 74.9227 128.328 75.272 128.328 75.6786C128.328 76.2856 128.093 76.7581 127.624 77.0988C127.154 77.4395 126.504 77.6113 125.671 77.6113H121.92V70.5046H125.573ZM126.226 73.2248C126.453 73.0587 126.567 72.8382 126.567 72.5633C126.567 72.2885 126.461 72.068 126.246 71.9019C126.034 71.7359 125.742 71.6528 125.373 71.6528H123.383V73.471H125.316C125.697 73.4739 126 73.3908 126.226 73.2248ZM126.475 76.2112C126.699 76.0451 126.81 75.8161 126.81 75.5211C126.81 75.2377 126.696 75.0143 126.47 74.854C126.244 74.6936 125.926 74.6135 125.516 74.6135H123.383V76.4603H125.542C125.943 76.4603 126.252 76.3773 126.475 76.2112Z" fill="white"/>
<path d="M129.012 77.597V76.234C129.201 76.2913 129.381 76.3199 129.553 76.3199C129.98 76.3199 130.263 76.1539 130.406 75.8217C130.615 75.2806 130.718 73.909 130.718 71.7014V70.5074H136.617V77.6141H135.125V71.9019H132.113V72.4001C132.113 73.5282 132.075 74.4359 131.998 75.1288C131.921 75.8217 131.758 76.3829 131.5 76.821C131.139 77.4166 130.581 77.7172 129.822 77.7172C129.49 77.7086 129.221 77.6714 129.012 77.597Z" fill="white"/>
<path d="M140.358 77.2763C139.777 76.9585 139.322 76.5204 138.996 75.9621C138.669 75.4037 138.506 74.7767 138.506 74.0866C138.506 73.3851 138.678 72.7523 139.018 72.1882C139.359 71.6242 139.823 71.1803 140.41 70.8511C140.997 70.5246 141.641 70.3615 142.343 70.3615C143.033 70.3615 143.663 70.5189 144.227 70.8367C144.791 71.1546 145.235 71.5898 145.555 72.1453C145.876 72.7008 146.039 73.3164 146.039 74.0007C146.039 74.1324 146.031 74.3128 146.011 74.5419H139.986C140.072 75.0916 140.336 75.5526 140.782 75.9277C141.229 76.3028 141.776 76.4889 142.431 76.4889C142.838 76.4889 143.216 76.4001 143.562 76.2197C143.909 76.0394 144.158 75.7988 144.31 75.4953H145.787C145.693 75.9134 145.487 76.2913 145.169 76.6321C144.851 76.9728 144.45 77.2448 143.96 77.4481C143.474 77.6514 142.938 77.7545 142.363 77.7545C141.607 77.7516 140.943 77.5941 140.358 77.2763ZM143.749 72.1109C143.351 71.8074 142.878 71.6557 142.328 71.6557C141.77 71.6557 141.278 71.8103 140.851 72.1167C140.424 72.4259 140.149 72.8296 140.026 73.3307H144.545C144.413 72.821 144.147 72.4144 143.749 72.1109Z" fill="white"/>
<path d="M147.857 70.5046H149.349V73.3622H153.043V70.5046H154.535V77.6113H153.043V74.7538H149.349V77.6113H147.857V70.5046Z" fill="white"/>
<path d="M157.094 70.5046H158.586V73.3622H162.279V70.5046H163.771V77.6113H162.279V74.7538H158.586V77.6113H157.094V70.5046Z" fill="white"/>
<path d="M166.189 74.121C165.951 73.7659 165.833 73.345 165.833 72.864C165.833 72.1339 166.1 71.5583 166.629 71.1374C167.159 70.7165 167.889 70.5046 168.817 70.5046H171.929V77.6113H170.438V75.2377H168.662L166.999 77.6113H165.264L167.211 74.9399C166.767 74.748 166.426 74.476 166.189 74.121ZM170.438 71.7273H168.745C168.31 71.7273 167.964 71.8303 167.709 72.0394C167.454 72.2484 167.325 72.529 167.325 72.8783C167.325 73.2305 167.454 73.5082 167.709 73.7172C167.964 73.9263 168.31 74.0294 168.745 74.0294H170.438V71.7273Z" fill="white"/>
<path d="M179.419 70.5046V71.5411C179.723 71.1632 180.089 70.8711 180.522 70.6678C180.954 70.4645 181.429 70.3615 181.95 70.3615C182.623 70.3615 183.23 70.5218 183.769 70.8453C184.31 71.1689 184.733 71.6099 185.04 72.1739C185.346 72.738 185.501 73.365 185.501 74.058C185.501 74.7509 185.346 75.3779 185.04 75.942C184.731 76.5061 184.307 76.9499 183.76 77.2706C183.216 77.5941 182.612 77.7545 181.947 77.7545C181.464 77.7545 181.017 77.6628 180.605 77.4767C180.192 77.2906 179.834 77.0329 179.531 76.7036V80.4546H178.039V70.5075H179.419V70.5046ZM182.872 76.0823C183.213 75.879 183.482 75.5984 183.683 75.2434C183.883 74.8883 183.98 74.4932 183.98 74.0551C183.98 73.6199 183.88 73.2247 183.683 72.8697C183.482 72.5147 183.213 72.2341 182.872 72.0308C182.532 71.8275 182.154 71.7244 181.736 71.7244C181.318 71.7244 180.94 71.8275 180.599 72.0308C180.258 72.2341 179.989 72.5147 179.797 72.8697C179.602 73.2247 179.505 73.6199 179.505 74.0551C179.505 74.4903 179.602 74.8855 179.797 75.2434C179.992 75.5984 180.258 75.879 180.599 76.0823C180.94 76.2856 181.318 76.3887 181.736 76.3887C182.154 76.3887 182.532 76.2856 182.872 76.0823Z" fill="white"/>
<path d="M188.666 77.2706C188.085 76.947 187.624 76.5061 187.289 75.942C186.951 75.3779 186.785 74.7509 186.785 74.058C186.785 73.3679 186.954 72.738 187.289 72.1739C187.624 71.6099 188.088 71.166 188.675 70.8453C189.262 70.5247 189.912 70.3615 190.622 70.3615C191.341 70.3615 191.994 70.5218 192.575 70.8453C193.159 71.1689 193.617 71.6099 193.952 72.1739C194.287 72.738 194.456 73.365 194.456 74.058C194.456 74.7394 194.287 75.3636 193.952 75.9277C193.617 76.4918 193.153 76.9356 192.566 77.2649C191.979 77.5913 191.329 77.7545 190.619 77.7545C189.9 77.7516 189.248 77.5913 188.666 77.2706ZM192.283 75.733C192.718 75.2978 192.936 74.7394 192.936 74.0551C192.936 73.3736 192.718 72.8153 192.283 72.3772C191.847 71.942 191.292 71.7244 190.619 71.7244C189.938 71.7244 189.379 71.9391 188.95 72.3715C188.517 72.8038 188.303 73.365 188.303 74.0551C188.303 74.7366 188.52 75.2978 188.956 75.733C189.391 76.1682 189.946 76.3858 190.619 76.3858C191.292 76.3887 191.847 76.1711 192.283 75.733Z" fill="white"/>
<path d="M197.575 77.2706C197.003 76.947 196.553 76.5089 196.224 75.9477C195.898 75.3894 195.734 74.7595 195.734 74.058C195.734 73.3679 195.9 72.738 196.233 72.1739C196.565 71.6099 197.02 71.166 197.596 70.8453C198.174 70.5247 198.812 70.3615 199.514 70.3615C200.15 70.3615 200.722 70.4846 201.235 70.7308C201.747 70.9771 202.162 71.3207 202.486 71.7616C202.807 72.2026 203.007 72.7065 203.082 73.2763H201.604C201.481 72.8038 201.235 72.4259 200.865 72.1453C200.496 71.8647 200.047 71.7272 199.514 71.7272C199.079 71.7272 198.686 71.8303 198.34 72.0336C197.994 72.2369 197.722 72.5175 197.524 72.8726C197.324 73.2276 197.226 73.6227 197.226 74.058C197.226 74.4932 197.326 74.8883 197.524 75.2462C197.724 75.6013 197.996 75.8819 198.34 76.0852C198.686 76.2885 199.076 76.3915 199.514 76.3915C200.044 76.3915 200.496 76.2484 200.871 75.9649C201.246 75.6815 201.49 75.3006 201.604 74.8282H203.082C202.996 75.398 202.79 75.9048 202.463 76.3486C202.137 76.7953 201.716 77.1389 201.206 77.3851C200.694 77.6313 200.13 77.7545 199.514 77.7545C198.795 77.7516 198.148 77.5913 197.575 77.2706Z" fill="white"/>
<path d="M203.723 77.597V76.234C203.912 76.2913 204.092 76.3199 204.264 76.3199C204.69 76.3199 204.974 76.1539 205.117 75.8217C205.326 75.2806 205.429 73.909 205.429 71.7014V70.5074H211.328V77.6141H209.836V71.9019H206.824V72.4001C206.824 73.5282 206.786 74.4359 206.709 75.1288C206.635 75.8217 206.469 76.3829 206.211 76.821C205.85 77.4166 205.292 77.7172 204.533 77.7172C204.201 77.7086 203.929 77.6714 203.723 77.597Z" fill="white"/>
<path d="M213.883 70.5046H215.375V75.65L219.211 70.5046H220.76V77.6113H219.269V72.466L215.432 77.6113H213.883V70.5046Z" fill="white"/>
<path d="M223.32 70.5046H224.812V73.3622H228.506V70.5046H229.998V77.6113H228.506V74.7538H224.812V77.6113H223.32V70.5046Z" fill="white"/>
</svg>
